<svg width="584" height="500" fill="none" xmlns="http://www.w3.org/2000/svg"><g clip-path="url(#clip0_1699_12764)"><path opacity=".25" d="M454.131 229.306l-58.677 30.282c-17.035 8.517-28.391 23.657-29.338 40.691l-4.732 58.67c-2.839 42.584-61.515 63.402-98.424 35.013l-51.105-38.798c-15.143-11.356-35.017-15.141-53.945-11.356l-66.247 15.141c-47.32 10.41-88.96-31.228-69.087-70.026l26.5-53.939c8.517-15.141 6.624-33.12-3.786-47.315L8.38 137.515c-26.498-35.959 6.625-82.328 55.838-78.542l68.14 5.677c18.928 1.893 37.855-5.677 50.158-17.98L226.05 1.249c31.231-32.174 92.747-19.872 104.103 21.765l15.143 56.778c3.785 17.034 17.981 30.282 35.963 36.906l63.408 20.818c46.373 16.087 52.051 70.026 9.464 91.791z" fill="#74C0FC"/><path d="M108 235h304c8.837 0 16 7.163 16 16v225c0 8.837-7.163 16-16 16H108c-8.837 0-16-7.163-16-16V251c0-8.837 7.163-16 16-16z" fill="#001D40" stroke="#C2C7D1" stroke-width="16"/><path d="M310 468h126v16c0 8.837-7.163 16-16 16H310v-32z" fill="#8991A6"/><path d="M345 476a8 8 0 0 0-8-8H8a8 8 0 0 0-8 8v8c0 8.837 7.163 16 16 16h313c8.837 0 16-7.163 16-16v-8z" fill="#C2C7D1"/><path opacity=".25" d="M104 251a4 4 0 0 1 4-4h200L104 438V251z" fill="url(#paint0_linear_1699_12764)"/><g style="mix-blend-mode:screen"><rect x="128" y="367" width="124" height="70" rx="7" stroke="#515F7C" stroke-width="2"/><rect x="128" y="275" width="262" height="70" rx="7" stroke="#515F7C" stroke-width="2"/><rect x="272" y="367" width="118" height="70" rx="7" stroke="#515F7C" stroke-width="2"/><path d="M335.438 391.375L339 390l1.312-3.5c.063-.312.376-.5.688-.5.25 0 .562.188.625.5L343 390l3.5 1.375c.312.063.5.375.5.625 0 .312-.188.625-.5.688L343 394l-1.375 3.562c-.063.25-.375.438-.625.438-.312 0-.625-.188-.688-.438L339 394l-3.562-1.312c-.313-.063-.438-.376-.438-.688 0-.25.125-.562.438-.625zm-4.376 6.375l7.126 3.25c.374.188.624.562.624.938 0 .374-.25.75-.624.937l-7.126 3.25-3.25 7.125c-.187.375-.562.625-.937.625a.94.94 0 0 1-.875-.625l-3.312-7.125-7.126-3.25a1.032 1.032 0 0 1-.562-.937c0-.376.188-.75.562-.938l7.126-3.25 3.312-7.125a.94.94 0 0 1 .875-.625c.375 0 .75.25.937.625l3.25 7.125zm9.25 8.75c.063-.312.376-.5.688-.5.25 0 .562.188.625.5L343 410l3.5 1.375c.312.063.5.375.5.625 0 .312-.188.625-.5.688L343 414l-1.375 3.562c-.063.25-.375.438-.625.438-.312 0-.625-.188-.688-.438L339 414l-3.562-1.312c-.313-.063-.438-.376-.438-.688 0-.25.125-.562.438-.625L339 410l1.312-3.5zM195.875 388.562l-8 28c-.313 1.063-1.375 1.688-2.437 1.376-1.063-.313-1.688-1.376-1.376-2.438l8-28c.313-1.062 1.376-1.688 2.438-1.375 1.062.313 1.688 1.375 1.375 2.437zm6.5 5.063l7 7c.813.75.813 2.063 0 2.813l-7 7a1.929 1.929 0 0 1-2.813 0 1.929 1.929 0 0 1 0-2.813l5.563-5.625-5.563-5.562a1.929 1.929 0 0 1 0-2.813 1.927 1.927 0 0 1 2.813 0zm-22 2.813L174.812 402l5.563 5.625c.813.75.813 2.063 0 2.813a1.929 1.929 0 0 1-2.813 0l-7-7a1.929 1.929 0 0 1 0-2.813l7-7a1.927 1.927 0 0 1 2.813 0c.813.75.813 2.063 0 2.813zM190.726 298.688c.32 0 .544.032.768.032.896 0 1.504-.544 1.504-1.344 0-.704-.384-1.216-.992-1.44-.512-.192-1.088-.288-1.824-.288-3.392 0-5.408 2.016-5.408 5.472v3.168h-1.088c-.832 0-1.472.64-1.472 1.472s.64 1.44 1.472 1.44h1.088v11.424c0 .992.704 1.728 1.696 1.728.96 0 1.664-.704 1.664-1.728V307.2h2.528c.864 0 1.504-.608 1.504-1.44s-.64-1.472-1.504-1.472h-2.528v-2.88c0-1.76.928-2.72 2.592-2.72zm9.8 5.248c-2.304 0-4.384.8-5.728 2.208-.448.448-.672.896-.672 1.376 0 .736.672 1.408 1.472 1.408.384 0 .736-.16 1.152-.512.992-.992 2.176-1.472 3.488-1.472 2.144 0 3.36 1.216 3.36 3.36v1.024h-4.448c-3.552 0-5.792 1.728-5.792 4.48 0 2.72 2.208 4.544 5.472 4.544 2.016 0 3.68-.672 4.832-1.888v.192c0 .96.704 1.696 1.664 1.696s1.664-.704 1.664-1.696v-8.16c0-4.128-2.4-6.56-6.464-6.56zm-.992 13.824c-1.664 0-2.752-.8-2.752-2.08 0-1.248.96-1.92 2.784-1.92h4.032v.288c0 2.08-1.792 3.712-4.064 3.712zm17.86-9.344h-5.312c-.832 0-1.44.608-1.44 1.408 0 .8.608 1.44 1.44 1.44h5.312c.832 0 1.472-.64 1.472-1.44 0-.8-.64-1.408-1.472-1.408zm10.136 11.936c3.136 0 5.824-1.632 5.824-4.8 0-2.304-1.44-3.552-4.288-4.736l-1.504-.608c-1.44-.576-2.08-.992-2.08-1.856 0-1.024.896-1.504 2.144-1.504 1.184 0 2.272.448 3.104 1.088.416.32.704.48 1.056.48.768 0 1.408-.64 1.408-1.44 0-.416-.16-.8-.512-1.12-1.216-1.184-2.976-1.92-4.992-1.92-3.104 0-5.536 1.632-5.536 4.544 0 2.368 1.568 3.52 4.096 4.576l1.6.672c1.28.512 2.208.928 2.208 1.952 0 1.184-1.152 1.76-2.528 1.76-1.504 0-2.688-.704-3.68-1.632-.352-.32-.704-.448-1.056-.448-.832 0-1.504.672-1.504 1.472 0 .448.16.8.48 1.088 1.344 1.44 3.328 2.432 5.76 2.432zm18.307-16.416c-2.24 0-4.128.864-5.28 2.304v-.64c0-.96-.704-1.696-1.632-1.696-.992 0-1.696.736-1.696 1.696v18.816c0 .992.736 1.728 1.696 1.728s1.664-.736 1.664-1.728v-6.336c1.184 1.408 3.04 2.272 5.248 2.272 4.448 0 7.712-3.488 7.712-8.224 0-4.704-3.264-8.192-7.712-8.192zm-.544 13.344c-2.848 0-4.736-2.08-4.736-5.152 0-3.04 1.92-5.12 4.736-5.12 2.784 0 4.8 2.176 4.8 5.152 0 2.944-2.016 5.12-4.8 5.12zm18.139-13.344c-2.304 0-4.384.8-5.728 2.208-.448.448-.672.896-.672 1.376 0 .736.672 1.408 1.472 1.408.384 0 .736-.16 1.152-.512.992-.992 2.176-1.472 3.488-1.472 2.144 0 3.36 1.216 3.36 3.36v1.024h-4.448c-3.552 0-5.792 1.728-5.792 4.48 0 2.72 2.208 4.544 5.472 4.544 2.016 0 3.68-.672 4.832-1.888v.192c0 .96.704 1.696 1.664 1.696s1.664-.704 1.664-1.696v-8.16c0-4.128-2.4-6.56-6.464-6.56zm-.992 13.824c-1.664 0-2.752-.8-2.752-2.08 0-1.248.96-1.92 2.784-1.92h4.032v.288c0 2.08-1.792 3.712-4.064 3.712zm19.845-13.632c-1.76 0-3.328.768-4.384 2.016v-.48c0-.992-.704-1.728-1.632-1.728-.992 0-1.696.736-1.696 1.728v12.96c0 .992.736 1.728 1.696 1.728s1.664-.704 1.664-1.728v-7.008c0-2.528 1.76-4.256 4.32-4.32.96-.064 1.632-.704 1.632-1.632 0-.896-.672-1.536-1.6-1.536zm5.984-8.48c-.96 0-1.696.736-1.696 1.728v21.248c0 .992.736 1.728 1.696 1.728s1.664-.704 1.664-1.728v-21.248c0-1.024-.704-1.728-1.664-1.728zm11.232 21.792l-5.056-5.344 4.64-5.248c.448-.512.544-.896.544-1.28 0-.896-.704-1.632-1.632-1.632-.576 0-1.024.288-1.408.736l-5.344 6.24c-.352.416-.512.8-.512 1.216 0 .448.16.832.512 1.248l5.76 6.208c.384.48.832.768 1.408.768.896 0 1.632-.736 1.632-1.632 0-.384-.096-.768-.544-1.28zm5.83 2.912c.96 0 1.664-.736 1.664-1.728v-21.248c0-.992-.704-1.728-1.664-1.728-.992 0-1.696.736-1.696 1.728v21.248c0 .992.736 1.728 1.696 1.728zm13.627-16.416c-4.576 0-8.096 3.584-8.096 8.224 0 4.704 3.584 8.192 8.448 8.192 1.952 0 3.712-.576 5.216-1.696.608-.448.832-.832.832-1.408 0-.8-.608-1.408-1.408-1.408-.288 0-.576.128-.864.32a6.05 6.05 0 0 1-3.68 1.216c-2.784 0-4.672-1.6-5.12-4.128h10.048c1.184 0 1.92-.704 1.92-1.856v-.16c0-4.224-3.104-7.296-7.296-7.296zm-.096 2.848c2.368 0 3.968 1.568 4.032 3.84h-8.544c.512-2.304 2.24-3.84 4.512-3.84zm16.106 13.568c3.136 0 5.824-1.632 5.824-4.8 0-2.304-1.44-3.552-4.288-4.736l-1.504-.608c-1.44-.576-2.08-.992-2.08-1.856 0-1.024.896-1.504 2.144-1.504 1.184 0 2.272.448 3.104 1.088.416.32.704.48 1.056.48.768 0 1.408-.64 1.408-1.44 0-.416-.16-.8-.512-1.12-1.216-1.184-2.976-1.92-4.992-1.92-3.104 0-5.536 1.632-5.536 4.544 0 2.368 1.568 3.52 4.096 4.576l1.6.672c1.28.512 2.208.928 2.208 1.952 0 1.184-1.152 1.76-2.528 1.76-1.504 0-2.688-.704-3.68-1.632-.352-.32-.704-.448-1.056-.448-.832 0-1.504.672-1.504 1.472 0 .448.16.8.48 1.088 1.344 1.44 3.328 2.432 5.76 2.432z" fill="#C2C7D1"/></g><path d="M447 398c0-6.627 5.373-12 12-12h82c6.627 0 12 5.373 12 12v78c0 13.255-10.745 24-24 24h-58c-13.255 0-24-10.745-24-24v-78z" fill="#1C7ED6"/><path fill-rule="evenodd" clip-rule="evenodd" d="M447 475.562c1.305.564 2.756.876 4.297.876 5.801 0 10.547-4.615 10.547-10.547 0-4.219-2.637-8.042-6.328-9.624V434.25a8.412 8.412 0 0 1 8.437-8.438h2.109v5.274c0 1.318.66 2.505 1.846 2.9 1.055.528 2.505.396 3.428-.527l10.547-9.492c.659-.528 1.055-1.45 1.055-2.373 0-.791-.396-1.714-1.055-2.241l-10.547-9.493c-.923-.922-2.373-1.054-3.428-.527-1.186.396-1.846 1.582-1.846 2.769v5.273h-2.109c-9.36 0-16.875 7.646-16.875 16.875v22.017l-.078.032v19.263zm4.297-6.507c-1.846 0-3.164-1.319-3.164-3.164 0-1.714 1.318-3.164 3.164-3.164 1.714 0 3.164 1.45 3.164 3.164 0 1.845-1.45 3.164-3.164 3.164zM480.96 476.174c1.186-.396 1.978-1.582 1.978-2.901V468h2.109c9.228 0 16.875-7.515 16.875-16.875V429.24c3.691-1.714 6.328-5.405 6.328-9.756 0-5.8-4.746-10.546-10.547-10.546-5.932 0-10.547 4.746-10.547 10.546 0 4.351 2.505 8.042 6.328 9.756v21.885a8.41 8.41 0 0 1-8.437 8.437h-2.109v-5.273c0-1.186-.792-2.373-1.978-2.768-1.055-.528-2.505-.396-3.428.527l-10.547 9.492c-.659.527-.923 1.45-.923 2.241 0 .923.264 1.846.923 2.373l10.547 9.492c.923.923 2.373 1.055 3.428.528zm16.743-59.854c1.714 0 3.164 1.451 3.164 3.164 0 1.846-1.45 3.164-3.164 3.164-1.846 0-3.164-1.318-3.164-3.164 0-1.713 1.318-3.164 3.164-3.164z" fill="#74C0FC"/><g opacity=".3" filter="url(#filter0_i_1699_12764)"><path d="M514 500h15c13.255 0 24-10.745 24-24v-78c0-6.627-5.373-12-12-12h-15c6.627 0 12 5.373 12 12v78c0 13.255-10.745 24-24 24z" fill="#193154"/></g><path d="M548 476h1c18.778 0 34-15.222 34-34v-10c0-18.778-15.222-34-34-34h-1v20h1c7.732 0 14 6.268 14 14v10c0 7.732-6.268 14-14 14h-1v20z" fill="#1964AB"/><g opacity=".75"><path d="M490.472 289.174L500.779 260l-20.252 23.678c-8.587 10.04-7.445 25.132 2.555 33.765l8.077 6.974a24.001 24.001 0 0 1 8.155 20.931L496.106 373l10.158-27.469a24 24 0 0 0-3.854-23.422l-7.965-9.842a24 24 0 0 1-3.973-23.093z" fill="#fff"/><path d="M512.909 247.159L504.58 208l20.487 31.551a24 24 0 0 1-.642 27.078l-21.812 30.345c-.662.922-2.105.201-1.766-.882l11.495-36.781a23.992 23.992 0 0 0 .567-12.152z" fill="#fff"/><path d="M490.472 289.174L500.779 260l-20.252 23.678c-8.587 10.04-7.445 25.132 2.555 33.765l8.077 6.974a24.001 24.001 0 0 1 8.155 20.931L496.106 373l10.158-27.469a24 24 0 0 0-3.854-23.422l-7.965-9.842a24 24 0 0 1-3.973-23.093z" stroke="#fff" stroke-width="5" stroke-linecap="round" stroke-linejoin="round"/><path d="M512.909 247.159L504.58 208l20.487 31.551a24 24 0 0 1-.642 27.078l-21.812 30.345c-.662.922-2.105.201-1.766-.882l11.495-36.781a23.992 23.992 0 0 0 .567-12.152z" stroke="#fff" stroke-width="5" stroke-linecap="round" stroke-linejoin="round"/></g></g><defs><filter id="filter0_i_1699_12764" x="514" y="386" width="39" height="114" filterUnits="userSpaceOnUse" color-interpolation-filters="sRGB"><feFlood flood-opacity="0" result="BackgroundImageFix"/><feBlend in="SourceGraphic" in2="BackgroundImageFix" result="shape"/><feColorMatrix in="SourceAlpha" values="0 0 0 0 0 0 0 0 0 0 0 0 0 0 0 0 0 0 127 0" result="hardAlpha"/><feOffset dx="-16"/><feComposite in2="hardAlpha" operator="arithmetic" k2="-1" k3="1"/><feColorMatrix values="0 0 0 0 0.0980392 0 0 0 0 0.192157 0 0 0 0 0.329412 0 0 0 0.25 0"/><feBlend mode="multiply" in2="shape" result="effect1_innerShadow_1699_12764"/></filter><linearGradient id="paint0_linear_1699_12764" x1="162" y1="247" x2="213" y2="368" gradientUnits="userSpaceOnUse"><stop stop-color="#fff"/><stop offset="1" stop-color="#fff" stop-opacity="0"/></linearGradient><clipPath id="clip0_1699_12764"><path fill="#fff" d="M0 0h584v500H0z"/></clipPath></defs></svg>