<svg width="584" height="480" fill="none" xmlns="http://www.w3.org/2000/svg"><g clip-path="url(#clip0_1699_12938)"><circle opacity=".25" cx="345" cy="86" r="206" fill="#B197FC"/><path d="M139 292h-20c-17.673 0-32 14.327-32 32v12h20c17.673 0 32-14.327 32-32v-12zM136 167h-20c-17.673 0-32 14.327-32 32v12h20c17.673 0 32-14.327 32-32v-12zM136 0h-20C98.327 0 84 14.327 84 32v12h20c17.673 0 32-14.327 32-32V0zM0 78h20c17.673 0 32 14.327 32 32v12H32c-17.673 0-32-14.327-32-32V78zM0 260h20c17.673 0 32 14.327 32 32v12H32c-17.673 0-32-14.327-32-32v-12z" fill="#63E6BE"/><path fill-rule="evenodd" clip-rule="evenodd" d="M70 239.073a32.998 32.998 0 0 1 10.907-24.513l28.932-26.074a2.001 2.001 0 0 0-2.678-2.972L78.23 211.588A37.002 37.002 0 0 0 66 239.073V463a2 2 0 1 0 4 0V239.073z" fill="#193154"/><path fill-rule="evenodd" clip-rule="evenodd" d="M70 72.073A33 33 0 0 1 80.907 47.56l28.932-26.074a2 2 0 0 0-2.678-2.972L78.23 44.588A37 37 0 0 0 66 72.073V296a2 2 0 1 0 4 0V72.073z" fill="#193154"/><path fill-rule="evenodd" clip-rule="evenodd" d="M70-75.927a32.999 32.999 0 0 1 10.907-24.513l28.932-26.074a2.001 2.001 0 0 0-2.678-2.972L78.23-103.412A37.002 37.002 0 0 0 66-75.927V148a2 2 0 1 0 4 0V-75.927z" fill="#193154"/><path fill-rule="evenodd" clip-rule="evenodd" d="M66 150.073a32.998 32.998 0 0 0-10.907-24.513L26.16 99.486a2 2 0 1 1 2.678-2.972l28.931 26.074A37.002 37.002 0 0 1 70 150.073V374a2 2 0 1 1-4 0V150.073z" fill="#193154"/><path fill-rule="evenodd" clip-rule="evenodd" d="M70 268v-515a2 2 0 1 0-4 0v515a2 2 0 1 0 4 0zM86 348.372c0-6.334 2.73-12.361 7.492-16.538l20.327-17.83a2 2 0 0 0-2.638-3.007l-20.326 17.83A25.998 25.998 0 0 0 82 348.372V357a2 2 0 1 0 4 0v-8.628zM53 361v-44.628c0-6.334-2.73-12.361-7.492-16.538l-20.327-17.83a2 2 0 0 1 2.638-3.007l20.326 17.83A25.998 25.998 0 0 1 57 316.372V361a2 2 0 1 1-4 0z" fill="#193154"/><path d="M11.297 368.126c-.685-4.818 3.054-9.126 7.92-9.126h102.749c4.802 0 8.522 4.201 7.942 8.967l-12.792 105a8 8 0 0 1-7.942 7.033H34.141a8 8 0 0 1-7.92-6.874l-14.924-105z" fill="#8991A6"/><rect x="4" y="357" width="132" height="33" rx="8" fill="#515F7C"/><path opacity=".5" fill-rule="evenodd" clip-rule="evenodd" d="M94 480h15a8 8 0 0 0 7.941-7.033L127.049 390h.777a8 8 0 0 0 8-8v-17a8 8 0 0 0-8-8h-15a8 8 0 0 1 8 8v17a8 8 0 0 1-8 8h-.777l-10.108 82.967A8 8 0 0 1 94 480z" fill="#193154"/><path d="M61.98 400.476a2.234 2.234 0 0 0 2.232-2.238A2.234 2.234 0 0 0 61.98 396a2.234 2.234 0 0 0-2.231 2.238c0 1.236.999 2.238 2.23 2.238zM61.98 422.857a2.234 2.234 0 0 0 2.232-2.238 2.234 2.234 0 0 0-2.231-2.238 2.234 2.234 0 0 0-2.231 2.238c0 1.236.999 2.238 2.23 2.238zM79.827 400.476a2.234 2.234 0 0 0 2.23-2.238 2.234 2.234 0 0 0-2.23-2.238 2.234 2.234 0 0 0-2.23 2.238c0 1.236.998 2.238 2.23 2.238zM79.827 422.857a2.234 2.234 0 0 0 2.23-2.238 2.234 2.234 0 0 0-2.23-2.238 2.234 2.234 0 0 0-2.23 2.238c0 1.236.998 2.238 2.23 2.238zM97.673 400.476a2.234 2.234 0 0 0 2.23-2.238 2.234 2.234 0 0 0-2.23-2.238 2.234 2.234 0 0 0-2.23 2.238c0 1.236.998 2.238 2.23 2.238zM97.673 422.857a2.234 2.234 0 0 0 2.23-2.238 2.234 2.234 0 0 0-2.23-2.238 2.234 2.234 0 0 0-2.23 2.238c0 1.236.998 2.238 2.23 2.238zM115.519 400.476a2.235 2.235 0 0 0 2.231-2.238 2.235 2.235 0 0 0-2.231-2.238 2.235 2.235 0 0 0-2.231 2.238c0 1.236.999 2.238 2.231 2.238zM115.519 422.857a2.235 2.235 0 0 0 2.231-2.238 2.235 2.235 0 0 0-2.231-2.238 2.235 2.235 0 0 0-2.231 2.238c0 1.236.999 2.238 2.231 2.238z" fill="#515F7C"/><path d="M64.212 420.619a2.234 2.234 0 0 1-2.231 2.238 2.234 2.234 0 0 1-2.231-2.238c0-1.236.999-2.238 2.23-2.238a2.234 2.234 0 0 1 2.232 2.238zM61.98 467.619a2.234 2.234 0 0 0 2.232-2.238 2.234 2.234 0 0 0-2.231-2.238 2.234 2.234 0 0 0-2.231 2.238c0 1.236.999 2.238 2.23 2.238zM64.212 443a2.234 2.234 0 0 1-2.231 2.238A2.234 2.234 0 0 1 59.75 443c0-1.236.999-2.238 2.23-2.238A2.234 2.234 0 0 1 64.213 443zM82.058 420.619a2.234 2.234 0 0 1-2.231 2.238 2.234 2.234 0 0 1-2.23-2.238c0-1.236.998-2.238 2.23-2.238a2.234 2.234 0 0 1 2.23 2.238zM79.827 467.619a2.234 2.234 0 0 0 2.23-2.238 2.234 2.234 0 0 0-2.23-2.238 2.234 2.234 0 0 0-2.23 2.238c0 1.236.998 2.238 2.23 2.238zM82.058 443a2.234 2.234 0 0 1-2.231 2.238 2.234 2.234 0 0 1-2.23-2.238c0-1.236.998-2.238 2.23-2.238a2.234 2.234 0 0 1 2.23 2.238zM99.904 420.619a2.234 2.234 0 0 1-2.23 2.238 2.234 2.234 0 0 1-2.232-2.238c0-1.236 1-2.238 2.231-2.238a2.234 2.234 0 0 1 2.23 2.238zM97.673 467.619a2.234 2.234 0 0 0 2.23-2.238 2.234 2.234 0 0 0-2.23-2.238 2.234 2.234 0 0 0-2.23 2.238c0 1.236.998 2.238 2.23 2.238zM99.904 443a2.234 2.234 0 0 1-2.23 2.238A2.234 2.234 0 0 1 95.441 443c0-1.236 1-2.238 2.231-2.238a2.234 2.234 0 0 1 2.23 2.238zM117.75 420.619a2.235 2.235 0 0 1-2.231 2.238 2.235 2.235 0 0 1-2.231-2.238c0-1.236.999-2.238 2.231-2.238a2.235 2.235 0 0 1 2.231 2.238zM44.077 400.476a2.234 2.234 0 0 1-2.23-2.238c0-1.236.998-2.238 2.23-2.238a2.234 2.234 0 0 1 2.23 2.238 2.234 2.234 0 0 1-2.23 2.238zM44.077 422.857a2.234 2.234 0 0 1-2.23-2.238c0-1.236.998-2.238 2.23-2.238a2.234 2.234 0 0 1 2.23 2.238 2.234 2.234 0 0 1-2.23 2.238zM26.23 400.476a2.234 2.234 0 0 1-2.23-2.238c0-1.236.999-2.238 2.23-2.238a2.234 2.234 0 0 1 2.232 2.238 2.234 2.234 0 0 1-2.231 2.238zM26.23 422.857a2.234 2.234 0 0 1-2.23-2.238c0-1.236.999-2.238 2.23-2.238a2.234 2.234 0 0 1 2.232 2.238 2.234 2.234 0 0 1-2.231 2.238z" fill="#515F7C"/><path d="M41.846 420.619c0 1.236.999 2.238 2.23 2.238a2.234 2.234 0 0 0 2.232-2.238 2.234 2.234 0 0 0-2.231-2.238 2.234 2.234 0 0 0-2.23 2.238zM44.077 467.619a2.234 2.234 0 0 1-2.23-2.238c0-1.236.998-2.238 2.23-2.238a2.234 2.234 0 0 1 2.23 2.238 2.234 2.234 0 0 1-2.23 2.238zM41.846 443c0 1.236.999 2.238 2.23 2.238A2.234 2.234 0 0 0 46.309 443a2.234 2.234 0 0 0-2.231-2.238 2.234 2.234 0 0 0-2.23 2.238zM24 420.619c0 1.236.999 2.238 2.23 2.238a2.234 2.234 0 0 0 2.232-2.238 2.234 2.234 0 0 0-2.231-2.238A2.234 2.234 0 0 0 24 420.619z" fill="#515F7C"/><path fill="#fff" d="M458 460h-46v20h46z"/><path fill="#515F7C" d="M454 384h-14v53h14zM384 471h33.938l26.812-7.875c2.062-.75 4.312-1.125 6.562-1.125H468v13.5c0 2.625-1.875 4.5-4.5 4.5h-15c-2.438 0-4.5-1.875-4.5-4.5v-2.812l-24.188 7.124c-.374.188-.75.188-1.312.188H384c-2.438 0-4.5-1.875-4.5-4.5 0-2.438 2.062-4.5 4.5-4.5z"/><path d="M450 462l-.187.188c-1.688.187-3.375.374-5.063.937L417.938 471H384v-7.5c0-4.5 2.625-8.625 6.75-10.688l22.688-11.437c4.125-2.063 6.562-6.187 6.562-10.687V390c0-3.188 2.813-6 6-6h18v45c0 1.688 1.5 3 3 3 1.688 0 3-1.312 3-3v-45h12c3.75 0 6.563 3.188 6 6.75l-4.5 30.375a48.245 48.245 0 0 0 2.063 21.375c1.687 5.062 2.437 10.312 2.437 15.562V462h-18z" fill="#193154"/><path fill="#fff" d="M503 460h46v20h-46z"/><path fill="#515F7C" d="M507 384h14v53h-14zM577 471h-33.938l-26.812-7.875c-2.062-.75-4.312-1.125-6.562-1.125H493v13.5c0 2.625 1.875 4.5 4.5 4.5h15c2.438 0 4.5-1.875 4.5-4.5v-2.812l24.188 7.124c.374.188.75.188 1.312.188H577c2.438 0 4.5-1.875 4.5-4.5 0-2.438-2.062-4.5-4.5-4.5z"/><path d="M511 462l.187.188c1.688.187 3.375.374 5.063.937L543.062 471H577v-7.5c0-4.5-2.625-8.625-6.75-10.688l-22.688-11.437c-4.125-2.063-6.562-6.187-6.562-10.687V390c0-3.188-2.813-6-6-6h-18v45c0 1.688-1.5 3-3 3-1.688 0-3-1.312-3-3v-45h-12c-3.75 0-6.563 3.188-6 6.75l4.5 30.375a48.245 48.245 0 0 1-2.063 21.375c-1.687 5.062-2.437 10.312-2.437 15.562V462h18z" fill="#193154"/><path fill="#B197FC" d="M460 92h-33v292h33zM501 92h33v292h-33z"/><path d="M564-244a8 8 0 0 0-8-8H406.039a8 8 0 0 0-8 8v412l-12.865 98.969c-.622 4.787 3.106 9.031 7.933 9.031h174.872c4.798 0 8.516-4.193 7.943-8.956L564 168v-412z" fill="#193154"/><path d="M427.919 45a1 1 0 0 0 0-2v2zM398 45h29.919v-2H398v2zM427.919 29a1 1 0 0 0 0-2v2zM398 29h29.919v-2H398v2zM427.919 61a1 1 0 0 0 0-2v2zM398 61h29.919v-2H398v2z" fill="#001D40"/><g opacity=".3" fill="#001D40"><path d="M535.5-252a8 8 0 0 1 8 8v412l11.922 99.044c.573 4.763-3.145 8.956-7.943 8.956h20.5c4.798 0 8.516-4.193 7.943-8.956L564 168v-412a8 8 0 0 0-8-8h-20.5zM534 276h-20.5v108h1c3.188 0 6 2.812 6 6v40.688c0 4.5 2.438 8.624 6.562 10.687l22.688 11.437c4.125 2.063 6.75 6.188 6.75 10.688v7.5c2.438 0 4.5 2.062 4.5 4.5 0 2.625-2.062 4.5-4.5 4.5H577c2.438 0 4.5-1.875 4.5-4.5 0-2.438-2.062-4.5-4.5-4.5v-7.5c0-4.5-2.625-8.625-6.75-10.688l-22.688-11.437c-4.124-2.063-6.562-6.187-6.562-10.687V390c0-3.188-2.812-6-6-6h-1V276zM460 276h-20.5v108h2c3.75 0 6.562 3.188 6 6.75l-4.5 30.375a48.23 48.23 0 0 0 2.062 21.375c1.688 5.062 2.438 10.312 2.438 15.562V475.5c0 2.625-1.875 4.5-4.5 4.5h20.5c2.625 0 4.5-1.875 4.5-4.5v-17.438c0-5.25-.75-10.5-2.438-15.562a48.23 48.23 0 0 1-2.062-21.375l4.5-30.375c.562-3.562-2.25-6.75-6-6.75h-2V276z"/></g><path fill="#63E6BE" d="M228 296h-47v88h47z"/><g filter="url(#filter0_i_1699_12938)"><path d="M236-252h-63v618h63v-618z" fill="#1C7ED6"/></g><path d="M203 128a1 1 0 0 0 0-2v2zm-30 0h30v-2h-30v2zM203 112a1 1 0 0 0 0-2v2zm-30 0h30v-2h-30v2zM203 144a1 1 0 0 0 0-2v2zm-30 0h30v-2h-30v2z" fill="#74C0FC"/><path fill="#193154" d="M175 405h32v41h-32zM235 468v6l-6 6h-12l-6-6-6 6h-12l-6-6-6 6h-12l-6-6-6 6h-12l-6-6v-6h96zm-66-69v-12c0-1.5 1.5-3 3-3h60c1.688 0 3 1.5 3 3v15h-63c-1.5 0-3-1.312-3-3z"/><path d="M139 455.062V468h96v-66h-60v12h9c1.688 0 3 1.5 3 3 0 1.688-1.312 3-2.812 3H175v6h9c1.688 0 3 1.5 3 3 0 1.688-1.312 3-2.812 3H175l-22.312 5.625c-7.876 2.063-13.688 9.187-13.688 17.437z" fill="#515F7C"/><g filter="url(#filter1_i_1699_12938)"><rect width="75" height="39" rx="5" transform="matrix(-1 0 0 1 242 327)" fill="#74C0FC"/></g><path d="M197 341a1 1 0 0 0 0-2v2zm-30 0h30v-2h-30v2zM197 355a1 1 0 0 0 0-2v2zm-30 0h30v-2h-30v2z" fill="#1C7ED6"/><path fill="#63E6BE" d="M272 296h47v88h-47z"/><g filter="url(#filter2_i_1699_12938)"><path d="M264-252h63v618h-63v-618z" fill="#1C7ED6"/></g><path fill="#193154" d="M325 405h-32v41h32zM265 468v6l6 6h12l6-6 6 6h12l6-6 6 6h12l6-6 6 6h12l6-6v-6h-96zm66-69v-12c0-1.5-1.5-3-3-3h-60c-1.688 0-3 1.5-3 3v15h63c1.5 0 3-1.312 3-3z"/><path d="M361 455.062V468h-96v-66h60v12h-9c-1.688 0-3 1.5-3 3 0 1.688 1.312 3 2.812 3H325v6h-9c-1.688 0-3 1.5-3 3 0 1.688 1.312 3 2.812 3H325l22.312 5.625c7.876 2.063 13.688 9.187 13.688 17.437z" fill="#515F7C"/><g filter="url(#filter3_i_1699_12938)"><rect x="258" y="327" width="75" height="39" rx="5" fill="#74C0FC"/></g><g opacity=".5" fill="#193154"><path d="M142 477l3 3h6l-6-6-3 3zM166 477l3 3h6l-6-6-3 3zM190 477l3 3h6l-6-6-3 3zM214 477l3 3h12l6-6v-87c0-1.5-1.312-3-3-3h-4v-18h9a5 5 0 0 0 5-5v-29a5 5 0 0 0-5-5h-1v-579h-18v579h1a5 5 0 0 1 5 5v29a5 5 0 0 1-5 5h-9v18h4c1.688 0 3 1.5 3 3v87l-3 3z"/></g><g opacity=".5" fill="#193154"><path d="M318.25 474l6 6h-5.5l-3.25-3.25 2.75-2.75zM300.25 480l-6-6-2.75 2.75 3.25 3.25h5.5zM276.25 480l-6-6-3 3 3 3h6zM308.25-252h18.5v579h1a5 5 0 0 1 5 5v29a5 5 0 0 1-5 5h-9v18h9c1.5 0 3 1.5 3 3v12c0 1.688-1.5 3-3 3h-3v30l22.312 5.625c7.876 2.063 13.688 9.187 13.688 17.437V474l-6 6h-12l-3.25-3.25 2.75-2.75v-18.938c0-8.25-5.812-15.374-13.688-17.437L306.25 432v-30h3c1.5 0 3-1.312 3-3v-12c0-1.5-1.5-3-3-3h-9v-18h9a5 5 0 0 0 5-5v-29a5 5 0 0 0-5-5h-1v-579z"/></g></g><defs><filter id="filter0_i_1699_12938" x="173" y="-252" width="63" height="618" filterUnits="userSpaceOnUse" color-interpolation-filters="sRGB"><feFlood flood-opacity="0" result="BackgroundImageFix"/><feBlend in="SourceGraphic" in2="BackgroundImageFix" result="shape"/><feColorMatrix in="SourceAlpha" values="0 0 0 0 0 0 0 0 0 0 0 0 0 0 0 0 0 0 127 0" result="hardAlpha"/><feOffset dx="-.25"/><feComposite in2="hardAlpha" operator="arithmetic" k2="-1" k3="1"/><feColorMatrix values="0 0 0 0 0 0 0 0 0 0 0 0 0 0 0 0 0 0 0.25 0"/><feBlend in2="shape" result="effect1_innerShadow_1699_12938"/></filter><filter id="filter1_i_1699_12938" x="167" y="327" width="75" height="39" filterUnits="userSpaceOnUse" color-interpolation-filters="sRGB"><feFlood flood-opacity="0" result="BackgroundImageFix"/><feBlend in="SourceGraphic" in2="BackgroundImageFix" result="shape"/><feColorMatrix in="SourceAlpha" values="0 0 0 0 0 0 0 0 0 0 0 0 0 0 0 0 0 0 127 0" result="hardAlpha"/><feOffset dx="-.25"/><feComposite in2="hardAlpha" operator="arithmetic" k2="-1" k3="1"/><feColorMatrix values="0 0 0 0 0 0 0 0 0 0 0 0 0 0 0 0 0 0 0.25 0"/><feBlend in2="shape" result="effect1_innerShadow_1699_12938"/></filter><filter id="filter2_i_1699_12938" x="264" y="-252" width="63" height="618" filterUnits="userSpaceOnUse" color-interpolation-filters="sRGB"><feFlood flood-opacity="0" result="BackgroundImageFix"/><feBlend in="SourceGraphic" in2="BackgroundImageFix" result="shape"/><feColorMatrix in="SourceAlpha" values="0 0 0 0 0 0 0 0 0 0 0 0 0 0 0 0 0 0 127 0" result="hardAlpha"/><feOffset dx="-.25"/><feComposite in2="hardAlpha" operator="arithmetic" k2="-1" k3="1"/><feColorMatrix values="0 0 0 0 0 0 0 0 0 0 0 0 0 0 0 0 0 0 0.25 0"/><feBlend in2="shape" result="effect1_innerShadow_1699_12938"/></filter><filter id="filter3_i_1699_12938" x="258" y="327" width="75" height="39" filterUnits="userSpaceOnUse" color-interpolation-filters="sRGB"><feFlood flood-opacity="0" result="BackgroundImageFix"/><feBlend in="SourceGraphic" in2="BackgroundImageFix" result="shape"/><feColorMatrix in="SourceAlpha" values="0 0 0 0 0 0 0 0 0 0 0 0 0 0 0 0 0 0 127 0" result="hardAlpha"/><feOffset dx="-.25"/><feComposite in2="hardAlpha" operator="arithmetic" k2="-1" k3="1"/><feColorMatrix values="0 0 0 0 0 0 0 0 0 0 0 0 0 0 0 0 0 0 0.25 0"/><feBlend in2="shape" result="effect1_innerShadow_1699_12938"/></filter><clipPath id="clip0_1699_12938"><path fill="#fff" d="M0 0h584v480H0z"/></clipPath></defs></svg>