<svg width="960" height="1248" fill="none" xmlns="http://www.w3.org/2000/svg"><path fill-rule="evenodd" clip-rule="evenodd" d="M65 112H21c-3.375 0-6 2.75-6 6v44c0 2.25 1.75 4 3.875 4v8c0 1.125.875 2 2 2h44c1.125 0 2-.875 2-2v-8c2.375 0 4.25-1.75 4.25-4v-44c-.125-3.25-2.75-6-6.125-6zm0 62H21v-8h44v8zm4-12c0 1.125-1 2-2 2H19c-1.125 0-2-.875-2-2v-44c0-2.125 1.75-4 4-4h44c2.125 0 4 1.875 4 4v44zm-14-42H31c-4.5 0-8 3.625-8 8v10c0 4.5 3.5 8 8 8h24c4.375 0 8-3.5 8-8v-10c0-4.375-3.5-8-8-8zm6 18c0 3.375-2.75 6-6 6H31c-3.375 0-6-2.625-6-6v-10c0-3.25 2.625-6 6-6h24c3.25 0 6 2.75 6 6v10zm1 16H44c-.625 0-.875.5-.875 1 0 .625.375 1 1 1h18c.5 0 1-.375 1-1 0-.5-.5-1-1.125-1zm-37 0c-1.125 0-2 1-2 2 0 1.125.875 2 2 2 1 0 2-.875 2-2 0-1-.875-2-2-2zm908 164.625l-24-14c-.5-.375-1.375-.625-2-.625-.75 0-1.375.25-1.875.625l-24 14c-1.25.625-2 2-2 3.5V350c0 1.5.75 2.875 2 3.5l24 14c.5.375 1.375.5 2 .5.5 0 1.375-.125 1.875-.5l24-14c1.25-.625 2.125-2 2.125-3.5v-27.875c0-1.5-.875-2.875-2.125-3.5zm-25.875 33.5L892.875 329h28.375l-14.125 23.125zm-26-30.125l8.625 6.375-8.625 18.25V322zm28.75-14.625L932 320.25l-8.75 6.375-13.375-19.25zM921.125 327H893l14.125-20.25 14 20.25zm-30.25-.375l-8.75-6.375 22.125-12.875-13.375 19.25zm-9.375 23.75l9.625-20.25 14 22.75-23.625-2.5zm51.125 0l-23.625 2.5 14-22.75 9.625 20.25zm-8.25-22L933 322c0 .125.125.125.125.125v24.5l-8.75-18.25zM883.25 352.5l22.875 2.5v10.75L883.25 352.5zm24.875 13.25V355l22.75-2.5-22.75 13.25zm30 739.25c.5 0 1-.38 1-1 0-.5-.5-1-1-1h-7v-10h7c.5 0 1-.38 1-1 0-.5-.5-1-1-1h-7c-.063 0-.094.03-.109.06-.004.01-.007.02-.009.02l-.004.02c-.003.01-.003.02-.003.02-.5-5.87-5.125-10.5-11-11 0 0 .125 0 .125-.12v-7c0-.5-.5-1-1-1-.625 0-1 .5-1 1v7h-10v-7c0-.5-.5-1-1-1-.625 0-1 .5-1 1v7h-10v-7c0-.5-.5-1-1-1-.625 0-1 .5-1 1v7.12c-5.875.5-10.5 5.13-11 11v-.12h-7c-.625 0-1 .5-1 1 0 .62.375 1 1 1h7v10h-7c-.625 0-1 .5-1 1 0 .62.375 1 1 1h7v10h-7c-.625 0-1 .5-1 1 0 .62.375 1 1 1h7c.5 5.88 5.125 10.5 11 11v7c0 .62.375 1 1 1 .5 0 1-.38 1-1v-7h10v7c0 .62.375 1 1 1 .5 0 1-.38 1-1v-7h10v7c0 .62.375 1 1 1 .5 0 1-.38 1-1v-7H920c5.875-.5 10.5-5.12 11-11h7.125c.5 0 1-.38 1-1 0-.5-.5-1-1-1h-7v-10h7zm-9 11c0 5.62-4.5 10-10 10h-24c-5.625 0-10-4.38-10-10v-24c0-5.5 4.375-10 10-10h24c5.5 0 10 4.5 10 10v24zm-32-28c-3.375 0-6 2.75-6 6v20c0 3.38 2.625 6 6 6h20c3.25 0 6-2.62 6-6v-20c0-3.25-2.75-6-6-6h-20zm24 26c0 2.25-1.875 4-4 4h-20c-2.25 0-4-1.75-4-4v-20c0-2.12 1.75-4 4-4h20c2.125 0 4 1.88 4 4v20zm14.125-387.125a9.304 9.304 0 0 1-2.5 6.375c3.75 1.375 6.375 5 6.375 9.125 0 5.375-4.375 9.625-9.75 9.625H884.75c-5.375 0-9.625-4.25-9.625-9.625 0-4.125 2.5-7.75 6.25-9.125-1.5-1.75-2.375-4-2.375-6.375 0-5.25 4-9.5 9.125-9.75-.875-1.375-1.375-3.125-1.375-4.875 0-4.75 3.875-8.75 8.75-8.75h1.875c4.75 0 8.75-3.875 8.75-8.625 0-1.75-.625-3.5-1.75-5-.125-.375-.25-.75-.125-1 .25-.375.5-.625.875-.625.625-.125 1.25-.25 2-.25 6.875 0 12.625 5.75 12.625 12.625 0 1-.125 2-.375 3 4.5.25 8.125 4.125 8.125 8.75 0 1.625-.625 3.375-1.5 4.75 5.125.25 9.25 4.5 9.25 9.75zM884.75 750h44.625c4.25 0 7.75-3.375 7.625-7.625 0-3.875-2.625-7-6.5-7.625a1.127 1.127 0 0 1-.75-.75c-.125-.375 0-.75.375-1 2-1.5 3.125-3.75 3.125-6.125 0-4.25-3.5-7.75-7.75-7.75h-1.75a.94.94 0 0 1-.875-.625c-.25-.375-.125-.875.25-1.125 1.5-1.375 2.375-3.125 2.375-5.125 0-3.625-3.125-6.75-6.75-6.75H918c-.375 0-.625-.125-.875-.375-.125-.25-.25-.625-.125-.875.5-1.25.75-2.375.75-3.625 0-5.75-4.875-10.625-10.625-10.625a.33.33 0 0 0-.111.01c-.037.013-.067.043-.139.115.75 1.375 1.25 3.125 1.25 4.75 0 5.875-4.875 10.625-10.75 10.625H895.5c-3.75 0-6.75 3.125-6.75 6.75 0 2 .75 3.75 2.25 5.125.375.25.5.75.25 1.125a.94.94 0 0 1-.875.625h-1.75c-4.25 0-7.625 3.5-7.625 7.75 0 2.375 1 4.625 3 6.125.375.25.5.625.375 1s-.375.75-.75.75c-3.875.625-6.5 3.75-6.5 7.625A7.576 7.576 0 0 0 884.75 750zm-443.625 254c0-12.125 9.75-22 22-22 12.125 0 22 9.875 22 22v5c0 .62.375 1 1 1 .5 0 1-.38 1-1v-5c0-13.25-10.75-24-24-24-13.375 0-24 10.75-24 24v5c0 .62.375 1 1 1 .5 0 1-.38 1-1v-5zm60-4c-1.125 0-2 1-2 2 0 1.12.875 2 2 2 1 0 2-.88 2-2 0-1-1-2-2-2zm-1-10c-5 0-9 4.125-9 9v9c0 3.37-2.75 6-6 6h-45c-2.875 0-5 2.25-5 5 0 2.87 2.125 5 5 5h5v7c0 2.87 2.125 5 5 5h2c2.75 0 5-2.13 5-5v-7h12v7c0 2.87 2.125 5 5 5h2c2.75 0 5-2.13 5-5v-7h2.375c7.375 0 13.875-4.63 16.125-11.63l.125-.37h8.375c3.75 0 7-3.13 7-7v-4c0-6-5-11-11-11h-4zm-29 41v-9H455v9c0 1.75-1.25 3-3 3h-2c-1.625 0-3-1.25-3-3v-9h-7c-1.625 0-3-1.25-3-3 0-1.63 1.375-3 3-3h45.125c4.375 0 8-3.5 8-8v-9c0-3.75 3.125-7 7-7h4c4.875 0 9 4.125 9 9v4c0 2.87-2.25 5-5 5h-9c-.5 0-.875.37-1 .75l-.375 1c-2 6.12-7.75 10.25-14.25 10.25h-4.375v9c0 1.75-1.375 3-3 3h-2c-1.75 0-3-1.25-3-3zm137.5-106.75c-.5-.375-1.125-.25-1.375.25-.375.5-.25 1.125.25 1.375 6.125 3.875 9.5 9.625 9.5 15.625v1.5c0 .625.5 1 1 1 .375 0 .875-.375.875-1v-1.5c.125-6.75-3.625-13-10.25-17.25zM650 910h-1.5c-6 0-11.75-3.375-15.625-9.5-.25-.5-.875-.625-1.375-.25-.5.25-.625.875-.25 1.375C635.5 908.25 641.75 912 648.5 912h1.5c.625 0 1-.375 1-1 0-.5-.375-1-1-1zm-3-18c2.125 0 3.875-1.75 3.875-3.875S649 884.25 647 884.25c-2.25 0-3.875 1.875-3.875 3.875 0 2.125 1.75 3.875 3.875 3.875zm0-5.875c1 0 1.875.875 1.875 1.875s-.875 1.875-1.875 1.875c-1.125 0-1.875-.875-1.875-1.875s.875-1.875 1.875-1.875zm1.125 50.25l-.012-.109c-.247-2.226-.532-4.804-3.238-7.141-2.875-2.375-5.5-2.25-7.875-2.125-2.25.25-4.25.375-6.5-1.5-2.125-1.875-2.375-3.75-2.5-6l-.012-.109c-.247-2.226-.532-4.804-3.238-7.141-.5-.25-1.125-.25-1.5.125-.375.5-.25 1.125.125 1.5 2.165 1.684 2.363 3.484 2.597 5.622l.028.253.041.379v.003c.232 2.162.495 4.626 3.209 6.868 2.875 2.375 5.5 2.25 7.875 2l.046-.003c2.231-.124 4.219-.234 6.329 1.628 2.153 1.794 2.36 3.588 2.593 5.601l.032.274.008.073c.247 2.356.52 4.951 3.242 7.302.25.125.5.125.625.125.25 0 .5 0 .75-.25.375-.5.25-1.125-.125-1.5-2.015-1.66-2.232-3.544-2.462-5.546l-.038-.329zM595.375 924c1.125 0 2.25-.375 3.125-1.25l31.25-31.25c2-2 1.625-5.375-.75-7-4.25-2.75-9.375-4.5-14.875-4.5-2 0-4.125.25-6.25.75C598 883 590 891 587.75 900.875c-1.75 7.875-.125 15.25 3.75 21.125.875 1.375 2.375 2 3.875 2zm-5.625-22.625c2-9.125 9.5-16.625 18.625-18.625 1.875-.5 3.875-.75 5.75-.75 4.875 0 9.625 1.5 13.75 4.125.625.5 1.125 1.125 1.125 2 .125.75-.125 1.375-.625 2l-31.25 31.25c-.5.375-1.125.625-1.75.625-.875 0-1.75-.375-2.25-1.125-3.75-5.75-5-12.625-3.375-19.5zM595.125 936c-2.25 0-4 1.875-4 4 0 2.25 1.75 4 4 4 2.125 0 3.875-1.75 3.875-3.875 0-2.25-1.75-4.125-3.875-4.125zm0 6c-1.125 0-2-.875-2-1.875s1-1.875 2-1.875 1.875.875 1.875 1.875-.875 1.875-1.875 1.875zM631 936c-2.25 0-3.875 1.875-3.875 4-.125 2.25 1.75 4 3.875 4 2 0 3.875-1.75 3.875-3.875C635 937.875 633.25 936 631 936zm0 6c-1.125 0-1.875-.875-1.875-1.875S630 938.25 631 938.25s1.875.875 1.875 1.875c.125 1-.75 1.875-1.875 1.875zM44.125 540h23c2.125 0 4 1.875 4 4v12c0 2.25-1.875 4-4 4h-48c-2.25 0-4-1.75-4-4v-12c0-2.125 1.75-4 4-4H22v-2c0-1.625 1.25-3 3-3h4c1.625 0 3 1.375 3 3v2h10v-16.125c-7.25-.5-13-6.5-13-13.875 0-7.625 6.375-13.875 14.125-13.875 7.625 0 14 6.25 14 13.875 0 7.5-5.75 13.5-13 14v16zm-1-42c-6.625 0-12 5.5-12 12 0 6.625 5.375 12 12 12 6.5 0 12-5.375 12-12 0-6.5-5.5-12-12-12zm-18 39c-.625 0-1 .5-1 1v2h6v-2c0-.5-.5-1-1-1h-4zm42 21c1 0 2-.875 2-2v-12c0-1-1-2-2-2h-48c-1.125 0-2 1-2 2v12c0 1.125.875 2 2 2h48zm-26-56c2.125 0 4 1.875 4 4 0 2.25-1.875 4-4 4-2.25 0-4-1.75-4-4 0-2.125 1.75-4 4-4zm-2 4c0 1.125.875 2 2 2 1 0 2-.875 2-2 0-1-1-2-2-2-1.125 0-2 1-2 2zm160.625-99.5a.98.98 0 0 0-1.375 0 72.357 72.357 0 0 0-6 6.375c-3.25-4.25-7.125-8.625-11.375-12.5a.98.98 0 0 0-1.375 0c-11.875 11-20.5 25.75-20.5 34.75 0 16 12.5 28.875 28 28.875 15.375 0 28-12.875 28-28.875 0-6.75-6.625-20.375-15.375-28.625zM187.125 462c-14.375 0-26-12-26-26.875 0-8.25 8.125-22.125 19.125-32.75 4.125 4 8 8.375 11.125 12.75.125.25.5.375.75.375.375 0 .625-.125.875-.375 1.875-2.25 3.875-4.5 6-6.5 8.125 7.875 14.125 20.375 14.125 26.5 0 14.875-11.75 26.875-26 26.875zm13.5-33.375c-.101-.202-.365-.322-.594-.427l-.003-.001-.005-.002-.012-.006-.073-.033-.038-.019-.025-.012c-.375 0-.625.125-.875.375l-6.5 7.25A3605.105 3605.105 0 0 1 180.875 421c-.125-.125-.5-.375-.75-.375s-.625.125-.75.375c-5.75 6.875-8.375 10.75-8.375 15.25 0 .625.5 1 1.125 1 .5 0 1-.375 1-1 0-3.75 2.125-7.125 7-13.125 2.126 2.733 5.892 7.598 8.84 11.408l.036.046.008.01 1.866 2.411c.375.5 1 .75 1.625.75s1.25-.25 1.625-.625l5.375-6.25c3 5.875 1.5 13-3.625 16.5-.375.375-.5 1-.25 1.375s.5.5.875.5c.183 0 .299-.067.446-.152l.001-.001c.054-.03.112-.064.178-.097 5.875-4.125 7.625-12.375 4.125-19.125a5.05 5.05 0 0 1-.395-.76c-.069-.151-.141-.313-.23-.49zM50.25 916.375c.375-.375 1-.5 1.375-.125 15.25 11.625 15.5 26.25 15.5 26.75 0 .625-.5 1-1 1-.625 0-1-.375-1-1 0 0-.125-2-.875-5H21.875c-.75 3-.875 5-.875 5 0 .625-.375 1-1 1-.5 0-.875-.375-.875-1 0-.125.25-19.125 21.875-31-21.625-11.75-21.875-30.75-21.875-31 0-.5.375-1 1-1 .5 0 .875.5 1 1 0 .125 0 2.125.75 5H64.25c.75-2.875.75-4.875.75-5 .125-.5.5-1 1.125-1 .5 0 1 .5 1 1 0 .25-.375 20.125-23.625 31.875l-.125.125c-6.5 3.25-11 7.125-14.25 11H57c-1.75-2-3.875-4.125-6.5-6.125-.5-.375-.625-1-.25-1.5zM58.5 898c2.625-3.5 4.25-7 5.125-10H22.5c.875 3 2.5 6.5 5.125 10H58.5zm-1.625 2h-27.75c3.25 3.875 7.75 7.75 14 10.875 6.125-3.125 10.625-7 13.75-10.875zm-29.25 26c-2.625 3.625-4.25 7.125-5.125 10h41.25c-1-2.875-2.5-6.375-5.25-10H27.625zm191.5-125.375c0-1.875-1.125-3.75-2.875-4.5a5.662 5.662 0 0 0-2-.375c-3.125 0-4.5 2.5-4.75 3.5l-4.125 15.25c-.125.375-.375.5-.75.5-.25 0-.625-.125-.625-.625v-.125l4.25-20.25c.125-.375.125-.75.125-1.125 0-2.625-2-4.875-4.875-4.875-2 0-4.25 1.375-4.75 3.75l-4.5 21.375C194 814.25 193 815 191.875 815s-2.125-.75-2.375-1.75L183.125 788c-.5-2.375-2.625-3.875-4.875-3.875-3.375 0-4.75 3-4.75 4.875 0 .375 0 .75.125 1.125l6.125 24.5v.125c0 .125 0 .25-.375.25-.125 0-.25 0-.375-.125l-5.625-17.5c-.75-2.125-2.625-3.625-4.75-3.625-1.125 0-4.875.875-4.875 4.875 0 .5.125 1 .25 1.5l8.5 26.125-7.25-7.375a6.344 6.344 0 0 0-4.5-1.875c-3.5 0-5.75 3-5.75 5.75 0 1.5.625 3 1.75 4.125l14.875 14.875c4 4.125 9.375 6.25 15.125 6.25h6.375c7.875-.25 14.75-5.625 16.75-13.125l9-32.875c.021-.086.043-.168.064-.248.1-.384.186-.713.186-1.127zm-2.022.221a6.075 6.075 0 0 1-.041.216c-.031.157-.062.313-.062.438l-9 32.875c-1.875 6.625-8 11.5-15.125 11.625h-6.125c-5.25 0-10-2-13.75-5.625L158.25 825.5c-.75-.625-1.25-1.625-1.25-2.625s.875-3.875 3.75-3.875c1.125 0 2.25.5 3.125 1.375l7.25 7.25c.375.375.875.625 1.375.625.75 0 2-.625 2-2 0-.25 0-.375-.125-.625l-8.5-26.125c0-.125-.031-.281-.063-.438-.031-.156-.062-.312-.062-.437 0-2.125 1.875-2.875 2.875-2.875 1.25 0 2.375.875 2.875 2.25l5.625 17.375c.375 1 1.25 1.625 2.25 1.625 1.75 0 2.375-1.5 2.375-2.25 0-.25 0-.375-.125-.625l-6.125-24.5v-.75c0-2 1.875-2.75 2.75-2.75 1.375 0 2.625.875 3 2.375l6.25 25.25c.5 1.875 2.25 3.25 4.375 3.25 2 0 3.875-1.375 4.25-3.5l4.625-21.25c.25-1.5 1.625-2.375 2.75-2.375 1.75 0 2.875 1.375 2.875 3v.75L202 813.75v.625c0 .625.125 1.125.5 1.625.625.75 1.375 1 2.125 1 1.25 0 2.375-.75 2.625-2l4.25-15.25c.125-.5.875-2 2.75-2 2.25-.125 2.875 2 2.875 2.875 0 .056-.006.117-.016.182l-.006.039zM346.875 340.5l-.375-.375a.441.441 0 0 1-.188-.063l-.019-.009-.025-.012-.023-.011-.037-.014a.304.304 0 0 0-.058-.014.21.21 0 0 0-.025-.002c-.183 0-.299.067-.446.152a3.836 3.836 0 0 1-.179.098c-.083 0-.167.111-.25.222l-.06.079a.98.98 0 0 1-.065.074L333.5 364.5c-.25.5-.5.875-1 1.125-.375.25-.875.5-1.5.5-.5 0-1-.25-1.375-.5-.5-.25-.75-.625-1-1.125L317 340.625c-.125-.25-.375-.375-.625-.5a.797.797 0 0 0-.75 0c-.25.125-.375.375-.5.625a.797.797 0 0 0 0 .75l11.625 23.875c.375.75 1 1.5 1.75 2 .75.375 1.625.625 2.5.625 1 0 1.875-.25 2.625-.625.75-.5 1.25-1.25 1.75-2L347 341.5v-.5c0-.125 0-.375-.125-.5zm6.625-15.25c-1-1.25-2.5-2.125-4.25-2.375v-1c0-4.75-2-9.25-5.375-12.625-3.5-3.375-8-5.25-12.875-5.25-4.75 0-9.25 1.875-12.75 5.25-3.375 3.375-5.375 7.875-5.5 12.625 0 .375 0 .625.125 1-1.75.25-3.25 1.125-4.375 2.375-1 1.375-1.5 3-1.375 4.625.125 1.75.875 3.375 2.125 4.5s2.875 1.75 4.5 1.625h34.5c1.75.125 3.375-.5 4.625-1.625s2-2.75 2.125-4.5c.125-1.625-.375-3.25-1.5-4.625zm-3.375 8.5c-.625.25-1.25.375-1.875.25h-34.5a2.75 2.75 0 0 1-1.75-.25c-.625-.25-1.125-.625-1.625-1-.375-.5-.75-1-1-1.5a5.016 5.016 0 0 1-.375-1.875c0-.625.125-1.25.375-1.875.25-.5.625-1 1.125-1.5.5-.375 1-.75 1.625-.875a2.75 2.75 0 0 1 1.75-.25H315l-.125-1.125v-1.875c0-2.125.375-4.125 1.25-6.125.875-1.875 2-3.625 3.5-5.125s3.375-2.625 5.25-3.375c2-.875 4.125-1.25 6.125-1.25 2.125 0 4.25.375 6.25 1.25 1.875.75 3.75 1.875 5.25 3.375s2.625 3.25 3.5 5.125c.875 2 1.25 4 1.25 6.125v1.875l-.125 1h1.125c.625 0 1.25.125 1.875.375s1.125.5 1.5 1c.5.375.875.875 1.125 1.5s.375 1.125.375 1.75-.125 1.25-.375 1.875c-.25.5-.625 1.125-1.125 1.5-.375.375-.875.75-1.5 1zm-135.25 876.75c.25.25.25.62.125 1-.25.38-.625.5-.875.5H184c-.5 0-1-.38-1-1v-42c0-.38.375-.75.75-.88.375-.12.875 0 1.125.38l30 42zm-2.75-.5L185 1172.12V1210h27.125zm-33.75-29.88c.375.13.625.5.625.88v30c0 .62-.375 1-1 1h-18c-.25 0-.625-.12-.75-.5-.25-.25-.25-.62 0-1l18-30c.125-.38.625-.5 1.125-.38zm-16.5 29.88H177v-25.38L161.875 1210zm58.5 6c1.375 0 2.375 1.38 2 2.62l-.5 1.76c-2 6.87-8.25 11.62-15.375 11.62h-38.875c-7.125 0-13.375-4.75-15.375-11.62l-.5-1.76c-.375-1.24.625-2.62 2-2.62h66.625zm0 2H153.75l.5 1.88c1.625 6 7.125 10.12 13.375 10.12H206.5c6.25 0 11.75-4.12 13.375-10.12l.5-1.88zm557.75-25c0-.5-.5-1-1-1h-28c-.625 0-1 .5-1 1 0 .62.375 1 1 1h28c.5 0 1-.38 1-1zm-29 7c-.625 0-1 .5-1 1 0 .62.375 1 1 1h28c.5 0 1-.38 1-1 0-.5-.5-1-1-1h-28zm25 9c0-.5-.5-1-1-1h-20c-.625 0-1 .5-1 1 0 .62.375 1 1 1h20c.5 0 1-.38 1-1zm-20.625-30l-4.625 3c-2 1.38-4.25 2-6.625 2h-14.125c-2.875 0-5 2.25-5 5v10.62c0 6 4 11.26 9.75 12.63l9.25 2.37c5.125 5.76 12.625 9.38 21 9.38 8.25 0 15.75-3.62 20.875-9.38l9.25-2.37c5.75-1.37 9.875-6.63 9.875-12.63V1189c0-2.75-2.25-5-5-5h-14.25c-2.375 0-4.625-.62-6.625-2l-4.625-3c-2.875-1.88-6.125-3-9.5-3-3.5 0-6.75 1.12-9.625 3zm1.125 1.62c2.5-1.62 5.375-2.62 8.5-2.62 3 0 5.875 1 8.375 2.62l4.625 3.13c2.375 1.5 5 2.25 7.75 2.25h5.25v10c0 6.38-2.375 12.25-6.125 16.75l-.125.13c-4.75 5.62-11.875 9.12-19.75 9.12-8 0-15.125-3.5-19.875-9.12l-.125-.13c-3.75-4.5-6-10.37-6-16.75v-10h5.125c2.75 0 5.375-.75 7.75-2.25l4.625-3.13zm-29.5 19V1189c0-1.62 1.25-3 3-3h7v10c0 6 1.75 11.5 4.875 16l-6.625-1.62c-4.875-1.26-8.25-5.63-8.25-10.76zm76-10.62v10.62c0 5.13-3.5 9.5-8.375 10.76l-6.625 1.62c3.125-4.5 5-10 5-16v-10h7c1.625 0 3 1.38 3 3zm-462-113c0 2.25-1.875 4-4 4-2.25 0-4-1.75-4-4 0-2.12 1.75-4 4-4 2.125 0 4 1.88 4 4zm-4-2c-1.125 0-2 1-2 2 0 1.12.875 2 2 2 1 0 2-.88 2-2 0-1-1-2-2-2zm-16 6c0-2.12 1.75-4 4-4 2.125 0 4 1.88 4 4 0 2.25-1.875 4-4 4-2.25 0-4-1.75-4-4zm2 0c0 1.12.875 2 2 2 1 0 2-.88 2-2 0-1-1-2-2-2-1.125 0-2 1-2 2zm-12 30c0-2.12 1.75-4 4-4h36c2.125 0 4 1.88 4 4v8c0 2.25-1.875 4-4 4h-36c-2.25 0-4-1.75-4-4v-8zm2 8c0 1.12.875 2 2 2h10v-12h-10c-1.125 0-2 1-2 2v8zm26 2v-12h-12v12h12zm2-12v12h10c1 0 2-.88 2-2v-8c0-1-1-2-2-2h-10zm20 0v20c0 4.5-3.625 8-8 8h-40c-4.5 0-8-3.5-8-8v-20c0-4.38 3.5-8 8-8H330v-11.75l-29.75 6.75c-.5.12-1-.12-1.125-.75-.125-.5.125-1 .75-1.13l62-14c.5-.12 1 .13 1.125.76.125.5-.125 1-.75 1.12l-30.125 6.88V1100h19c4.375 0 8 3.62 8 8zm-8-6h-40c-3.375 0-6 2.75-6 6v20c0 3.38 2.625 6 6 6h40c3.25 0 6-2.62 6-6v-20c0-3.25-2.75-6-6-6zm397.5-288.5c.5 0 1 .5 1 1 0 .375-.125.625-.375.75l-3 3c-.125.25-.375.25-.625.25-.75 0-1-.625-1-1 0-.25 0-.5.25-.75l3-2.875c.125-.25.375-.375.75-.375zm4.25 11.375l2.875-3c.25-.25.5-.375.75-.375.625 0 1 .5 1 1 0 .375 0 .625-.25.75l-3 3c-.125.25-.375.25-.625.25-.75 0-1-.625-1-1 0-.25 0-.5.25-.625zm-1 9c.125-.25.375-.375.75-.375.5 0 1 .5 1 1 0 .25-.125.625-.375.75l-3 3c-.125.25-.375.25-.625.25-.75 0-1-.625-1-1 0-.25 0-.5.25-.625l3-3zm-1.625-27.625c-.125.25-.375.25-.625.25-.75 0-1-.625-1-1 0-.25 0-.5.25-.75l3-2.875c.125-.25.375-.375.75-.375.5 0 1 .5 1 1 0 .375-.125.625-.375.75l-3 3zm-6.375 19.625c.125-.25.375-.375.75-.375.5 0 1 .5 1 1 0 .375-.125.625-.375.75l-3 3c-.125.25-.375.25-.625.25-.75 0-1-.625-1-1 0-.25 0-.5.25-.75l3-2.875zm20.875-5l3-3c.25-.25.5-.375.75-.375.625 0 1 .5 1 1 0 .375-.125.625-.375.75l-3 3c-.125.25-.375.25-.625.25-.75 0-1-.625-1-1 0-.25 0-.5.25-.625zm18-22.125h.375c5.625 0 12 4.25 12 6.875 0 3.248-5.72 4.991-7.09 5.408l-.122.037-.068.022a.734.734 0 0 0-.095.033c-.5 0-1-.5-1-1 0-.809.508-.95 1.412-1.202 1.051-.292 2.639-.733 4.588-2.548a.962.962 0 0 0 .125-1.25c-2.875-2.875-6.375-4.375-9.75-4.375-2.029 0-3.311.498-4.065.791-.315.122-.538.209-.685.209-.375 0-1-.375-1-1 0-.147.087-.37.209-.685.293-.754.791-2.036.791-4.065 0-5.125-4-10-4.875-10v.125c-1.375 0-3.125 3.75-3.5 5.5-.125.375-.5.75-.875.75-.5 0-1.125-.375-1.125-1 0-.875 2.125-7.375 5.5-7.375 2.625 0 6.875 6.375 6.875 12 0 .75-.125 1.5-.25 2.125 7.184-4.845 8.227-9.523 8.8-12.093.285-1.276.454-2.032 1.2-2.032.25 0 .875.375.875 1 0 .375-.125 7.375-8.25 13.75zm-7 27.125c.25-.25.5-.375.75-.375.625 0 1 .5 1 1 0 .25-.125.5-.375.625l-3 3a.687.687 0 0 1-.625.375c-.75 0-1-.625-1-1 0-.25 0-.5.25-.75l3-2.875zM760.5 809.5c.5 0 1 .5 1 1 0 .375 0 .625-.375.75l-3 3c-.125.25-.375.25-.625.25-.75 0-1-.625-1-1 0-.25.125-.5.25-.625l3-3c.25-.25.5-.375.75-.375zM754 792c5.875 0 10.625 3.5 14.125 7l12 12c3.5 3.5 7 8.25 7 14.125 0 9.75-10.75 22.875-31.875 22.875-13.375 0-24.125-.375-24.125-24.125 0-21.125 13-31.875 22.875-31.875zm-21 31.875c0 18 4.875 22.125 22.25 22.125 19.125 0 29.875-11.5 29.875-20.875 0-4.25-2.125-8.5-6.375-12.625l-12.125-12.125C763.875 797.5 759.375 794 754 794c-6.5 0-21 7.5-21 29.875zm30.75 6c.25-.25.5-.375.75-.375.625 0 1 .5 1 1 0 .375-.125.625-.375.75l-3 3c-.125.25-.375.25-.625.25-.75 0-1-.625-1-1 0-.25.125-.5.25-.625l3-3zM500.75 211c.5.125 1 .25 1.375.5l.25.25c.063 0 .094.031.125.062.031.032.062.063.125.063.75.625 1.25 1.375 1.375 2.25 2.25 10.625 2.375 26.5-5.25 38.75-3.75 6.25-9.5 11.5-17.75 14.5-8.25 3.125-18.625 3.875-31.625 1.75-.625-.125-1.125-.375-1.625-.75a.14.14 0 0 1-.068-.016.234.234 0 0 1-.057-.047c-.031-.031-.063-.062-.125-.062-.375-.375-.75-.75-.875-1.125-.25-.375-.375-.75-.5-1.125-1.375-6.875-2-16-.125-24.75.125-.75.25-1.375.375-2 1.125-4.125 2.625-8.25 5-12 1.125-1.875 2.5-3.75 4-5.375.5-.5 1-1 1.375-1.5 3.375-3.125 7.375-5.875 12.375-7.625a34.608 34.608 0 0 1 5.125-1.5c.625-.25 1.25-.375 1.875-.5 7-1.25 15.125-1.25 24.625.25zm-16.25 18.25l16.125-16.125c0-.125-.125-.125-.25-.125-9.375-1.5-17.375-1.5-24-.25 1 6.375 3.875 12 8.125 16.5zM502 214.5l-16.125 16.125c4.375 4.25 10 7 16.25 8 1.875-8.5 1.375-17.25-.125-24v-.125zm-.25 26.125c-6.625-1.125-12.625-4.125-17.25-8.5l-8 7.875 16.75 16.875c1.5-1.625 2.75-3.25 3.875-5.125 2.125-3.375 3.625-7.25 4.625-11.125zm-9.875 17.625L475 241.5l-7.875 8c4.375 4.625 7.5 10.75 8.5 17.375 1.625-.375 3.125-.75 4.625-1.375 4.75-1.75 8.5-4.25 11.625-7.25zm-18.125 9.125c-1-6.375-3.875-12-8.125-16.5L449.5 267c0 .125.125.125.25.125 9.375 1.5 17.375 1.5 24 .25zm-25.625-1.75L464.25 249.5c-4.375-4.25-10-7.125-16.25-8-1.875 8.5-1.375 17.25.125 24v.125zm.25-26.125c6.625 1.125 12.625 4.125 17.25 8.5l8-8-16.75-16.75a35.824 35.824 0 0 0-3.875 5c-2.125 3.5-3.625 7.375-4.625 11.25zm9.875-17.75L475 238.625l8-8c-4.375-4.625-7.5-10.75-8.5-17.375-1.625.375-3.125.75-4.625 1.375-4.75 1.75-8.5 4.25-11.625 7.125zM309.125 707c0 .625-.5 1-1 1-.625 0-1-.375-1-1v-14c0-2.75 2.125-5 5-5h32.25c1.375 0 2.625.625 3.625 1.5l5.625 5.625c.875 1 1.5 2.25 1.5 3.625V707c0 .625-.5 1-1 1-.625 0-1-.375-1-1v-8.25c0-.875-.375-1.625-.875-2.125L346.5 691c-.5-.625-1.25-1-2.125-1h-32.25c-1.75 0-3 1.375-3 3v14zM345 712h14.125c2.125 0 4 1.875 4 4v4c0 2.25-1.875 4-4 4v21c0 3.875-3.25 7-7 7h-42c-3.875 0-7-3.125-7-7v-21c-2.25 0-4-1.75-4-4v-4c0-2.125 1.75-4 4-4h14c1.25 0 2.5.375 3.625.875l4.625 2.375c1.125.5 2.375.75 3.625.75h4.125c1.25 0 2.5-.25 3.625-.75l4.625-2.375c1.125-.5 2.375-.875 3.625-.875zm7.125 38c2.75 0 5-2.125 5-5v-21h-52v21c0 2.875 2.125 5 5 5h42zm7-28c1 0 2-.875 2-2v-4c0-1-1-2-2-2H345c-1 0-1.875.25-2.75.75l-4.625 2.25c-1.375.75-2.875 1-4.5 1H329c-1.625 0-3.125-.25-4.5-1l-4.625-2.25c-.875-.5-1.75-.75-2.75-.75h-14c-1.125 0-2 1-2 2v4c0 1.125.875 2 2 2h56zm-40 22h24c.5 0 1 .5 1 1 0 .625-.5 1-1 1h-24c-.625 0-1-.375-1-1 0-.5.375-1 1-1zm2-6c0 1.125-1 2-2 2-1.125 0-2-.875-2-2 0-1 .875-2 2-2 1 0 2 1 2 2zm4 0c0-1 .875-2 2-2 1 0 2 1 2 2 0 1.125-1 2-2 2-1.125 0-2-.875-2-2zm12 0c0 1.125-1 2-2 2-1.125 0-2-.875-2-2 0-1 .875-2 2-2 1 0 2 1 2 2zm8 0c0 1.125-1 2-2 2-1.125 0-2-.875-2-2 0-1 .875-2 2-2 1 0 2 1 2 2zm-28-8c0 1.125-1 2-2 2-1.125 0-2-.875-2-2 0-1 .875-2 2-2 1 0 2 1 2 2zm8 0c0 1.125-1 2-2 2-1.125 0-2-.875-2-2 0-1 .875-2 2-2 1 0 2 1 2 2zm4 0c0-1 .875-2 2-2 1 0 2 1 2 2 0 1.125-1 2-2 2-1.125 0-2-.875-2-2zm12 0c0 1.125-1 2-2 2-1.125 0-2-.875-2-2 0-1 .875-2 2-2 1 0 2 1 2 2zm8 0c0 1.125-1 2-2 2-1.125 0-2-.875-2-2 0-1 .875-2 2-2 1 0 2 1 2 2zm135.5-137.375c-15.25-2.625-30.125 4.25-36.875 17.125-.25.5 0 1.125.625 1.375L513 633.75c.875.375 1.25-.375 1.375-.625 3.875-18.375-9.5-37-29.75-40.5zm-34.5 17C456.5 598.375 469.75 592.5 483.5 594.5c-6.5 2.375-13.25 10-18 20.5l-15.375-5.375zm45.25 15.875l-27.875-9.875c5.25-11.75 13.375-19.875 20-19.875 12.375.5 10.125 21.25 7.875 29.75zm17.25 6l-15.375-5.375c3-11.375 2.375-21.5-1.125-27.25 12 6.75 18.75 19.75 16.5 32.625zm-6.5 22.5H469.5l10-26.625c.25-.5-.125-1-.625-1.25s-1 .125-1.25.625L467.375 654h-31.25c-.625 0-1 .5-1 1 0 .625.375 1 1 1h70c.5 0 1-.375 1-1 0-.5-.5-1-1-1zM647.25 112.25c1-.375 2.125-.125 3 .625.75.75 1 1.875.75 3-.332.996-.795 2.462-1.37 4.279-1.37 4.339-3.376 10.688-5.755 17.471l1.25.375c.875.25 1.5.875 1.875 1.75.25.75.25 1.75-.125 2.5-2.875 5.375-10.25 18.75-17.5 26.125-.125.25-.25.375-.375.5-4.625 4.625-10.75 7.125-17.375 7.125-6.5 0-12.75-2.5-17.375-7.125-9.625-9.625-9.625-25.25 0-34.75l.375-.375c7.625-7.375 20.875-14.75 26.25-17.5.75-.375 1.75-.375 2.5-.125.875.375 1.5 1 1.75 1.875l.375 1.25a369 369 0 0 1 21.75-7zM641.625 138c3.5-10 6.375-19.25 7.375-22.75.125-.25 0-.625-.25-.875s-.625-.375-.875-.25c-2.75.75-12.125 3.625-22.625 7.375l-1 .375-1-3.25c0-.25-.25-.5-.5-.625-.062 0-.125-.031-.188-.062a.429.429 0 0 0-.187-.063.428.428 0 0 0-.164.047c-.086.035-.19.078-.336.078l-.476.259c-4.635 2.524-17.915 9.753-25.149 16.866l-.25.25c-9 8.875-9 23.25-.25 32.125 4.25 4.25 10 6.5 16 6.5s11.75-2.25 16-6.625L628 167c7-7.25 14.25-20.375 17.125-25.75a.797.797 0 0 0 0-.75c-.125-.25-.375-.5-.625-.5l-3.25-1 .375-1zM617 144.5l7.625 1.125c1.125.25 2 .875 2.25 2 .375.875.125 2-.625 2.75l-5.625 5.5L622 163.5c.125 1-.25 2.125-1.125 2.75s-2 .75-3 .25L611 162.875l-6.875 3.625c-.375.125-.75.25-1.25.25-.625 0-1.125-.125-1.625-.5-.875-.625-1.25-1.625-1.125-2.75l1.375-7.625-5.625-5.5c-.75-.75-1-1.75-.75-2.75.375-1.125 1.25-1.875 2.375-2l7.625-1.125 3.375-6.875c.5-1 1.5-1.625 2.5-1.625 1.125 0 2.125.625 2.5 1.625l3.5 6.875zm1.5 10.625l6.375-6.125c.125-.25.25-.5.125-.75-.125-.375-.375-.5-.625-.625l-8.75-1.25-3.875-7.875c-.125-.375-.375-.5-.75-.5-.25 0-.5.125-.625.5l-3.875 7.875-8.75 1.25c-.375 0-.625.25-.625.5-.125.375 0 .625.125.875l6.375 6.125-1.5 8.75c-.125.375.125.625.25.75s.5.25.875 0l7.75-4 7.875 4c.224.224.448.147.763.038l.112-.038c.125-.125.25-.5.25-.75l-1.5-8.75zm21.625 341.25a.98.98 0 0 0-1.375 0l-51.375 51.375c-.25.125-.25.375-.25.625 0 .375 0 .625.25.75 7.25 7.25 16.875 10.875 26.375 10.875s19.125-3.625 26.375-10.875c7-7 11-16.375 11-26.375s-4-19.375-11-26.375zm-6.375 7.75c3.875 4.25 6.25 9.375 7 14.875h-21.125l-.375-.375 14.5-14.5zM641 522.75c0 7-2.5 13.5-7.25 18.625l-14.125-14.125c1.375-1.75 1.75-4.125 1.125-6.25H641v1.75zM614.125 530c1.5 0 2.875-.5 4.125-1.375l14.125 14C627.25 547.375 620.75 550 613.75 550c-.312 0-.594-.031-.875-.062a7.515 7.515 0 0 0-.875-.063v-20.25c.75.25 1.5.375 2.125.375zm3.75-10c1.625 2 1.5 4.875-.25 6.625s-4.625 1.875-6.625.25l6.875-6.875zm-8.25 8.25c.125.125.25.25.5.375v21.125c-5.625-.75-10.75-3.125-15-7l14.5-14.5zm29.125 19.5c-13.625 13.5-35.5 13.75-49.25.625l4.25-4.25c5.5 5.125 12.5 8 20 8 7.875 0 15.25-3.125 20.75-8.625s8.5-12.875 8.5-20.75c0-7.5-2.75-14.5-7.875-19.875l4.25-4.25c13.125 13.625 12.875 35.625-.625 49.125zm164.125-101.625c.125.625.25 1.25.25 2 0 6.5-5.625 11.875-12.75 11.875-6.25 0-11.75-3.75-13.75-9.25l-.875-2.75h-25.375l-1 2.75C747.5 456.25 742 460 735.75 460c-7.125 0-12.75-5.375-12.75-11.875 0-.75.125-1.375.25-2l4.125-26.5C729.125 409.75 738 404 763 404c25.375 0 34 5.75 35.75 15.625l4.125 26.5zM790.375 458c6 0 10.75-4.625 10.75-9.875 0-.625-.125-1.125-.25-1.625L796.75 420c-1-5.5-5.25-9.875-11-11.25h-.125c-6.125-1.5-16.25-2.75-22.5-2.75-27 0-32.5 6.75-33.75 14l-4.125 26.375c-.125.625-.125 1.125-.125 1.75 0 5.25 4.625 9.875 10.625 9.875 5.375 0 10.125-3.125 11.75-7.875L749 446h28.125l1.5 4.125c1.625 4.75 6.375 7.875 11.75 7.875zm-42.25-31h7c.5 0 1 .5 1 1 0 .625-.5 1-1 1h-7v7c0 .625-.5 1-1 1-.625 0-1-.375-1-1v-7h-7c-.625 0-1-.375-1-1 0-.5.375-1 1-1h7v-7c0-.5.375-1 1-1 .5 0 1 .5 1 1v7zm32-5c0-2.75 2.125-5 5-5 2.75 0 5 2.25 5 5s-2.25 5-5 5c-2.875 0-5-2.25-5-5zm2 0c0 1.75 1.25 3 3 3 1.625 0 3-1.25 3-3 0-1.625-1.375-3-3-3-1.75 0-3 1.375-3 3zm-10 12c0-2.75 2.125-5 5-5 2.75 0 5 2.25 5 5s-2.25 5-5 5c-2.875 0-5-2.25-5-5zm2 0c0 1.75 1.25 3 3 3 1.625 0 3-1.25 3-3 0-1.625-1.375-3-3-3-1.75 0-3 1.375-3 3z" fill="#8991A6"/><path fill-rule="evenodd" clip-rule="evenodd" d="M324.071 136c0 1.125-1 2-2 2-1.125 0-2-.875-2-2 0-1 .875-2 2-2 1 0 2 1 2 2zm16 0c0-1 .875-2 2-2 1 0 2 1 2 2 0 1.125-1 2-2 2-1.125 0-2-.875-2-2zm23-2l-.125.125c.75 2.5 1.125 5.125 1.125 7.875 0 17.75-14.375 32-32 32-17.75 0-32-14.25-32-32 0-2.75.25-5.375 1-7.875V134c0-.125 0-.375.125-.5 3.75-13.5 16.125-23.5 30.875-23.5 14.625 0 27 10 30.75 23.5.125.125.25.375.25.5zm-1.875 1h-7.25c0 .206.038.413.072.598v.001c.028.151.053.289.053.401 0 6.125-5 11-11 11-.875 0-1.75 0-2.625-.25l.25.5 2 1c1.375.75 2.375 2.25 2.375 3.75 0 1.625-1 3.125-2.375 3.875l-1.125.5 3.25 4c.375.5.25 1.125-.25 1.5-.375.25-1 .25-1.375-.25l-3.5-4.375-2.375 1.25 1.625 4.125c.25.625 0 1.125-.625 1.375-.5.25-1 0-1.25-.625l-1.625-4c-.75.375-1.625.625-2.375.625v4c0 .625-.5 1-1 1-.625 0-1-.375-1-1v-4c-.875 0-1.75-.25-2.5-.625l-1.625 4c-.25.625-.75.875-1.25.625-.625-.25-.875-.75-.625-1.375l1.625-4.125-2.375-1.25-3.5 4.375c-.375.5-1 .5-1.375.25-.5-.375-.625-1-.25-1.5l3.25-4-1.125-.5c-1.375-.75-2.25-2.25-2.25-3.875 0-1.5.875-3 2.25-3.75l2-1 .25-.5c-.875.25-1.75.25-2.5.25-6.125 0-11-4.875-11-11v-1h-7.25c-.5 2.25-.75 4.625-.75 7 0 16.625 13.375 30 30 30 16.5 0 30-13.375 30-30 0-2.375-.375-4.75-.875-7zm-31.25.625c-.25-4.75-4.125-8.625-8.875-8.625-5 0-9 4.125-9 9 0 5 4 9 9 9 1.25 0 2.5-.25 3.625-.75h.125l3.375-6.875a3.95 3.95 0 0 1 1.75-1.75zm-3.875-9.375c3.25 1.75 5.5 5 5.875 8.75h.125c.375-3.75 2.625-7 5.875-8.75l-.875-1.75c-.25-.5 0-1.125.5-1.375s1.125 0 1.375.5l.875 1.875c1-.25 2.125-.5 3.25-.5v-3c0-.5.375-1 1-1 .5 0 1 .5 1 1v3.25a13.3 13.3 0 0 1 3.125 1.125l.875-1.75c.25-.5.875-.75 1.375-.5s.75.875.5 1.375l-1 2c1.75 1.375 3 3.375 3.625 5.5h7.125c-3.875-12.125-15.25-21-28.625-21-13.5 0-24.875 8.875-28.75 21h7.125c.625-2.125 1.875-4.125 3.625-5.5l-1-2c-.25-.5 0-1.125.5-1.375s1.125 0 1.375.5l.875 1.75c1-.5 2-.875 3.125-1.125V122c0-.5.5-1 1-1 .625 0 1 .5 1 1v3c1.125 0 2.25.25 3.25.5l.875-1.875c.25-.5.875-.75 1.375-.5s.75.875.5 1.375l-.875 1.75zm17 .75c-4.875 0-8.75 3.875-9 8.625.75.375 1.375 1 1.75 1.75l3.375 6.875h.125c1.125.5 2.375.75 3.75.75 4.875 0 9-4 9-9 0-4.875-4.125-9-9-9zm-11 10c-.875 0-1.625.5-2 1.25l-5.375 10.5-2.5 1.25c-.75.375-1.125 1.25-1.125 2 0 .875.375 1.625 1.125 2l6.625 3.375c2 1 4.375 1 6.375 0l6.625-3.375a2.227 2.227 0 0 0 1.25-2c0-.75-.5-1.625-1.25-2l-2.5-1.25-5.25-10.5c-.5-.75-1.25-1.25-2-1.25zm-112 80v8.75c0 1.75-1 3.5-2.625 4.375l-10.5 5.75a14.206 14.206 0 0 1 3 5.125h3.125c.5 0 .875 0 1.25-.25l3.125-1.625c.5-.25 1.125 0 1.375.5s0 1.125-.5 1.375l-3.125 1.5c-.75.375-1.5.5-2.25.5h-2.5c.25 1.125.375 2.25.375 3.5 0 .625-.25 1.375-.5 2l1 .375c.75.125 1.375.625 2 1.125l3.25 3.375a.98.98 0 0 1 0 1.375c-.125.25-.5.25-.625.25-.25 0-.5 0-.625-.25l-3.375-3.25c-.375-.375-.75-.625-1.125-.75l-1.75-.625-5.375 5.5 3.75 1.25c.75.125 1.375.625 1.875 1.125l3.375 3.375a.98.98 0 0 1 0 1.375c-.25.25-.5.25-.75.25s-.5 0-.625-.25l-3.375-3.375c-.375-.25-.75-.5-1.125-.625l-4.75-1.625-3.375 3.5 2.625 1.375c1.625.875 2.625 2.625 2.625 4.375V269c0 .625-.375 1-1 1-.5 0-1-.375-1-1v-2.5c0-1.125-.5-2.125-1.5-2.75l-3.75-2-.12.031-.125.032-.003.001c-.385.1-.713.186-1.127.186h-14.5c-.5 0-1-.125-1.5-.25l-3.75 2c-1 .625-1.5 1.625-1.5 2.625V269c0 .625-.5 1-1 1-.625 0-1-.375-1-1v-2.5c0-1.875 1-3.625 2.625-4.5l2.75-1.5-3.5-3.375-4.75 1.625c-.375.125-.75.375-1.125.625l-3.375 3.375c-.125.25-.375.25-.625.25s-.625 0-.75-.25a.98.98 0 0 1 0-1.375l3.375-3.375c.5-.5 1.125-.875 1.875-1.125l3.75-1.375-5.375-5.375-1.75.625c-.375.125-.875.375-1.125.625l-3.375 3.375c-.125.25-.375.25-.625.25-.375 0-.625 0-.75-.25a.98.98 0 0 1 0-1.375l3.375-3.375c.5-.5 1.125-.875 1.875-1.125l1.125-.375c-.375-.625-.5-1.375-.5-2 0-1.25.125-2.375.375-3.5h-2.625c-.75 0-1.5-.125-2.25-.5l-3.125-1.5c-.5-.25-.75-.875-.5-1.375s.875-.75 1.375-.5l3.125 1.625c.5.25.875.25 1.375.25h3.25a15.935 15.935 0 0 1 2.875-5.125l-10.5-5.75c-1.625-.875-2.5-2.625-2.5-4.375V217c0-6 4.875-11 11-11h12c.375 0 .75.375.875.75.125.5 0 .875-.375 1.125l-11 7c-.5.375-1.125.25-1.375-.25-.375-.5-.125-1.125.25-1.375l8.125-5.25h-8.5c-5 0-9 4.125-9 9v3h12.5c1.375 0 2.75-.5 3.75-1.625.375-.375 1-.375 1.375-.125.375.375.5 1.125.125 1.5-1.375 1.5-3.25 2.25-5.25 2.25h-12.5v3.75c0 1 .5 2 1.5 2.625l11 6c2.875-2.625 6.75-4.375 11-4.375h.5v-5c0-.5.375-1 1-1 .5 0 1 .5 1 1v5h8v-5c0-.5.375-1 1-1 .5 0 1 .5 1 1v5h.5c4.25 0 8 1.75 11 4.375l10.875-6c1-.625 1.625-1.625 1.625-2.625V222h-12.625c-2 0-3.875-.75-5.25-2.25-.375-.375-.25-1 .125-1.375a.98.98 0 0 1 1.375 0c1 1.125 2.375 1.625 3.75 1.625h12.625v-3c0-4.875-4.125-9-9.125-9h-8.5l8.125 5.25c.375.25.625.875.25 1.375-.25.5-.875.625-1.375.25l-11-7c-.375-.25-.5-.625-.375-1.125.125-.375.5-.75.875-.75h12c6.125 0 11.125 5 11.125 11zm-11.875 31.25c.5-.5.75-1.125.75-1.75 0-8-6.5-14.5-14.375-14.5h-13c-8 0-14.375 6.5-14.375 14.5 0 .625.25 1.25.75 1.75l11 11c.5.5 1.125.75 1.875.75h14.5c.625 0 1.375-.25 1.75-.75l11.125-11zM27.321 313.875c.375-.375.375-1 0-1.5-1.5-1.625-2.25-3.75-2.25-6V304h9c4.875 0 9 4.125 9 9v1c0 .625.375 1 1 1 .5 0 1-.375 1-1v-1c0-4.875 4-9 9-9h9v2.375c0 2.25-.875 4.375-2.375 6-.375.5-.375 1.125 0 1.5.25.125.5.25.625.25.375 0 .625-.125.75-.375 1.875-2 3-4.625 3-7.375V303c0-.5-.5-1-1-1h-10c-4.5 0-8.375 2.75-10 6.5-1.75-3.75-5.625-6.5-10-6.5h-10c-.625 0-1 .5-1 1v3.375c0 2.75 1 5.375 2.875 7.375.375.375 1 .5 1.375.125zM54.07 316c-3.5 0-7 .875-10.125 2.375-3-1.5-6.5-2.25-9.875-2.25V316c-11.875 0-21 8.875-21 20.25 0 13.625 15.875 25 30.625 29.75h.625c15.25-4.875 30.75-16 30.75-29.75 0-11.375-9.25-20.25-21-20.25zm-10 48c-17.125-5.625-29-17-29-27.75 0-10.125 8.25-18.125 18.875-18.25 9.625.875 19.125 6.875 19.125 15.75 0 .625.375 1 1 1 .5 0 1-.375 1-1 0-5.5-3.375-10.625-9.125-14 2.625-1.125 5.375-1.75 8.125-1.75 10.625 0 19 8 19 18.25 0 10.75-12 22.125-29 27.75zm467.625 833.25c.375.37.375 1 0 1.5-.25.37-.875.37-1.375 0l-6.25-5.5V1222c0 4.5-3.625 8-8 8h-40c-4.5 0-8-3.5-8-8v-28.75l-6.375 5.5c-.5.37-1.125.37-1.375 0-.375-.5-.375-1.13 0-1.5l35-30.87c.375-.38 1-.38 1.375 0l35 30.87zM456.071 1228h10v-21c0-1.62 1.25-3 3-3h14c1.625 0 3 1.38 3 3v21h10c3.25 0 6-2.62 6-6v-30.62l-26-23-26 23V1222c0 3.38 2.625 6 6 6zm28 0v-21c0-.5-.5-1-1-1h-14c-.625 0-1 .5-1 1v21h16zm105-114c.5 0 1-.5 1-1v-33c0-2.25 1.75-4 4-4h52c2.125 0 4 1.75 4 4v33c0 .5.375 1 1 1 .5 0 1-.5 1-1v-33c0-3.38-2.75-6-6-6h-52c-3.375 0-6 2.62-6 6v32.88c0 .74.375 1.12 1 1.12zm69 4h-76c-1.125 0-2 .88-2 2v2c0 4.38 3.5 8 8 8h64c4.375 0 8-3.62 8-8v-2c0-1-1-2-2-2zm0 4c0 3.25-2.75 6-6 6h-64c-3.375 0-6-2.75-6-6v-2h76v2zM58.321 692.375l11.375 11.375c1.5 1.5 2.375 3.5 2.375 5.625V738c0 4.5-3.625 8-8 8h-40c-4.5 0-8-3.5-8-8v-40c0-4.375 3.5-8 8-8h28.625c2.125 0 4.125.875 5.625 2.375zM52.696 692H26.07v13c0 1.75 1.25 3 3 3h22c1.625 0 3-1.25 3-3v-12.75c-.086-.021-.168-.043-.248-.064-.385-.1-.713-.186-1.127-.186zm11.375 52c3.25 0 6-2.625 6-6v-28.625c0-1.625-.625-3.125-1.875-4.25l-11.25-11.25c-.171-.256-.4-.454-.608-.634-.096-.083-.188-.162-.267-.241v12c0 2.875-2.25 5-5 5h-22c-2.875 0-5-2.125-5-5v-13c-3.375 0-6 2.75-6 6v40c0 3.375 2.625 6 6 6h40zm-31-17c0-6 4.875-11 11-11 6 0 11 5 11 11 0 6.125-5 11-11 11-6.125 0-11-4.875-11-11zm2 0c0 5 4 9 9 9 4.875 0 9-4 9-9 0-4.875-4.125-9-9-9-5 0-9 4.125-9 9zm161-118c-2.875 0-5 2.25-5 5s2.125 5 5 5c2.75 0 5-2.25 5-5s-2.25-5-5-5zm0 8c-1.75 0-3-1.25-3-3 0-1.625 1.25-3 3-3 1.625 0 3 1.375 3 3 0 1.75-1.375 3-3 3zm-8-27c-.125 0-.25.031-.375.062-.125.032-.25.063-.375.063-13.125.375-23.25 11.75-23.25 25v33c0 1.125.875 1.875 2 1.875.5 0 1-.125 1.375-.5l3.125-2.375c.375-.25.75-.375 1.125-.375.625 0 1.125.25 1.375.75l5.375 6c.5.375 1 .5 1.625.5.5 0 1-.125 1.375-.5l5-5.75c.5-.5 1-.625 1.5-.625.625 0 1.125.125 1.5.625l5 5.75c.5.375 1 .5 1.5.5.375 0 1-.125 1.375-.5l5.375-6c.375-.5.875-.75 1.5-.75.375 0 .875.125 1.125.375l3.125 2.375c.5.375 1 .625 1.5.625 1 0 2-.875 2-2V614c.125-13.25-10.625-24-23.875-24zm21.875 58l-3.25-2.375c-.75-.625-1.5-.875-2.375-.875-1.125 0-2.25.5-3 1.375l-5.25 6-5-5.625c-.875-.875-1.875-1.375-3-1.375-1.25 0-2.25.5-3 1.25l-5 5.75-5.375-6a3.993 3.993 0 0 0-3-1.375c-.875 0-1.625.25-2.375.75l-3.25 2.5v-33c0-12.25 9.5-22.625 21.25-22.875.125 0 .25-.031.375-.063a1.58 1.58 0 0 1 .375-.062c12.125 0 21.875 9.875 21.875 22v34zm-29.875-39c-2.875 0-5 2.25-5 5s2.125 5 5 5c2.75 0 5-2.25 5-5s-2.25-5-5-5zm0 8c-1.75 0-3-1.25-3-3 0-1.625 1.25-3 2.875-3s3 1.375 3 3c0 1.75-1.25 3-2.875 3zM33.946 1081.38c-.125.5-.75.74-1.25.5-.5-.13-.75-.63-.625-1.26 1.25-3.5 3-6.74 5.375-9.62.75-.75 1.75-1.12 2.75-.88 1.125.38 1.875 1.13 2 2.26.75 4.74 2.625 9.24 5.625 13.12.375.38.25 1-.25 1.38-.125.12-.375.12-.5.12-.375 0-.625-.12-.875-.38-3.125-4-5.25-8.87-6-13.87 0-.5-.375-.63-.5-.63-.125-.12-.5-.12-.625.13-2.25 2.63-4 5.75-5.125 9.13zm28-3.38h12c1.5 0 2.5 1.62 1.875 3l-3.875 5v20.12c0 11-8.875 20-20 20l-9.5-.12-8.25 7.12c-.625.63-1.625.88-2.625.88h-.125c-11.5-.38-16.875-6.12-19.125-9.5-.75-1.12-.125-2.75 1.25-3l18-4.5c-2.875-2.12-5.625-4.5-8.5-8.12-4.5-5.76-7.25-12.88-7-20.13.125-4.87 1.25-9.37 3.25-13.63.25-.74 1-1 1.75-1s1.5.38 1.875 1.13c5 11.5 16 19.5 29.125 20.25v-7.38c0-5.62 4.25-10.12 9.875-10.12zm8.125 28.12v-20.5l3.875-5.62H62.07c-4.5 0-8 3.62-8 8.12v9.5l-2.125-.12c-13.625-.88-25.5-9-30.875-21.5-2 4.25-3 8.88-3 13.62 0 7.76 3.625 15.63 10 21.76 1.375 1.37 2.875 2.62 4.625 4l3.375 2.5-22 5.5c1.875 3.12 6.75 8.24 17.5 8.74.5 0 1-.24 1.375-.62l8.75-7.5H52.07c9.875 0 18-8 18-17.88zm-8-16c-1.125 0-2-1-2-2 0-1.12.875-2 2-2 1 0 2 .88 2 2 0 1-1 2-2 2zm94-64.12v-34c0-4.375 3.5-8 8-8h16l5.75-4.375c1.5-1 3.125-1.625 4.875-1.625h21.375c4.375 0 8 3.625 8 8v40c0 4.5-3.625 8-8 8h-48c-4.5 0-8-3.5-8-8zm8-40c-3.375 0-6 2.75-6 6v11h16.125c2.375-5.25 7.625-9 13.875-9 6.125 0 11.375 3.75 13.75 9h16.25v-17c0-3.25-2.75-6-6-6h-21.375c-1.375 0-2.625.5-3.625 1.25l-5.875 4.375c-.375.25-.75.375-1.125.375h-16zm-6 19v21c0 3.38 2.625 6 6 6h48c3.25 0 6-2.62 6-6v-21h-15.625c.375 1.38.625 2.62.625 4 0 8.38-6.75 15-15 15-8.375 0-15-6.62-15-15 0-1.38.125-2.62.5-4h-15.5zm30-9c-7.25 0-13 5.88-13 13 0 7.25 5.75 13 13 13 7.125 0 13-5.75 13-13 0-7.12-5.875-13-13-13zm-24-17c0-.5.375-1 1-1h10c.5 0 1 .5 1 1 0 .625-.5 1-1 1h-10c-.625 0-1-.375-1-1zm185.875-483c.625 0 1.25.25 1.75.625 9.5 6.75 14.75 17.625 14.125 29.25-.75 17.5-15.625 32.125-33.875 32.125s-33.125-14.625-33.875-32.25c-.625-11.5 4.75-22.375 14.25-29.125.5-.375 1.125-.5 1.75-.5 1 0 1.875.5 2.5 1.25.5.875.625 1.875.25 2.75a15.833 15.833 0 0 0-1.125 5.875c0 5.125 2.375 9.875 6.625 13 .75.5 1.125 1.375 1.25 2.25 0 .875-.375 1.75-1 2.375-3 2.625-4.75 6.5-4.75 10.375 0 3.375 2.5 13.125 13.25 13.75v-9.25l-5.375 5.25c-.125.25-.375.25-.625.25-.375 0-.625 0-.75-.25a.98.98 0 0 1 0-1.375l5.25-5.375h-7.5c-.625 0-1-.375-1-1 0-.5.375-1 1-1h7.5l-5.25-5.25a.98.98 0 0 1 0-1.375.98.98 0 0 1 1.375 0l5.375 5.25V495c0-.5.125-1 .875-1 .625 0 1 .5 1 1l.125 38.625 5.25-5.25a.98.98 0 0 1 1.375 0 .98.98 0 0 1 0 1.375l-5.25 5.25h7.625c.5 0 1 .5 1 1 0 .625-.5 1-1 1h-7.625l5.25 5.375a.98.98 0 0 1 0 1.375c-.125.25-.375.25-.625.25-.375 0-.625 0-.75-.25l-5.25-5.25v9.25c10.625-.625 13.125-10.375 13.125-13.75 0-3.875-1.75-7.75-4.75-10.375-.625-.625-1-1.5-1-2.375.125-.875.5-1.75 1.25-2.25 4.25-3.125 6.625-7.875 6.625-13 0-2-.375-4-1.125-5.875-.375-.875-.25-1.875.25-2.75.625-.875 1.5-1.25 2.5-1.375zm-49.875 29.75c.75 16.75 15.125 30.25 32 30.25 16.75 0 31.125-13.5 31.875-30.25v-2.25l-7.25 7.25c-.125.25-.375.25-.625.25-.375 0-.625 0-.75-.25a.98.98 0 0 1 0-1.375l8.5-8.5c-.25-2.625-.875-5.125-1.75-7.5l-9.375 9.375c-.125.25-.375.25-.625.25-.375 0-.625 0-.75-.25a.98.98 0 0 1 0-1.375l9.875-10c-2.25-5.125-5.875-9.75-10.625-13.125-.07-.07-.18-.101-.307-.137h-.001l-.029-.008-.049-.014-.035-.011-.035-.011a1.452 1.452 0 0 1-.169-.069c-.375.125-.625.25-.875.5-.125.25-.125.625 0 .875.75 2.125 1.25 4.375 1.25 6.625 0 5.75-2.75 11.125-7.375 14.625-.25.125-.5.375-.5.75 0 .25.125.625.375.75 3.375 3 5.375 7.375 5.375 11.875 0 5.25-4 15.875-16.125 15.875-12.25 0-16.25-10.625-16.25-15.875 0-4.5 2-8.875 5.375-11.875.25-.125.375-.5.375-.75 0-.375-.25-.625-.5-.75-4.625-3.5-7.375-8.875-7.375-14.625 0-2.25.5-4.5 1.25-6.5.125-.375.125-.75-.125-1-.125-.25-.375-.375-.75-.5-.25 0-.5.125-.5.25-4.875 3.375-8.5 8-10.75 13.125l9.875 10a.98.98 0 0 1 0 1.375c-.125.25-.375.25-.625.25-.375 0-.625 0-.75-.25l-9.375-9.375c-.875 2.375-1.5 4.875-1.75 7.5l8.5 8.5a.98.98 0 0 1 0 1.375c-.125.25-.375.25-.625.25-.375 0-.625 0-.75-.25l-7.25-7.25v2.25zm466.25 448.75l24 10c2.25 1 3.75 3.125 3.75 5.5 0 32-23.625 48-30.125 48-6.25 0-29.875-15.88-29.875-48 0-2.375 1.375-4.5 3.625-5.5l24-10c.625-.25 1.625-.5 2.375-.5.625 0 1.625.25 2.25.5zm-27.875 11.75c-1.5.625-2.375 2.125-2.375 3.75 0 30.38 21 44.25 27 45.88v-59.63a.867.867 0 0 0-.072.003l-.041.004-.021.003-.078.011-.038.007c-.167.028-.333.055-.5-.028l-23.875 10zm26.625-10v59.63c1.625-.5 27-11.76 27-45.88 0-1.625-1-3-2.5-3.625l-24-10a.56.56 0 0 1-.152-.031l-.022-.006-.028-.01-.048-.016a.98.98 0 0 0-.25-.062zm-433-94.25c-17.75 0-32 11.75-32 26 0 6.25 2.625 12 7 16.375-1.288 5.472-5.338 10.299-6.46 11.636-.185.221-.29.346-.29.364-.25.25-.375.75-.25 1.125.25.375.5.5 1 .5 8.25 0 14.5-3.875 17.5-6.375a39.242 39.242 0 0 0 13.5 2.375c17.625 0 31.875-11.625 31.875-26 0-14.25-14.25-26-31.875-26zm0 50c-4.5 0-8.75-.75-12.75-2.25l-1.125-.375-.875.75c-2.5 2-7.5 5.25-14.125 5.875 1.875-2.375 4.75-6.5 5.875-11.125l.25-1.125-.75-.75c-4.25-4.25-6.5-9.5-6.5-15 0-13.125 13.375-24 30-24 16.5 0 30 10.875 30 24 0 13.25-13.5 24-30 24zm166-498c0-1 .875-2 2-2 1 0 2 1 2 2s-1 1.875-2 1.875c-1.125 0-2-.875-2-1.875zm0-8c0-1 .875-2 2-2 1 0 2 1 2 2s-1 2-2 2c-1.125 0-2-.875-2-2zm-36-8h22c5.5 0 10 4.5 10 10v15.875c0 5.375-4.5 9.875-10 9.875h-22c-5.625 0-10-4.375-10-9.875V428c0-5.5 4.375-10 10-10zm22 34c4.375 0 8-3.5 8-8v-16c0-4.25-3.625-7.875-8-7.875h-22c-4.5 0-8 3.5-8 7.875v16c0 4.375 3.5 8 8 8h22zm-5.25-41.875l21.25-.125c4.375 0 8 3.625 8 8v36.125c0 4.375-3.625 7.875-8 7.875h-48c-4.5 0-8-3.5-8-8.125V418c0-4.375 3.5-8 8-8l21.125.125-12.75-10.25c-.5-.375-.5-1-.25-1.375.375-.5 1-.625 1.5-.25l14.375 11.5 14.375-11.5c.375-.375 1-.25 1.375.25.375.375.25 1-.125 1.375l-12.875 10.25zM500.071 460c3.25 0 6-2.625 6-6v-36c0-3.25-2.75-6-6-6h-48c-3.375 0-6 2.75-6 6v36c0 3.25 2.625 6 6 6h48zm-7 371c-.625 0-1 .5-1 1v9c0 1.75-1.375 3-3 3h-26c-1.75 0-3-1.25-3-3v-9c0-.5-.5-1-1-1-.625 0-1 .5-1 1v9c0 2.875 2.125 5 5 5h26c2.75 0 5-2.125 5-5v-9c0-.5-.5-1-1-1zm1-5h-36c-.625 0-1 .5-1 1 0 .625.375 1 1 1h15.875l-6.75 8.375c-.25.5-.25 1.125.25 1.5.125.125.375.125.625.125s.5-.125.75-.375l7.25-9 7.125 9c.25.25.5.375.875.375.125 0 .375 0 .625-.125.375-.375.5-1 .125-1.5l-6.75-8.375h16c.5 0 1-.375 1-1 0-.5-.5-1-1-1zm18-22.25l-8.875-15.875c-2-3.625-5.875-5.875-10-5.875h-34.375c-4.125 0-8 2.25-10 5.875l-8.875 15.875c-1.25 2.25-1.875 4.75-1.875 7.375V829c0 2.875 2.125 5 5 5h4c2.75 0 5-2.125 5-5v-16.125l6-10.25V822c0 .625.375 1 1 1 .5 0 1-.375 1-1v-23c0-.375-.375-.75-.75-.875-.5-.125-1 0-1.125.375l-8 13.625c-.125.125-.125.375-.125.5V829c0 1.75-1.375 3-3 3h-4c-1.75 0-3-1.25-3-3v-17.875c0-2.25.5-4.5 1.625-6.375l8.875-15.875c1.625-3 4.75-4.875 8.25-4.875h6.625l9.5 18.25-7.875 15.375c-.25.5 0 1.125.5 1.375s1.125 0 1.375-.5l17.625-34.5h6.625c3.5 0 6.625 1.875 8.25 4.875l8.875 15.875a12.524 12.524 0 0 1 1.75 6.375V829c0 1.75-1.375 3-3 3h-4c-1.75 0-3-1.25-3-3v-16.375c0-.25-.125-.375-.25-.5l-8-13.625c-.125-.375-.625-.5-1.125-.375a.94.94 0 0 0-.625.875v23c0 .625.375 1 1 1 .5 0 1-.375 1-1v-19.25l6 10.125V829c0 2.875 2.125 5 5 5h4c2.75 0 5-2.125 5-5v-17.875c0-2.625-.75-5.125-2-7.375zm-36-3.625L467.696 784h16.625l-8.25 16.125zM778.445 206c10.5 0 17.625 8.875 17.625 17.875 0 6.721-2.439 9.433-5.451 12.782-2.815 3.129-6.129 6.813-8.424 14.843-4.5 15.875-19.5 18.5-24.5 18.5-14.125 0-25.625-11.375-25.625-25.625 0-17 14.375-23.5 18.75-24.75 5.25-1.375 10.25-4 14.125-7.875 3.625-3.75 8.625-5.75 13.5-5.75zm10.373 29.507c2.86-3.268 5.127-5.86 5.127-11.632 0-7.5-5.75-15.875-15.5-15.875-6.166 0-8.966 2.443-12.368 5.412-3.218 2.808-6.976 6.086-14.632 8.213-9.75 2.625-17.25 11.75-17.25 22.75 0 18.875 17.5 23.625 23.5 23.625 13.5 0 20.625-10.25 22.5-17 2.366-8.342 5.786-12.251 8.623-15.493zM747.07 245c0-8.125 7.75-16 15.75-16 4 0 10.125 2.5 10.125 10.125 0 8.375-8 16-16 16-6.5 0-9.875-5.125-9.875-10.125zm10 8.125c7 0 13.875-6.875 13.875-14 0-3.25-1.875-8.125-8-8-7 0-14 6.875-14 13.875 0 3.25 2 8.125 8.125 8.125zM606.695 328.5h-4.5c-1.125 0-2.125 1-2.125 2.25 0 6.125 5 11.25 11.125 11.25h4.5c1.25 0 2.375-1 2.375-2.25 0-6.125-5.125-11.25-11.375-11.25zm9 11.5h-4.5c-5 0-9.125-4.125-9.125-9.25 0-.153 0-.213.029-.236.018-.014.048-.014.096-.014h4.5c5.125 0 9.375 4.25 9.375 9.25 0 .25-.125.25-.375.25zm22-11.5h-4.5c-6.125 0-11.125 5.125-11.125 11.25 0 1.25.875 2.125 2.125 2.125h4.5c6.25.125 11.375-4.875 11.375-11.125 0-1.25-1.125-2.25-2.375-2.25zm-9 11.5h-4.5c-.048 0-.078 0-.096-.014-.029-.023-.029-.083-.029-.236 0-5.125 4.125-9.25 9.125-9.25h4.5c.125 0 .25 0 .25.25.125 5.125-4.125 9.25-9.25 9.25zm-8.625-38c-15.5 0-28 11-28 29.125 0 14 16.75 28 24.25 33.75a6.614 6.614 0 0 0 3.75 1.125c1.25 0 2.5-.375 3.625-1.125 7.5-5.75 24.375-19.75 24.375-33.75 0-18.125-12.625-29.125-28-29.125zm2.375 61.25c-.75.5-1.5.75-2.375.75-1 0-1.75-.25-2.5-.75-7.125-5.25-23.5-19-23.5-32.125 0-16 10.625-27.125 26-27.125 15.25 0 26 11.25 26 27.125 0 13.125-16.5 26.875-23.625 32.125zM590.07 718c0-16.5 13.375-30 30-30 16.5 0 30 13.5 30 30 0 7.75-3 14.75-7.75 20-.375.5-.25 1.125.125 1.5s1 .25 1.375-.125c5.125-5.625 8.25-13.125 8.25-21.375 0-17.625-14.375-32-32-32-17.75 0-32 14.375-32 32 0 8.25 3 15.75 8.125 21.375.375.375 1 .5 1.375.125s.5-1 .125-1.5c-4.75-5.25-7.625-12.25-7.625-20zm15.375-11.875c-.5-.25-1.125 0-1.375.5s0 1.125.5 1.375l8.25 4-8.25 4.125c-.5.25-.75.875-.5 1.375s.875.75 1.375.5l10-5c.375-.25.625-.625.625-1s-.25-.625-.625-.875l-10-5zm30.5.5c-.25-.5-.875-.75-1.375-.5l-10 5c-.375.25-.5.5-.5.875s.125.75.5 1l10 5c.5.25 1.125 0 1.375-.5s0-1.125-.5-1.375l-8.25-4.125 8.25-4c.5-.25.75-.875.5-1.375zM590.07 750c1 0 2-.875 2-2 0-1-1-2-2-2-1.125 0-2 1-2 2 0 1.125.875 2 2 2zm60-8c-1.125 0-2 1-2 2 0 1.125.875 2 2 2 1 0 2-.875 2-2 0-1-1-2-2-2zm-28-6c0 1.125.875 2 2 2 1 0 2-.875 2-2 0-1-1-2-2-2-1.125 0-2 1-2 2zm-6 2c-1.125 0-2 1-2 2 0 1.125.875 2 2 2 1 0 2-.875 2-2 0-1-1-2-2-2zm16-3.125V734c0-.5-.5-1-1-1-.625 0-1 .5-1 1v.875c0 5.75 4.125 10.75 9.75 11.625l1.625.375c.375 0 .625.25.625.5 0 .375-.375.625-.625.625H598.57c-.25 0-.625-.25-.625-.625 0-.25.25-.5.625-.5l1.625-.375c5.625-.875 9.75-5.875 9.75-11.625V734c0-.5-.375-1-1-1-.5 0-1 .5-1 1v.875c0 4.875-3.375 8.875-8.125 9.75l-1.625.25c-1.25.125-2.25 1.25-2.25 2.5 0 1.5 1.25 2.625 2.625 2.625h42.875c1.375 0 2.625-1.125 2.625-2.625 0-1.25-1-2.375-2.25-2.5l-1.625-.25c-4.75-.875-8.125-4.875-8.125-9.75zm-29-3.125c-.125.625.125 1.125.625 1.25.625.125 1.125-.125 1.25-.625.375-1.5 2-3.25 4.625-4.75S615.695 725 619.945 725c4.375 0 7.875 1.125 10.5 2.625s4.25 3.25 4.625 4.75c.125.5.625.75 1.25.625.5-.125.75-.625.625-1.25-.625-2.125-2.625-4.25-5.5-5.875S624.57 723 620.07 723c-4.625 0-8.625 1.25-11.5 2.875s-4.875 3.75-5.5 5.875zm138-135.75c-1.125 0-2.125.125-3 .375V649c0 .625-.5 1-1 1-.625 0-1-.375-1-1v-52.125c-5.875 2.125-10 7.625-10 14.125v38c0 .625-.5 1-1 1-.625 0-1-.375-1-1v-38c0-9.375 7.5-17 17-17h.75c5.375 0 10.5 2.625 13.625 7l17.625 23.75c3.375 4.625 8.875 7.25 14.625 7.25h.375c7.625 0 14-6.25 14-14 0-6.25-4.25-11.625-10-13.375V625c0 .625-.5 1-1 1-.625 0-1-.375-1-1v-20.75l-.313-.053-.007-.001h-.001c-.611-.105-1.145-.196-1.679-.196h-2.25c-2 0-4 .375-5.75 1.125V621c0 .625-.5 1-1 1-.625 0-1-.375-1-1v-15c-.25.125-.5.25-.625.375l-5.875 3.5c-.5.375-1.125.125-1.375-.25-.375-.5-.125-1.125.25-1.375l6-3.625c2.75-1.625 6-2.625 9.375-2.625h2.25c8.75 0 16 7.25 16 16v31c0 .625-.5 1-1 1-.625 0-1-.375-1-1v-23.25c-2.5 4.375-6.875 7.5-12 8.125V649c0 .625-.5 1-1 1-.625 0-1-.375-1-1v-15h-.375c-4.25 0-8.375-1.25-11.625-3.625V649c0 .625-.5 1-1 1-.625 0-1-.375-1-1v-20.25c-1-.875-1.875-1.875-2.625-2.875l-9.375-12.75V649c0 .625-.5 1-1 1-.625 0-1-.375-1-1v-38.625l-6.25-8.25c-1-1.5-2.375-2.625-3.75-3.625V649c0 .625-.5 1-1 1-.625 0-1-.375-1-1v-51.625c-2-.875-4.125-1.375-6.25-1.375h-.75zm158.001 305c0-2.75 2.125-5 5-5h6.875a6.135 6.135 0 0 1 6.125 6.125c0 2.125-1.125 4-3 5.125l-5.625 3.375c-.875.5-1.375 1.5-1.375 2.625V916c0 .625.375 1 1 1 .5 0 1-.375 1-1v-2.75c0-.375.125-.75.375-.875l5.625-3.375c2.5-1.5 4-4.125 4-6.875 0-4.5-3.625-8.125-8.125-8.125h-6.875c-3.875 0-7 3.25-7 7v1c0 .625.375 1 1 1 .5 0 1-.375 1-1v-1zm9 21c-1.125 0-2 1-2 2 0 1.125.875 2 2 2 1 0 2-.875 2-2 0-1-1-2-2-2zm-18-28c1 0 2-.875 2-2 0-1-1-2-2-2-1.125 0-2 1-2 2 0 1.125.875 2 2 2zm36-4c-1.125 0-2 1-2 2 0 1.125.875 2 2 2 1 0 2-.875 2-2 0-1-1-2-2-2zm-36 40c1 0 2-.875 2-2 0-1-1-2-2-2-1.125 0-2 1-2 2 0 1.125.875 2 2 2zm36-4c-1.125 0-2 1-2 2 0 1.125.875 2 2 2 1 0 2-.875 2-2 0-1-1-2-2-2zm10-36c0-4.375-3.625-8-8-8h-40c-4.5 0-8 3.625-8 8v40c0 4.5 3.5 8 8 8h40c4.375 0 8-3.5 8-8v-40zm-48-6h40c3.25 0 6 2.75 6 6v40c0 3.375-2.75 6-6 6h-40c-3.375 0-6-2.625-6-6v-40c0-3.25 2.625-6 6-6zm31.999-730h-24c-8.875 0-16 7.25-16 16 0 2.25 1.75 4 4 4h48c2.125 0 4-1.75 4-4 0-8.75-7.25-16-16-16zm-20.625 18l8.625-8.5 8.5 8.5h-17.125zm32.625 0h-12.625l-10.75-10.625a.98.98 0 0 0-1.375 0L896.57 172h-12.5c-1.125 0-2-.875-2-2 0-7.625 6.25-14 14-14h24c7.625 0 14 6.375 14 14 0 1.125-1 2-2 2zm-40.875-25.25l14.75 3.25h4.125l14.75-3.25c2-.375 3.25-2.125 3.125-4.125L927.07 128c-.5-10-8.875-18-19-18-8.375 0-15.375 5.375-18 12.75V112h3c.5 0 1-.375 1-1 0-.5-.5-1-1-1h-4c-.625 0-1 .5-1 1v31.75c-.125 1.875 1.25 3.625 3.125 4zm34.125-16.5c-2 .75-10.25 4.625-10.25 13.625 0 .625.375 1 1 1 .5 0 1-.375 1-1 0-7.25 6-10.5 8.375-11.5l.5 10.375c.125 1-.5 1.875-1.5 2.125l-12.375 2.75v-14.75l13.125-3.625.125 1zM908.07 112c7.625 0 14.125 5.125 16.25 12h-32.625c2.125-6.875 8.625-12 16.375-12zm-16.875 14h33.625c.125.5.125.875.125 1.25l-14.25 3.875a.94.94 0 0 0-.625.875v16h-4v-16c0-.375-.375-.75-.75-.875l-14.375-3.875a3.69 3.69 0 0 0 .133-.629c.029-.189.06-.392.117-.621zm-.625 6.375c2.375 1 8.5 4.25 8.5 11.5 0 .625.375 1 1 1 .5 0 1-.375 1-1 0-9-8.375-12.875-10.375-13.625l.125-1 13.25 3.625V147.5l-12.5-2.625c-1-.25-1.625-1.125-1.5-2.125l.5-10.375zM924.07 512c-1.125 0-2 1-2 2 0 1.125.875 2 2 2 1 0 2-.875 2-2 0-1-1-2-2-2zm8 4c1 0 2-.875 2-2 0-1-1-2-2-2-1.125 0-2 1-2 2 0 1.125.875 2 2 2zm-4.5-18c-5.125 0-9.5 3.125-11.5 7.5l-6.375 4.25c-1 .75-1.625 2-1.625 3.25 0 3 3.125 4.875 5.75 3.375l1.25-.625V520c0 6.625 5.25 12 12 12h1c6.625 0 12-5.375 12-12v-4.25l1.125.625c2.625 1.5 5.875-.375 5.875-3.375 0-1.25-.75-2.5-1.75-3.25l-6.375-4.25c-2-4.375-6.375-7.5-11.375-7.5zm-10.5 12.5c0-5.75 4.625-10.5 10.5-10.5 5.75 0 10.5 4.75 10.5 10.5v9.5c0 5.625-4.5 10-10 10h-1c-5.625 0-10-4.375-10-10v-9.5zm25.125 4.25l-2.125-1.25v-3c0-.625-.125-1.375-.25-2l4.375 3c.5.375.875.875.875 1.5 0 1.5-1.625 2.375-2.875 1.75zm-31.375-3.25l4.375-3c-.125.625-.125 1.375-.125 2v3l-2.25 1.25c-1.25.625-2.75-.25-2.75-1.75 0-.625.25-1.125.75-1.5zm14.5 24.375a5.95 5.95 0 0 1-5.25 3.125h-1c-1-.125-2 .5-2.25 1.5-.625 2.625-3 4.5-5.75 4.5-1.5 0-2.75-.375-3.75-1.25-.875-.625-2.125-.5-2.75.25a6.051 6.051 0 0 1-4.5 2c-1.875 0-3.5-.75-4.625-2-.625-.75-1.875-.875-2.75-.25-1 .875-2.25 1.25-3.625 1.25-2.875 0-5.25-1.875-5.875-4.5-.25-1-1.25-1.625-2.25-1.5h-.875c-3.375 0-6-2.625-6-6 0-.5 0-.875.125-1.375.25-.875-.25-1.875-1-2.25-1.875-1-3.125-3-3.125-5.375a5.95 5.95 0 0 1 3.125-5.25c.75-.375 1.25-1.375 1-2.25-.125-.5-.125-1-.125-1.5 0-3.25 2.625-6 6-6 .113 0 .225.025.349.053.151.034.32.072.526.072 1 .125 2-.5 2.25-1.5A6.042 6.042 0 0 1 889.07 503c1.375 0 2.625.5 3.625 1.375.875.625 2.125.5 2.75-.25 1.125-1.25 2.75-2.125 4.625-2.125 1.75 0 3.375.875 4.5 2.125.625.75 1.875.875 2.75.25 1-.875 2.25-1.375 3.75-1.375.5 0 1.125.125 1.625.25.18-.45.425-.835.688-1.249.103-.161.207-.326.312-.501-.875-.25-1.75-.5-2.625-.5-2 0-3.625.75-5 1.75-1.5-1.625-3.625-2.75-6-2.75-2.5 0-4.625 1.125-6.125 2.75-1.375-1-3-1.75-4.875-1.75-3.875 0-7 2.625-7.875 6.125-.187 0-.375-.031-.562-.063-.188-.031-.375-.062-.563-.062-4.5 0-8 3.625-8 8 0 .75 0 1.375.125 2a7.945 7.945 0 0 0-4.125 7c0 3.125 1.625 5.75 4.125 7.125-.125.625-.125 1.25-.125 1.875 0 4.25 3.125 7.625 7.125 8l3.125 13.25c.5 2.25 2.5 3.75 4.875 3.75h1.875c2.75 0 5-2.125 5-5v-3c0-.5-.5-1-1-1-.625 0-1 .5-1 1v3c0 1.75-1.375 3-3 3h-1.875c-1.375 0-2.625-.875-3-2.25l-2.875-12.375c1 3.25 4 5.625 7.75 5.625 1.875 0 3.5-.625 4.875-1.625 1.5 1.625 3.625 2.625 6.125 2.625 2.375 0 4.5-1 6-2.625 1.375 1 3 1.625 5 1.625a7.952 7.952 0 0 0 7.625-5.625l-2.875 12.375c-.375 1.375-1.625 2.25-3 2.25h-1.75c-1.75 0-3-1.25-3-3v-3c0-.5-.5-1-1-1-.625 0-1 .5-1 1v3c0 2.875 2.125 5 5 5h1.75c2.375 0 4.375-1.5 4.875-3.75L920.82 541c3-.25 5.5-2.25 6.625-5-.75 0-1.5 0-2.125-.125z" fill="#9C36B5"/></svg>