<svg width="484" height="456" fill="none" xmlns="http://www.w3.org/2000/svg"><g clip-path="url(#clip0_1746_14620)"><path opacity=".25" d="M455.131 118.271l-58.677 30.031c-17.035 8.446-28.391 23.462-29.338 40.355l-4.732 58.185c-2.839 42.232-61.515 62.878-98.424 34.724l-51.105-38.478c-15.143-11.261-35.017-15.015-53.945-11.261l-66.247 15.015c-47.32 10.323-88.96-30.97-69.087-69.447l26.5-53.493c8.517-15.016 6.624-32.847-3.786-46.924L9.38 27.238c-26.498-35.662 6.625-81.647 55.838-77.893l68.14 5.63c18.928 1.877 37.855-5.63 50.158-17.83l43.534-45.047c31.231-31.909 92.747-19.708 104.103 21.585l15.143 56.308c3.785 16.893 17.981 30.032 35.963 36.6l63.408 20.647c46.373 15.955 52.051 69.448 9.464 91.033z" fill="#63E6BE"/><circle cx="236" cy="7" r="18" fill="#282004"/><circle cx="178" cy="317" r="12" fill="#9C7828"/><ellipse cx="89.5" cy="47.388" rx="13.5" ry="13.388" fill="#9C7828"/><ellipse cx="312.5" cy="26.388" rx="13.5" ry="13.388" fill="#503B0C"/><circle cx="270" cy="397" r="10" fill="#503B0C"/><circle cx="425" cy="189" r="10" fill="#503B0C"/><ellipse cx="273" cy="257.802" rx="7" ry="6.942" fill="#282004"/><ellipse cx="251" cy="91.19" rx="7" ry="6.942" fill="#282004"/><path d="M383.885 191.712c10.119 10.886 6.554 30.648-7.961 44.139-14.515 13.491-34.485 15.603-44.603 4.716-10.118-10.886-6.554-30.648 7.961-44.139 14.515-13.491 34.485-15.603 44.603-4.716zM86.6 110.355c10.078 10.843 6.528 30.525-7.93 43.962-14.456 13.437-34.345 15.54-44.423 4.697-10.077-10.842-6.527-30.525 7.93-43.962 14.456-13.436 34.345-15.54 44.423-4.697zM394.878 313.079c11.146 11.31 7.957 32.527-7.124 47.389-15.08 14.861-36.341 17.74-47.488 6.43-11.146-11.31-7.957-32.527 7.124-47.389 15.08-14.862 36.341-17.741 47.488-6.43zM352.006 140.105c-13.432 4.897-29.613-5.651-36.142-23.56-6.529-17.908-.934-36.395 12.498-41.292 13.431-4.897 29.612 5.65 36.141 23.56 6.529 17.908.934 36.395-12.497 41.292zM192.964 438.719c-13.432 4.897-29.613-5.651-36.142-23.56-6.529-17.908-.934-36.396 12.498-41.293 13.431-4.896 29.612 5.652 36.141 23.56 6.529 17.909.934 36.396-12.497 41.293zM131.553 300.57c6.903 14.143-2.787 33.071-21.645 42.276-18.858 9.205-39.741 5.202-46.645-8.942-6.904-14.143 2.787-33.07 21.645-42.275 18.857-9.205 39.741-5.202 46.645 8.941zM149.525 186.654c-10.231 11.96-5.598 32.713 10.347 46.354 15.946 13.641 37.166 15.004 47.397 3.045 10.231-11.959 5.598-32.713-10.348-46.354-15.945-13.641-37.166-15.004-47.396-3.045zM123.525-14.346c-10.231 11.96-5.598 32.713 10.347 46.354 15.946 13.64 37.166 15.004 47.397 3.045 10.231-11.96 5.598-32.713-10.348-46.354-15.945-13.64-37.166-15.004-47.396-3.045z" fill="#2C1F02"/><path d="M255.79 162.609c6.904 14.143-2.787 33.07-21.645 42.275-18.857 9.205-39.741 5.202-46.645-8.941-6.903-14.144 2.787-33.071 21.645-42.276 18.858-9.205 39.741-5.202 46.645 8.942z" fill="#2C1F02"/><path d="M234.146 204.884c18.857-9.205 28.548-28.132 21.644-42.275a21.756 21.756 0 0 0-2.53-4.007c-1.145-1.438-3.302-1.174-4.391.306-7.225 9.814-16.471 17.718-27.123 23.202l-.012.006c-9.582 4.853-18.072 11.523-24.704 20.151-1.021 1.328-.671 3.239.816 4.01 9.666 5.019 23.453 4.878 36.3-1.393zM194.177 199.418c-1.128 1.445-3.283 1.664-4.398.209a21.783 21.783 0 0 1-2.279-3.684c-6.903-14.144 2.787-33.071 21.645-42.276 12.686-6.193 26.29-6.407 35.937-1.578 1.492.747 1.877 2.642.897 3.993-6.912 9.537-15.805 17.188-26.058 22.469-9.905 5.017-18.761 11.921-25.744 20.867zM394.65 318.992c1.213-1.725 3.773-1.808 4.682.095 5.644 11.819 1.381 28.856-11.328 41.381-14.038 13.834-33.432 17.285-45.037 8.573-1.15-.863-1.342-2.477-.526-3.661 6.616-9.605 15.427-17.047 25.52-22.469l.011-.007c10.555-5.763 19.647-13.906 26.678-23.912zM336.154 360.553c.875 1.911 3.427 1.881 4.688.2 6.789-9.043 15.464-16.12 25.219-21.363 10.813-5.904 20.021-14.452 26.901-25.042.781-1.202.558-2.806-.604-3.646-11.638-8.415-30.808-4.902-44.719 8.807-12.588 12.406-16.89 29.24-11.485 41.044zM185.686 440.175c2.121.035 3.136-2.336 2.077-4.175-5.41-9.4-8.591-19.751-9.352-30.4l-.001-.014c-.658-10.186-3.41-20.079-8.702-29.005-.739-1.246-2.305-1.74-3.56-1.017-11.168 6.428-15.417 23.386-9.413 39.855 5.394 14.795 17.375 24.566 28.951 24.756zM174.575 377.076c-.994-1.865.065-4.205 2.178-4.137 11.473.367 23.279 10.093 28.621 24.747 5.95 16.318 1.832 33.116-9.107 39.676-1.239.743-2.809.282-3.58-.94-6.003-9.516-9.503-20.149-10.285-31.101-.635-9.797-3.113-19.407-7.827-28.245z" fill="#684E14"/><path d="M375.924 235.851c14.515-13.491 18.08-33.253 7.961-44.139-.3-.324-.61-.636-.927-.936-1.232-1.166-3.17-.775-4.052.672a128.146 128.146 0 0 0-6.945 13.102l-.004.01c-7.067 15.134-16.698 28.079-28.321 37.961-1.8 1.531-1.316 4.407 1.024 4.736 9.891 1.391 21.749-2.563 31.264-11.406z" fill="#503B0C"/><path d="M336.998 242.722c-.979.74-2.327.791-3.293.035a20.409 20.409 0 0 1-2.384-2.19c-10.118-10.886-6.554-30.648 7.961-44.139 10.574-9.828 24.041-13.617 34.487-10.742 1.773.488 2.391 2.568 1.442 4.142a132.635 132.635 0 0 0-6.881 13.045c-7.664 16.411-18.388 30.058-31.332 39.849zM78.67 154.317c14.458-13.437 18.008-33.119 7.93-43.962a20.512 20.512 0 0 0-.907-.917c-1.231-1.167-3.17-.777-4.052.672a127.573 127.573 0 0 0-6.909 13.035l-.005.011c-7.034 15.064-16.619 27.951-28.186 37.792-1.8 1.532-1.316 4.407 1.026 4.734 9.844 1.372 21.638-2.567 31.104-11.365z" fill="#503B0C"/><path d="M39.901 161.15c-.978.741-2.327.792-3.293.035a20.375 20.375 0 0 1-2.36-2.171c-10.078-10.842-6.528-30.525 7.928-43.962 10.524-9.781 23.926-13.556 34.327-10.704 1.773.486 2.392 2.566 1.442 4.141-2.49 4.13-4.77 8.47-6.844 12.979-7.632 16.342-18.31 29.933-31.2 39.682zM346.892 137.127c1.058 1.838.044 4.209-2.078 4.174-11.575-.19-23.556-9.961-28.95-24.756-6.004-16.468-1.755-33.427 9.413-39.855 1.255-.723 2.821-.229 3.56 1.017 5.292 8.926 8.044 18.82 8.702 29.005l.001.014c.76 10.649 3.942 21 9.352 30.401zM335.882 74.065c-2.113-.068-3.172 2.272-2.178 4.137 4.714 8.839 7.192 18.448 7.826 28.245.783 10.952 4.283 21.585 10.286 31.101.771 1.222 2.341 1.683 3.58.94 10.939-6.559 15.056-23.358 9.107-39.676-5.342-14.654-17.148-24.38-28.621-24.747zM109.908 342.846c18.858-9.205 28.548-28.133 21.645-42.276a21.7 21.7 0 0 0-2.531-4.006c-1.144-1.438-3.301-1.175-4.391.305-7.224 9.815-16.47 17.718-27.122 23.203l-.012.006c-9.582 4.853-18.072 11.523-24.705 20.151-1.02 1.327-.67 3.238.816 4.01 9.667 5.019 23.454 4.878 36.3-1.393zM69.94 337.379c-1.128 1.445-3.283 1.665-4.398.21a21.72 21.72 0 0 1-2.279-3.685c-6.904-14.143 2.787-33.07 21.645-42.275 12.686-6.193 26.29-6.408 35.936-1.579 1.493.747 1.877 2.643.898 3.994-6.913 9.536-15.805 17.188-26.059 22.469-9.905 5.017-18.76 11.92-25.743 20.866zM159.872 233.008c-15.945-13.641-20.578-34.394-10.347-46.354 1.043-1.219 2.2-2.3 3.454-3.243 1.469-1.105 3.491-.309 4.174 1.397 4.532 11.313 11.5 21.283 20.435 29.264l.01.009c8.059 7.101 14.604 15.688 18.86 25.704.655 1.541-.164 3.303-1.796 3.677-10.616 2.433-23.927-1.162-34.79-10.454zM199.934 237.742c.73 1.682 2.761 2.435 4.205 1.306a21.736 21.736 0 0 0 3.13-2.995c10.231-11.959 5.598-32.713-10.348-46.354-10.727-9.177-23.842-12.797-34.392-10.542-1.631.349-2.479 2.087-1.87 3.64 4.299 10.966 10.988 20.604 19.589 28.288 8.33 7.341 15.171 16.246 19.686 26.657zM133.872 32.008c-15.945-13.641-20.578-34.394-10.347-46.354 1.043-1.219 2.2-2.3 3.454-3.243 1.469-1.105 3.491-.309 4.174 1.397 4.532 11.313 11.5 21.283 20.435 29.264l.01.01c8.059 7.1 14.604 15.687 18.86 25.703.655 1.54-.164 3.303-1.796 3.677-10.616 2.433-23.927-1.162-34.79-10.454zM173.934 36.742c.73 1.682 2.761 2.435 4.205 1.306a21.675 21.675 0 0 0 3.13-2.995c10.231-11.96 5.598-32.713-10.348-46.354-10.727-9.177-23.842-12.797-34.392-10.542-1.631.349-2.479 2.087-1.87 3.64 4.299 10.966 10.988 20.604 19.589 28.288 8.33 7.341 15.171 16.245 19.686 26.657z" fill="#503B0C"/><g opacity=".5" fill="#282004"><path d="M156.797 42.823c5.735-.913 10.808-3.487 14.472-7.77 10.231-11.96 5.598-32.713-10.348-46.354-7.076-6.053-15.192-9.69-22.924-10.815 10.28-1.638 22.689 2.06 32.924 10.815C186.867 2.34 191.5 23.094 181.269 35.053c-5.69 6.652-14.781 9.182-24.472 7.77zM342.005 140.105a19.74 19.74 0 0 1-1.934.595c4.01.943 8.085.808 11.934-.595 13.432-4.897 19.027-23.384 12.498-41.293-6.219-17.056-21.193-27.436-34.208-24.154 9.98 2.349 19.55 11.378 24.208 24.154 6.529 17.909.934 36.396-12.498 41.293zM76.6 110.355c10.078 10.843 6.528 30.525-7.93 43.962-6.691 6.22-14.548 10.011-22.056 11.214 10.029 1.773 22.284-2.131 32.057-11.214 14.457-13.437 18.007-33.119 7.929-43.962-5.413-5.823-13.656-7.913-22.367-6.517 4.807.85 9.102 3.004 12.367 6.517zM373.885 191.712c10.118 10.886 6.554 30.648-7.961 44.139-6.726 6.251-14.622 10.059-22.167 11.263 10.065 1.772 22.361-2.149 32.167-11.263 14.515-13.491 18.079-33.253 7.961-44.139-5.43-5.843-13.698-7.941-22.436-6.547 4.833.851 9.153 3.015 12.436 6.547zM378.005 360.468c15.08-14.862 18.269-36.079 7.123-47.389-3.477-3.529-7.939-5.676-12.891-6.51 8.824-1.353 17.183.718 22.891 6.51 11.146 11.31 7.957 32.527-7.123 47.389-10.376 10.225-23.678 14.778-34.598 12.94 8.409-1.29 17.239-5.689 24.598-12.94zM99.908 342.846c18.858-9.205 28.549-28.132 21.645-42.276-3.756-7.695-11.651-12.388-21.105-13.586 13.659-1.626 26.082 3.296 31.105 13.586 6.904 14.144-2.787 33.071-21.645 42.276-8.598 4.197-17.617 5.648-25.54 4.644 5.115-.609 10.403-2.136 15.54-4.644zM197.269 236.053c-3.664 4.283-8.737 6.857-14.472 7.77 9.691 1.412 18.782-1.118 24.472-7.77 5.878-6.872 6.85-16.647 3.587-26.307 7.356.491 15.496-1.057 23.29-4.862 18.857-9.205 28.548-28.132 21.644-42.275-5.023-10.291-17.446-15.213-31.105-13.586 9.455 1.197 17.349 5.891 21.105 13.586 6.904 14.143-2.787 33.07-21.644 42.275-4.447 2.171-9.005 3.607-13.467 4.349-2.466-6.979-7.136-13.869-13.758-19.534-10.235-8.756-22.644-12.453-32.924-10.815 7.732 1.126 15.848 4.762 22.924 10.815 15.946 13.641 20.579 34.395 10.348 46.354zM182.979 438.855c-.639.232-1.284.43-1.934.594 4.01.944 8.085.809 11.934-.594 13.432-4.897 19.027-23.385 12.498-41.293-6.219-17.057-21.193-27.437-34.208-24.154 9.98 2.348 19.55 11.378 24.208 24.154 6.529 17.908.934 36.396-12.498 41.293z"/></g></g><defs><clipPath id="clip0_1746_14620"><path fill="#fff" d="M0 0h484v456H0z"/></clipPath></defs></svg>