<svg xmlns="http://www.w3.org/2000/svg" xmlns:xlink="http://www.w3.org/1999/xlink" width="358.285" height="440.052" viewBox="0 0 358.285 440.052"><defs><filter id="a" x="87.416" y="122.056" width="262.369" height="317.995" filterUnits="userSpaceOnUse"><feOffset dx="6" dy="6" input="SourceAlpha"/><feGaussianBlur stdDeviation="12" result="b"/><feFlood flood-opacity="0.102"/><feComposite operator="in" in2="b"/><feComposite in="SourceGraphic"/></filter><filter id="c" x="0.787" y="1.392" width="308.477" height="369.845" filterUnits="userSpaceOnUse"><feOffset dx="6" dy="6" input="SourceAlpha"/><feGaussianBlur stdDeviation="12" result="d"/><feFlood flood-opacity="0.102"/><feComposite operator="in" in2="d"/><feComposite in="SourceGraphic"/></filter></defs><g transform="translate(22078.697 5149.089)"><g transform="matrix(1, 0, 0, 1, -22078.7, -5149.09)" filter="url(#a)"><rect width="244.995" height="189.368" transform="translate(307.29 152.56) rotate(90)" fill="none" stroke="#182849" stroke-miterlimit="10" stroke-width="1" stroke-dasharray="10 10"/></g><g transform="translate(-22078.697 -5149.089)"><g transform="translate(0 0)"><path d="M480.029,488.183l-.444-302.5-195.416.287-39.954,31.26.423,271.3Z" transform="translate(-244.195 -185.681)" fill="#ebf5ff"/><path d="M262.123,220.738l22.01-34.556-39.954,31.26Z" transform="translate(-244.179 -185.895)" fill="#f7f7f5" style="mix-blend-mode:multiply;isolation:isolate"/><path d="M260.044,218.624l24.089-32.443-39.954,31.26Z" transform="translate(-244.179 -185.895)" fill="#126dae"/></g></g><g transform="translate(-22047.91 -5117.697)"><g transform="translate(0 0)"><g transform="translate(0 0)"><g transform="translate(0 0)"><g transform="matrix(1, 0, 0, 1, -30.79, -31.39)" filter="url(#c)"><path d="M0,0H236.476V297.845H0Z" transform="translate(30.79 31.39)" fill="#fff"/></g><rect width="64.952" height="11.901" transform="translate(17.06 36.283)" fill="#ebf5ff"/><rect width="48.455" height="11.901" transform="translate(17.06 50.504)" fill="#ebf5ff"/><g transform="translate(18.674 72.221)"><path d="M2242.912,454.812l54.559.088a1.994,1.994,0,0,0,2-1.99h0a1.993,1.993,0,0,0-1.99-2l-54.559-.088a1.994,1.994,0,0,0-2,1.99h0A1.994,1.994,0,0,0,2242.912,454.812Z" transform="translate(-2240.574 -450.825)" fill="#f2f2f2"/><path d="M2489.675,455.213l52.023.085h0l73.8.12a1.993,1.993,0,1,0,.006-3.987l-73.795-.12-52.022-.084a1.993,1.993,0,1,0-.007,3.987Z" transform="translate(-2417.414 -451.112)" fill="#f2f2f2"/><path d="M2242.776,504.438l77.061.125a1.993,1.993,0,0,0,.007-3.987l-77.062-.125a1.993,1.993,0,0,0-.006,3.987Z" transform="translate(-2240.478 -486.389)" fill="#f2f2f2"/><path d="M2569.375,500.98a1.994,1.994,0,0,0-2,1.99h0a1.993,1.993,0,0,0,1.99,2l71.828.116a1.993,1.993,0,0,0,2-1.99h0a1.993,1.993,0,0,0-1.99-2Z" transform="translate(-2474.525 -486.768)" fill="#f2f2f2"/><path d="M2886.018,501.495l-18.8-.031a1.994,1.994,0,1,0-.007,3.987l18.8.03a1.993,1.993,0,1,0,.007-3.987Z" transform="translate(-2687.971 -487.115)" fill="#f2f2f2"/><path d="M2512.018,650.495l-18.8-.031a1.994,1.994,0,0,0-.007,3.987l18.8.03a1.993,1.993,0,0,0,.006-3.987Z" transform="translate(-2419.95 -593.893)" fill="#f2f2f2"/><path d="M2512.018,650.495l-18.8-.031a1.994,1.994,0,0,0-.007,3.987l18.8.03a1.993,1.993,0,0,0,.006-3.987Z" transform="translate(-2419.95 -495.838)" fill="#f2f2f2"/><path d="M2512.018,600.495l-18.8-.031a1.994,1.994,0,0,0-.007,3.987l18.8.03a1.993,1.993,0,0,0,.006-3.987Z" transform="translate(-2419.95 -558.062)" fill="#f2f2f2"/><path d="M2605.351,600.495l-13.13-.031a1.994,1.994,0,1,0-.006,3.987l13.13.03a1.993,1.993,0,1,0,.006-3.987Z" transform="translate(-2490.896 -558.062)" fill="#f2f2f2"/><path d="M2605.351,600.495l-13.13-.031a1.994,1.994,0,1,0-.006,3.987l13.13.03a1.993,1.993,0,1,0,.006-3.987Z" transform="translate(-2497.599 -459.694)" fill="#f2f2f2"/><path d="M2242.639,554.063l73.75.12a1.994,1.994,0,1,0,.006-3.987l-73.75-.12a1.993,1.993,0,0,0-.006,3.987Z" transform="translate(-2240.379 -521.952)" fill="#f2f2f2"/><path d="M2665.767,550.764l-88.659-.144h-.005l-17.169-.028a1.993,1.993,0,1,0-.007,3.987l11.818.019h0l94.01.152a1.993,1.993,0,1,0,.006-3.987Z" transform="translate(-2467.759 -522.321)" fill="#f2f2f2"/><path d="M2746.656,600.521l-73.794-.12a1.993,1.993,0,0,0-2,1.99h0a1.993,1.993,0,0,0,1.99,2l73.795.119a1.993,1.993,0,1,0,.006-3.987Z" transform="translate(-2548.688 -558.016)" fill="#f2f2f2"/><path d="M2702.528,650.074l-91.19-.148a1.993,1.993,0,0,0-.007,3.987l91.19.148a1.993,1.993,0,1,0,.007-3.987Z" transform="translate(-2504.598 -593.508)" fill="#f2f2f2"/><path d="M2614.819,699.558l-73.8-.12h0L2489,699.354a1.993,1.993,0,0,0-.006,3.987l61.633.1h0l64.184.1a1.993,1.993,0,0,0,.007-3.987Z" transform="translate(-2416.926 -628.93)" fill="#f2f2f2"/><path d="M2242.095,752.566l30.608.049h0l48.062.078a1.993,1.993,0,0,0,.007-3.987l-24.113-.039h0l-54.56-.089a1.994,1.994,0,0,0-.007,3.987Z" transform="translate(-2239.989 -664.206)" fill="#f2f2f2"/><path d="M2242.095,752.566l30.608.049h0l48.062.078a1.993,1.993,0,0,0,.007-3.987l-24.113-.039h0l-54.56-.089a1.994,1.994,0,0,0-.007,3.987Z" transform="translate(-2239.989 -607.826)" fill="#f2f2f2"/><path d="M2668.964,749.272,2564.61,749.1a1.994,1.994,0,0,0-.006,3.987l104.354.169a1.993,1.993,0,0,0,.006-3.987Z" transform="translate(-2471.111 -664.581)" fill="#f2f2f2"/><path d="M2241.958,802.192l54.56.088a1.992,1.992,0,0,0,2-1.99h0a1.993,1.993,0,0,0-1.99-2l-54.56-.088a1.992,1.992,0,0,0-2,1.99h0A1.993,1.993,0,0,0,2241.958,802.192Z" transform="translate(-2239.892 -699.77)" fill="#f2f2f2"/><path d="M2241.958,802.192l54.56.088a1.992,1.992,0,0,0,2-1.99h0a1.993,1.993,0,0,0-1.99-2l-54.56-.088a1.992,1.992,0,0,0-2,1.99h0A1.993,1.993,0,0,0,2241.958,802.192Z" transform="translate(-2239.892 -643.39)" fill="#f2f2f2"/><path d="M2614.546,798.809l-73.8-.12h0l-52.021-.084a1.993,1.993,0,0,0-.007,3.987l58.535.095h0l67.283.109a1.993,1.993,0,0,0,.007-3.987Z" transform="translate(-2416.731 -700.057)" fill="#f2f2f2"/><path d="M2241.823,851.818l35.448.057h0l71.627.116a1.994,1.994,0,0,0,.006-3.987l-52.515-.085h0l-54.56-.089a1.994,1.994,0,0,0-2,1.99h0A1.993,1.993,0,0,0,2241.823,851.818Z" transform="translate(-2239.794 -735.333)" fill="#f2f2f2"/><path d="M2241.823,851.818l35.448.057h0l71.627.116a1.994,1.994,0,0,0,.006-3.987l-52.515-.085h0l-54.56-.089a1.994,1.994,0,0,0-2,1.99h0A1.993,1.993,0,0,0,2241.823,851.818Z" transform="translate(-2239.794 -678.953)" fill="#f2f2f2"/><path d="M2745.976,848.649l-73.8-.12a1.994,1.994,0,0,0-2,1.99h0a1.994,1.994,0,0,0,1.991,2l73.794.12a1.993,1.993,0,1,0,.007-3.987Z" transform="translate(-2548.198 -735.834)" fill="#f2f2f2"/><path d="M2296.253,897.545l-54.56-.089a1.993,1.993,0,0,0-2,1.99h0a1.994,1.994,0,0,0,1.99,2l54.56.088a1.994,1.994,0,0,0,2-1.99h0A1.993,1.993,0,0,0,2296.253,897.545Z" transform="translate(-2239.697 -770.896)" fill="#f2f2f2"/><path d="M2296.253,897.545l-54.56-.089a1.993,1.993,0,0,0-2,1.99h0a1.994,1.994,0,0,0,1.99,2l54.56.088a1.994,1.994,0,0,0,2-1.99h0A1.993,1.993,0,0,0,2296.253,897.545Z" transform="translate(-2239.697 -714.516)" fill="#f2f2f2"/><path d="M2546.991,897.952l-58.535-.1a1.993,1.993,0,0,0-.007,3.987l58.535.1a1.993,1.993,0,1,0,.007-3.987Z" transform="translate(-2416.536 -771.184)" fill="#f2f2f2"/><path d="M2546.991,897.952l-58.535-.1a1.993,1.993,0,0,0-.007,3.987l58.535.1a1.993,1.993,0,1,0,.007-3.987Z" transform="translate(-2416.536 -714.803)" fill="#f2f2f2"/></g><g transform="translate(20.154 110.44)"><rect width="60.438" height="39.756" fill="#f2f2f2"/><g transform="translate(19.646 11.793)"><path d="M2333.531,643.487h-17.414a1.833,1.833,0,0,1-1.866-1.8V629.183a1.832,1.832,0,0,1,1.8-1.866h17.481a1.832,1.832,0,0,1,1.866,1.8c0,.023,0,.045,0,.068v12.438a1.833,1.833,0,0,1-1.8,1.866Zm-17.414-14.926a.588.588,0,0,0-.623.551c0,.024,0,.048,0,.072v12.438a.588.588,0,0,0,.551.622.631.631,0,0,0,.071,0h17.414a.588.588,0,0,0,.622-.551.571.571,0,0,0,0-.071V629.183a.588.588,0,0,0-.551-.622.652.652,0,0,0-.071,0Z" transform="translate(-2314.251 -627.317)" fill="#c9c9c9"/><path d="M2356.246,641.072a2.488,2.488,0,1,1,2.488-2.488h0A2.5,2.5,0,0,1,2356.246,641.072Zm0-3.732a1.244,1.244,0,1,0,1.244,1.244h0A1.248,1.248,0,0,0,2356.246,637.34Z" transform="translate(-2342.563 -633.608)" fill="#c9c9c9"/><path d="M2331.7,655.255l-10.138-9.516-5.783,5.348-.87-.87,6.655-6.219,11.008,10.386Z" transform="translate(-2314.725 -639.271)" fill="#c9c9c9"/><path d="M2367.748,661.738,2364.388,659l-2.8,2.3-.808-1,3.606-2.923,4.105,3.359Z" transform="translate(-2347.597 -648.864)" fill="#c9c9c9"/></g></g><path d="M.971-3.263C.971-3,.9-2.639.9-2.355a.455.455,0,0,0,.5.494H1.6v-.264H1.458c-.167,0-.257-.07-.257-.25,0-.254.063-.621.063-.9A.428.428,0,0,0,.9-3.731v-.007a.423.423,0,0,0,.361-.454c0-.277-.063-.645-.063-.9,0-.18.09-.25.257-.25H1.6V-5.6H1.4a.455.455,0,0,0-.5.494c0,.284.067.648.067.908,0,.167-.09.3-.341.351v.237C.88-3.567.971-3.43.971-3.263Zm1-.387A1.142,1.142,0,0,0,3.128-2.465a1.1,1.1,0,0,0,1.079-.7H3.843a.735.735,0,0,1-.715.434.844.844,0,0,1-.852-.922.845.845,0,0,1,.852-.925.732.732,0,0,1,.715.437h.364a1.1,1.1,0,0,0-1.079-.7A1.148,1.148,0,0,0,1.966-3.65ZM4.657-2.485h.3V-4.956h-.3Zm.822,0h.3v-1.83h-.3Zm.157-2.127a.2.2,0,0,0,.2-.207.2.2,0,0,0-.2-.207.2.2,0,0,0-.207.207A.2.2,0,0,0,5.636-4.612Zm1.443.524a.537.537,0,0,1,.578.554H6.5A.567.567,0,0,1,7.079-4.088Zm.855,1.039H7.606a.5.5,0,0,1-.514.337A.575.575,0,0,1,6.5-3.286H7.96a1.647,1.647,0,0,0,.01-.184.839.839,0,0,0-.878-.875.871.871,0,0,0-.905.942.882.882,0,0,0,.905.948A.823.823,0,0,0,7.934-3.049Zm1.777.564h.3V-3.564a.71.71,0,0,0-.748-.785.676.676,0,0,0-.588.294v-.26h-.3v1.83h.3V-3.5c0-.394.214-.588.524-.588s.511.19.511.564Zm.865-.5c0,.367.184.5.508.5h.274v-.257h-.224c-.187,0-.254-.063-.254-.244V-4.065h.478v-.25h-.478v-.461h-.3v.461h-.237v.25h.237Zm1.446.314a.2.2,0,0,0-.2-.207.2.2,0,0,0-.207.207.2.2,0,0,0,.207.207A.2.2,0,0,0,12.021-2.672Zm1.93-2.144v1.85l-1.222-1.85h-.3v2.331h.3V-4.338l1.222,1.853h.3V-4.816Zm.708,1.409a.88.88,0,0,0,.865.952.764.764,0,0,0,.685-.371v.341h.307v-1.83h-.307v.334a.759.759,0,0,0-.681-.364A.867.867,0,0,0,14.659-3.407Zm1.55,0a.626.626,0,0,1-.621.681.627.627,0,0,1-.618-.685.618.618,0,0,1,.618-.675A.627.627,0,0,1,16.209-3.4Zm3.463.918h.3V-3.564a.708.708,0,0,0-.741-.785.677.677,0,0,0-.648.407.689.689,0,0,0-.671-.407.662.662,0,0,0-.578.3v-.264h-.3v1.83h.3V-3.493c0-.394.21-.591.518-.591s.5.19.5.564v1.035h.3V-3.493c0-.394.21-.591.518-.591s.5.19.5.564Zm1.576-1.6a.537.537,0,0,1,.578.554H20.671A.567.567,0,0,1,21.248-4.088ZM22.1-3.049h-.327a.5.5,0,0,1-.514.337.575.575,0,0,1-.594-.574H22.13a1.648,1.648,0,0,0,.01-.184.839.839,0,0,0-.878-.875.871.871,0,0,0-.905.942.882.882,0,0,0,.905.948A.823.823,0,0,0,22.1-3.049Zm1.032-.214c0,.26.067.624.067.908a.455.455,0,0,1-.5.494h-.194v-.264h.137c.167,0,.257-.07.257-.25,0-.254-.063-.621-.063-.9a.428.428,0,0,1,.361-.458v-.007a.423.423,0,0,1-.361-.454c0-.277.063-.645.063-.9,0-.18-.09-.25-.257-.25h-.137V-5.6H22.7a.455.455,0,0,1,.5.494c0,.284-.067.648-.067.908,0,.167.09.3.341.351v.237C23.225-3.567,23.135-3.43,23.135-3.263Z" transform="translate(23.155 60.421)" fill="#002f4f"/><path d="M4.7-7.474c0,.568-.31.909-.971.909H2.634v-1.8H3.728C4.389-8.362,4.7-8.011,4.7-7.474ZM.868-9.828V-2.58H2.634V-5.316h.423L4.564-2.58H6.557L4.885-5.45A2.11,2.11,0,0,0,6.5-7.546c0-1.26-.888-2.282-2.664-2.282ZM7.6-2.58H9.366V-5.512h2.21V-6.885H9.366V-8.413h2.953V-9.828H7.6Zm7.414-4.006V-8.4h.96c.7,0,1,.351,1,.909s-.3.909-1,.909Zm3.758-.909c0-1.332-.888-2.333-2.664-2.333h-2.86V-2.58h1.766v-2.6h1.094C17.956-5.182,18.772-6.3,18.772-7.495Zm6.939.021c0,.568-.31.909-.971.909H23.645v-1.8H24.74C25.4-8.362,25.711-8.011,25.711-7.474ZM21.88-9.828V-2.58h1.766V-5.316h.423L25.576-2.58h1.993L25.9-5.45a2.11,2.11,0,0,0,1.611-2.1c0-1.26-.888-2.282-2.664-2.282Zm9.272,2.819a1,1,0,0,1,1.084.991h-2.21A1.092,1.092,0,0,1,31.152-7.009ZM33.909-4.49H32.03a.939.939,0,0,1-.919.558,1.068,1.068,0,0,1-1.094-1.1h4a4.461,4.461,0,0,0,.031-.516,2.715,2.715,0,0,0-2.87-2.87,2.767,2.767,0,0,0-2.912,2.963A2.778,2.778,0,0,0,31.173-2.5,2.693,2.693,0,0,0,33.909-4.49Zm5.741.237C39.619-6.4,36.5-5.75,36.5-6.669c0-.279.227-.444.64-.444a.759.759,0,0,1,.847.65h1.631a2.176,2.176,0,0,0-2.426-1.962c-1.507,0-2.344.805-2.344,1.786,0,2.117,3.139,1.445,3.139,2.375,0,.258-.237.465-.692.465a.809.809,0,0,1-.888-.671H34.662C34.745-3.354,35.778-2.5,37.316-2.5,38.762-2.5,39.65-3.251,39.65-4.253ZM42.5-7.526v-.816H40.734V.167H42.5V-3.385a2.072,2.072,0,0,0,1.776.888c1.415,0,2.54-1.156,2.54-2.974a2.652,2.652,0,0,0-2.54-2.953A2.031,2.031,0,0,0,42.5-7.526Zm2.519,2.055a1.3,1.3,0,0,1-1.27,1.435,1.292,1.292,0,0,1-1.26-1.425,1.292,1.292,0,0,1,1.26-1.425A1.284,1.284,0,0,1,45.019-5.471Zm8.363.01a2.842,2.842,0,0,0-2.994-2.963,2.848,2.848,0,0,0-2.994,2.963A2.826,2.826,0,0,0,50.367-2.5,2.859,2.859,0,0,0,53.382-5.461Zm-4.192,0c0-.981.558-1.435,1.2-1.435.62,0,1.2.454,1.2,1.435a1.261,1.261,0,0,1-1.218,1.435C49.727-4.025,49.19-4.49,49.19-5.461ZM58.3-2.58h1.755V-5.946A2.18,2.18,0,0,0,57.832-8.4a2.113,2.113,0,0,0-1.745.826v-.764H54.322V-2.58h1.766V-5.708a1.07,1.07,0,0,1,1.1-1.218,1.07,1.07,0,0,1,1.1,1.218Zm7.661-1.673c-.031-2.148-3.149-1.5-3.149-2.416,0-.279.227-.444.64-.444a.759.759,0,0,1,.847.65h1.631A2.176,2.176,0,0,0,63.5-8.424c-1.507,0-2.344.805-2.344,1.786,0,2.117,3.139,1.445,3.139,2.375,0,.258-.237.465-.692.465a.809.809,0,0,1-.888-.671H60.971C61.054-3.354,62.086-2.5,63.625-2.5,65.07-2.5,65.958-3.251,65.958-4.253Zm3.624-2.757a1,1,0,0,1,1.084.991h-2.21A1.092,1.092,0,0,1,69.582-7.009ZM72.339-4.49H70.46a.939.939,0,0,1-.919.558,1.068,1.068,0,0,1-1.094-1.1h4a4.463,4.463,0,0,0,.031-.516,2.715,2.715,0,0,0-2.87-2.87,2.767,2.767,0,0,0-2.912,2.963A2.778,2.778,0,0,0,69.6-2.5,2.693,2.693,0,0,0,72.339-4.49Z" transform="translate(19.082 28.206)" fill="#002f4f"/><path d="M.9-2.085c0,.288-.074.69-.074,1a.5.5,0,0,0,.549.546h.214V-.828H1.44c-.184,0-.284-.077-.284-.277,0-.28.07-.686.07-.992a.473.473,0,0,0-.4-.505v-.007a.467.467,0,0,0,.4-.5c0-.306-.07-.712-.07-.992,0-.2.1-.277.284-.277h.151V-4.67H1.377a.5.5,0,0,0-.549.546c0,.313.074.715.074,1,0,.184-.1.336-.376.387v.262C.8-2.421.9-2.269.9-2.085ZM3.5-3.04c0,.288-.166.494-.546.494H2.461V-3.52h.494C3.339-3.52,3.5-3.331,3.5-3.04ZM2.125-3.8v2.57h.336V-2.277h.406l.612,1.051h.4L3.235-2.3a.725.725,0,0,0,.612-.737c0-.42-.288-.756-.892-.756Zm2.242,2.57H4.7V-2.384H5.61v-.273H4.7v-.867H5.82V-3.8H4.367Zm2.194-1.35V-3.52h.494c.384,0,.546.177.546.476s-.162.468-.546.468Zm1.383-.468c0-.42-.284-.752-.889-.752h-.83v2.57h.336V-2.3h.494C7.694-2.3,7.944-2.653,7.944-3.044Zm.745,1.611a.224.224,0,0,0-.221-.229.225.225,0,0,0-.229.229.225.225,0,0,0,.229.229A.224.224,0,0,0,8.689-1.432Zm.321-1.08A1.261,1.261,0,0,0,10.293-1.2a1.209,1.209,0,0,0,1.191-.771h-.4a.811.811,0,0,1-.789.479.932.932,0,0,1-.94-1.018.933.933,0,0,1,.94-1.021.809.809,0,0,1,.789.483h.4a1.21,1.21,0,0,0-1.191-.778A1.267,1.267,0,0,0,9.01-2.513Zm3.308.188c0-.468.243-.612.564-.612h.089v-.347a.681.681,0,0,0-.653.365v-.328h-.336v2.021h.336ZM14.217-3a.593.593,0,0,1,.638.612H13.579A.626.626,0,0,1,14.217-3Zm.944,1.147H14.8a.555.555,0,0,1-.568.372.635.635,0,0,1-.656-.634h1.615a1.819,1.819,0,0,0,.011-.2.926.926,0,0,0-.97-.966.962.962,0,0,0-1,1.04.973.973,0,0,0,1,1.047A.909.909,0,0,0,15.161-1.849Zm.358-.395a.972.972,0,0,0,.955,1.051A.844.844,0,0,0,17.23-1.6v.376h.339V-3.247H17.23v.369a.839.839,0,0,0-.752-.4A.958.958,0,0,0,15.519-2.244Zm1.711,0a.691.691,0,0,1-.686.752.692.692,0,0,1-.682-.756.682.682,0,0,1,.682-.745A.692.692,0,0,1,17.23-2.24Zm.981.461c0,.406.2.553.561.553h.3V-1.51h-.247c-.207,0-.28-.07-.28-.269V-2.97h.527v-.277h-.527v-.509h-.336v.509h-.262v.277h.262ZM20.338-3a.593.593,0,0,1,.638.612H19.7A.626.626,0,0,1,20.338-3Zm.944,1.147h-.361a.555.555,0,0,1-.568.372.635.635,0,0,1-.656-.634h1.615a1.819,1.819,0,0,0,.011-.2.926.926,0,0,0-.97-.966.962.962,0,0,0-1,1.04.973.973,0,0,0,1,1.047A.909.909,0,0,0,21.282-1.849Zm.811.417a.224.224,0,0,0-.221-.229.225.225,0,0,0-.229.229.225.225,0,0,0,.229.229A.224.224,0,0,0,22.094-1.432ZM23.34-3.8h-.8v2.57h.8A1.223,1.223,0,0,0,24.7-2.505,1.231,1.231,0,0,0,23.34-3.8ZM22.875-1.5V-3.523h.465a.927.927,0,0,1,1.021,1.018.916.916,0,0,1-1.021,1Zm2.146-.741a.972.972,0,0,0,.955,1.051.844.844,0,0,0,.756-.409v.376h.339V-3.247h-.339v.369a.839.839,0,0,0-.752-.4A.958.958,0,0,0,25.022-2.244Zm1.711,0a.691.691,0,0,1-.686.752.692.692,0,0,1-.682-.756.682.682,0,0,1,.682-.745A.692.692,0,0,1,26.733-2.24Zm.981.461c0,.406.2.553.561.553h.3V-1.51h-.247c-.207,0-.28-.07-.28-.269V-2.97h.527v-.277h-.527v-.509h-.336v.509h-.262v.277h.262ZM29.841-3a.593.593,0,0,1,.638.612H29.2A.626.626,0,0,1,29.841-3Zm.944,1.147h-.361a.555.555,0,0,1-.568.372.635.635,0,0,1-.656-.634h1.615a1.819,1.819,0,0,0,.011-.2.926.926,0,0,0-.97-.966.962.962,0,0,0-1,1.04.973.973,0,0,0,1,1.047A.909.909,0,0,0,30.785-1.849Zm1.139-.236c0,.288.074.69.074,1a.5.5,0,0,1-.549.546h-.214V-.828h.151c.184,0,.284-.077.284-.277,0-.28-.07-.686-.07-.992A.473.473,0,0,1,32-2.6v-.007a.467.467,0,0,1-.4-.5c0-.306.07-.712.07-.992,0-.2-.1-.277-.284-.277h-.151V-4.67h.214A.5.5,0,0,1,32-4.124c0,.313-.074.715-.074,1,0,.184.1.336.376.387v.262C32.024-2.421,31.925-2.269,31.925-2.085Z" transform="translate(22.86 45.164)" fill="#002f4f"/></g></g><g transform="translate(160.943 222.846)"><path d="M633.956,695.242H594.078V655.364h38.461l4.622-4.573H589.505v49.024h49.024V667.381l-4.573,4.552Z" transform="translate(-589.505 -648.208)" fill="#126dae"/><path d="M606.514,665.563l-4.969,4.969,16.186,16.186.014-.014.014.014,34.748-34.749L647.538,647l-29.793,29.793Z" transform="translate(-593.34 -647)" fill="#ffa172"/></g></g></g><g transform="translate(-21787.795 -4936.621)"><rect width="67.382" height="50.468" transform="translate(0 0)" fill="#126dae"/><g transform="translate(19.307 13.164)"><path d="M8.482-53.434H9.528l-2.735-7.55H5.65L2.9-53.434H3.95l.61-1.689H7.872Zm-.893-2.495H4.843l1.373-3.835Z" transform="translate(9.095 64.719)" fill="#fff"/><path d="M10.287-78.116h2.846L9.139-89.154H6.026L2.032-78.116H4.846l.66-1.95h4.12ZM8.935-82.141H6.214l1.352-4.041Z" transform="translate(-1.78 89.154)" fill="#fff"/><path d="M2495.777,650.471l-4.116-.007a.437.437,0,0,0,0,.873l4.116.007a.436.436,0,1,0,0-.873Z" transform="translate(-2490.961 -633.478)" fill="#fff"/><path d="M2495.777,600.471l-4.116-.007a.436.436,0,0,0,0,.873l4.116.007a.436.436,0,1,0,0-.873Z" transform="translate(-2490.961 -586.58)" fill="#fff"/><path d="M2593.535,600.471l-2.875-.007a.436.436,0,1,0,0,.873l2.875.007a.436.436,0,1,0,0-.873Z" transform="translate(-2583.818 -586.58)" fill="#fff"/><path d="M2687.46,600.427,2671.3,600.4a.436.436,0,0,0-.437.436h0a.436.436,0,0,0,.435.437l16.158.026a.436.436,0,1,0,0-.873Z" transform="translate(-2659.558 -586.521)" fill="#fff"/><path d="M2630.814,649.959l-21.013-.033a.437.437,0,1,0,0,.873l21.013.032a.437.437,0,1,0,0-.873Z" transform="translate(-2602.936 -632.973)" fill="#fff"/><path d="M2514.99,699.4l-16.158-.026h0l-11.39-.018a.436.436,0,0,0,0,.873l13.495.022h0l14.053.023a.436.436,0,0,0,0-.873Z" transform="translate(-2487.005 -679.335)" fill="#fff"/><path d="M2514.99,699.4l-16.158-.026h0l-11.39-.018a.436.436,0,0,0,0,.873l13.495.022h0l14.053.023a.436.436,0,0,0,0-.873Z" transform="translate(-2487.005 -676.263)" fill="#fff"/></g></g><g transform="translate(-21994.473 -4770.838)"><rect width="67.382" height="50.838" transform="translate(0 0)" fill="#126dae"/><g transform="translate(18.711 10.812)"><path d="M710.259,314.256l-5.627,3.249a14.743,14.743,0,0,0,24.946,0l-5.936-3.427-6.537-3.774Z" transform="translate(-702.357 -294.903)" fill="#fff"/><path d="M921.474,90.7A14.749,14.749,0,0,0,909,69.088V83.493l6.974,4.027Z" transform="translate(-893.677 -69.088)" fill="#fff"/><path d="M683.174,69.088A14.746,14.746,0,0,0,670.7,90.7l5.026-2.9,7.449-4.3Z" transform="translate(-669 -69.088)" fill="#fff"/></g></g><g transform="translate(-21787.795 -4770.838)"><rect width="67.382" height="50.838" transform="translate(0 0)" fill="#126dae"/><g transform="translate(17.491 9.22)"><path d="M454.831,469.929a6.225,6.225,0,0,0-2.8-1.566,13.563,13.563,0,0,0-.35-3.946c1.24-.567,2.489-1.294,2.593-1.961.21-1.354-1.854-4.456-2.378-4.706a6.383,6.383,0,0,0-3.163.909,13.546,13.546,0,0,0-2.964-2.57c.479-1.281.85-2.684.45-3.231-.808-1.106-4.462-1.839-5.009-1.646a6.2,6.2,0,0,0-1.561,2.784,13.547,13.547,0,0,0-4.012.23c-.557-1.2-1.257-2.36-1.9-2.459-1.354-.211-4.456,1.854-4.706,2.378a5.769,5.769,0,0,0,.766,2.863,13.575,13.575,0,0,0-2.813,3.125c-1.166-.405-2.353-.671-2.845-.311-1.106.808-1.839,4.462-1.646,5.009a5.349,5.349,0,0,0,2.349,1.4,13.582,13.582,0,0,0,.27,4.364c-1.044.521-1.975,1.137-2.064,1.709-.21,1.354,1.854,4.456,2.378,4.706a5.172,5.172,0,0,0,2.566-.634,13.565,13.565,0,0,0,3.359,2.868c-.369,1.1-.589,2.193-.248,2.658.809,1.106,4.462,1.839,5.009,1.646a5.357,5.357,0,0,0,1.4-2.358,13.572,13.572,0,0,0,4.289-.4c.536,1.1,1.183,2.114,1.78,2.207,1.354.21,4.456-1.854,4.706-2.378a5.809,5.809,0,0,0-.775-2.883,13.552,13.552,0,0,0,2.617-3.178c1.23.445,2.53.765,3.051.384C454.291,474.129,455.024,470.476,454.831,469.929Zm-18.32,3.442a6.1,6.1,0,1,1,7.7-3.89A6.1,6.1,0,0,1,436.511,473.371Z" transform="translate(-422.463 -451.18)" fill="#fff"/><g transform="translate(7.36 7.604)"><path d="M438.877,478.9a8.68,8.68,0,1,1,10.956-5.536A8.69,8.69,0,0,1,438.877,478.9Zm5.381-16.374a8.556,8.556,0,1,0,5.458,10.8A8.566,8.566,0,0,0,444.258,462.521Z" transform="translate(-432.906 -461.969)" fill="#126dae"/></g><g transform="translate(3.705 3.832)"><path d="M452.541,476.326c-.052-.024-.1-.049-.155-.075a12.44,12.44,0,0,1-24.495,1.6h0c-.057-.006-.113-.013-.17-.023a12.6,12.6,0,0,0,24.821-1.5Z" transform="translate(-427.72 -462.414)" fill="#126dae"/><path d="M439.244,457.5a12.379,12.379,0,0,1,8.042-.1c.053.018.1.038.157.056,0-.057,0-.114,0-.171-.035-.013-.07-.027-.106-.038a12.538,12.538,0,0,0-8.115.091C439.229,457.394,439.237,457.448,439.244,457.5Z" transform="translate(-431.116 -456.618)" fill="#126dae"/></g></g></g></g></svg>