<svg xmlns="http://www.w3.org/2000/svg" xmlns:xlink="http://www.w3.org/1999/xlink" width="536.869" height="565" viewBox="0 0 536.869 565"><defs><filter id="a" x="76.5" y="52.5" width="368" height="416" filterUnits="userSpaceOnUse"><feOffset dx="6" dy="6" input="SourceAlpha"/><feGaussianBlur stdDeviation="12" result="b"/><feFlood flood-opacity="0.102"/><feComposite operator="in" in2="b"/><feComposite in="SourceGraphic"/></filter><filter id="c" x="0" y="0" width="381.912" height="400.667" filterUnits="userSpaceOnUse"><feOffset dx="6" dy="6" input="SourceAlpha"/><feGaussianBlur stdDeviation="12" result="d"/><feFlood flood-opacity="0.102"/><feComposite operator="in" in2="d"/><feComposite in="SourceGraphic"/></filter><filter id="e" x="154.957" y="164.333" width="381.912" height="400.667" filterUnits="userSpaceOnUse"><feOffset dx="6" dy="6" input="SourceAlpha"/><feGaussianBlur stdDeviation="12" result="f"/><feFlood flood-opacity="0.102"/><feComposite operator="in" in2="f"/><feComposite in="SourceGraphic"/></filter></defs><g transform="translate(-789 -137)"><g transform="matrix(1, 0, 0, 1, 789, 137)" filter="url(#a)"><rect width="295" height="343" transform="translate(107 83)" fill="none" stroke="#132849" stroke-miterlimit="10" stroke-width="1" stroke-dasharray="10 10"/></g><g transform="translate(819 167)"><g transform="translate(0 0)"><g transform="matrix(1, 0, 0, 1, -30, -30)" filter="url(#c)"><path d="M0,0H309.911V328.667H0Z" transform="translate(30 30)" fill="#fff"/></g><rect width="85.122" height="15.597" transform="translate(22.357 47.551)" fill="#ebf5ff"/><rect width="63.503" height="15.597" transform="translate(22.357 66.187)" fill="#ebf5ff"/><text transform="translate(30.07 75.815)" fill="#002f4f" font-size="5" font-family="Poppins-Regular, Poppins"><tspan x="0" y="0">{Client.Name}</tspan></text><g transform="translate(24.473 94.648)"><path d="M2243.531,456.05l71.5.116a2.613,2.613,0,0,0,2.617-2.608h0a2.613,2.613,0,0,0-2.608-2.617l-71.5-.116a2.613,2.613,0,0,0-2.617,2.608h0A2.613,2.613,0,0,0,2243.531,456.05Z" transform="translate(-2240.467 -450.825)" fill="#f2f2f2"/><path d="M2490.293,456.451l68.178.111h0l96.712.157a2.612,2.612,0,1,0,.008-5.225l-96.711-.157-68.177-.111a2.612,2.612,0,0,0-.009,5.225Z" transform="translate(-2395.592 -451.077)" fill="#f2f2f2"/><path d="M2243.394,505.676l100.992.164a2.612,2.612,0,1,0,.009-5.225l-100.993-.164a2.612,2.612,0,0,0-.008,5.225Z" transform="translate(-2240.382 -482.022)" fill="#f2f2f2"/><path d="M2569.995,500.98a2.613,2.613,0,0,0-2.617,2.608h0a2.613,2.613,0,0,0,2.608,2.617l94.134.153a2.613,2.613,0,0,0,2.617-2.608h0a2.612,2.612,0,0,0-2.608-2.617Z" transform="translate(-2445.689 -482.354)" fill="#f2f2f2"/><path d="M2892.476,501.5l-24.635-.04a2.613,2.613,0,1,0-.009,5.225l24.635.04a2.612,2.612,0,1,0,.009-5.225Z" transform="translate(-2632.927 -482.659)" fill="#f2f2f2"/><path d="M2518.476,650.5l-24.635-.04a2.613,2.613,0,1,0-.008,5.225l24.635.04a2.612,2.612,0,1,0,.009-5.225Z" transform="translate(-2397.817 -576.326)" fill="#f2f2f2"/><path d="M2518.476,600.5l-24.635-.04a2.613,2.613,0,0,0-.008,5.225l24.635.04a2.612,2.612,0,1,0,.009-5.225Z" transform="translate(-2397.817 -544.894)" fill="#f2f2f2"/><path d="M2610.049,600.5l-17.208-.04a2.613,2.613,0,0,0-.008,5.225l17.208.04a2.612,2.612,0,0,0,.008-5.225Z" transform="translate(-2460.051 -544.894)" fill="#f2f2f2"/><path d="M2243.257,555.3l96.653.157a2.613,2.613,0,1,0,.008-5.225l-96.653-.157a2.613,2.613,0,0,0-.008,5.225Z" transform="translate(-2240.295 -513.218)" fill="#f2f2f2"/><path d="M2699.253,550.817l-116.191-.189h-.007l-22.5-.036a2.612,2.612,0,1,0-.009,5.225l15.489.025h.006l123.2.2a2.612,2.612,0,1,0,.009-5.225Z" transform="translate(-2439.755 -513.542)" fill="#f2f2f2"/><path d="M2770.193,600.558l-96.712-.157a2.611,2.611,0,0,0-2.616,2.608h0a2.612,2.612,0,0,0,2.608,2.617l96.711.157a2.612,2.612,0,1,0,.009-5.225Z" transform="translate(-2510.746 -544.854)" fill="#f2f2f2"/><path d="M2731.466,650.12l-119.509-.194a2.613,2.613,0,0,0-.009,5.225l119.509.194a2.612,2.612,0,1,0,.008-5.225Z" transform="translate(-2472.07 -575.988)" fill="#f2f2f2"/><path d="M2654.511,699.621l-96.712-.157h0l-68.176-.111a2.613,2.613,0,0,0-.008,5.225l80.772.131h0l84.115.137a2.613,2.613,0,0,0,.009-5.225Z" transform="translate(-2395.164 -607.06)" fill="#f2f2f2"/><path d="M2242.713,753.8l40.113.065h.005l62.988.1a2.613,2.613,0,1,0,.009-5.225l-31.6-.051h0l-71.5-.116a2.613,2.613,0,0,0-.009,5.225Z" transform="translate(-2239.954 -638.005)" fill="#f2f2f2"/><path d="M2701.991,749.325l-136.76-.222a2.613,2.613,0,0,0-.009,5.225l136.761.222a2.613,2.613,0,0,0,.008-5.225Z" transform="translate(-2442.696 -638.334)" fill="#f2f2f2"/><path d="M2242.577,803.43l71.5.115a2.611,2.611,0,0,0,2.616-2.608h0a2.612,2.612,0,0,0-2.608-2.617l-71.5-.116a2.612,2.612,0,0,0-2.617,2.608h0A2.612,2.612,0,0,0,2242.577,803.43Z" transform="translate(-2239.868 -669.202)" fill="#f2f2f2"/><path d="M2654.238,798.873l-96.712-.157h0l-68.176-.111a2.613,2.613,0,0,0-.009,5.225l76.712.124h0l88.177.143a2.612,2.612,0,0,0,.009-5.225Z" transform="translate(-2394.993 -669.453)" fill="#f2f2f2"/><path d="M2242.441,853.056l46.456.075h0l93.87.152a2.613,2.613,0,0,0,.009-5.225l-68.823-.111h0l-71.5-.116a2.613,2.613,0,0,0-2.616,2.609h0A2.612,2.612,0,0,0,2242.441,853.056Z" transform="translate(-2239.782 -700.398)" fill="#f2f2f2"/><path d="M2769.512,848.686l-96.711-.157a2.613,2.613,0,0,0-2.617,2.608h0a2.613,2.613,0,0,0,2.609,2.617l96.711.157a2.612,2.612,0,1,0,.008-5.225Z" transform="translate(-2510.318 -700.837)" fill="#f2f2f2"/><path d="M2313.816,897.572l-71.5-.116a2.613,2.613,0,0,0-2.616,2.609h0a2.613,2.613,0,0,0,2.608,2.617l71.5.116a2.613,2.613,0,0,0,2.617-2.608h0A2.613,2.613,0,0,0,2313.816,897.572Z" transform="translate(-2239.697 -731.595)" fill="#f2f2f2"/><path d="M2565.789,897.981l-76.712-.125a2.612,2.612,0,0,0-.009,5.225l76.712.125a2.612,2.612,0,0,0,.009-5.225Z" transform="translate(-2394.822 -731.847)" fill="#f2f2f2"/></g><g transform="translate(26.413 144.735)"><rect width="79.206" height="52.102" fill="#f2f2f2"/><g transform="translate(25.747 15.455)"><path d="M2339.519,648.508H2316.7a2.4,2.4,0,0,1-2.446-2.357q0-.044,0-.088v-16.3a2.4,2.4,0,0,1,2.357-2.445h22.91a2.4,2.4,0,0,1,2.445,2.357c0,.029,0,.059,0,.088v16.3a2.4,2.4,0,0,1-2.357,2.445ZM2316.7,628.947a.77.77,0,0,0-.815.722.857.857,0,0,0,0,.094v16.3a.77.77,0,0,0,.722.815.82.82,0,0,0,.093,0h22.822a.77.77,0,0,0,.815-.722.84.84,0,0,0,0-.093v-16.3a.771.771,0,0,0-.723-.815.78.78,0,0,0-.093,0Z" transform="translate(-2314.251 -627.317)" fill="#c9c9c9"/><path d="M2357.019,642.617a3.26,3.26,0,1,1,3.26-3.26h0A3.27,3.27,0,0,1,2357.019,642.617Zm0-4.891a1.63,1.63,0,1,0,1.63,1.63h0A1.636,1.636,0,0,0,2357.019,637.726Z" transform="translate(-2339.087 -632.836)" fill="#c9c9c9"/><path d="M2336.918,658.751l-13.286-12.471-7.579,7.009-1.141-1.14,8.721-8.151,14.427,13.611Z" transform="translate(-2314.667 -637.803)" fill="#c9c9c9"/><path d="M2369.911,663.09l-4.4-3.586-3.667,3.015-1.06-1.3,4.727-3.831,5.38,4.4Z" transform="translate(-2343.502 -646.218)" fill="#c9c9c9"/></g></g><path d="M6.062-6.636c0,.77-.42,1.232-1.316,1.232H3.262V-7.84H4.746C5.642-7.84,6.062-7.364,6.062-6.636ZM.868-9.828V0H3.262V-3.71h.574L5.88,0h2.7L6.314-3.892A2.861,2.861,0,0,0,8.5-6.734c0-1.708-1.2-3.094-3.612-3.094ZM10,0H12.39V-3.976h3V-5.838h-3V-7.91h4V-9.828H10ZM20.048-5.432V-7.9h1.3c.952,0,1.358.476,1.358,1.232S22.3-5.432,21.35-5.432Zm5.1-1.232c0-1.806-1.2-3.164-3.612-3.164H17.654V0h2.394V-3.528h1.484C24.038-3.528,25.144-5.04,25.144-6.664Zm9.408.028c0,.77-.42,1.232-1.316,1.232H31.752V-7.84h1.484C34.132-7.84,34.552-7.364,34.552-6.636ZM29.358-9.828V0h2.394V-3.71h.574L34.37,0h2.7L34.8-3.892a2.861,2.861,0,0,0,2.184-2.842c0-1.708-1.2-3.094-3.612-3.094ZM41.93-6.006A1.351,1.351,0,0,1,43.4-4.662h-3A1.481,1.481,0,0,1,41.93-6.006ZM45.668-2.59H43.12a1.273,1.273,0,0,1-1.246.756,1.448,1.448,0,0,1-1.484-1.5h5.418a6.05,6.05,0,0,0,.042-.7,3.681,3.681,0,0,0-3.892-3.892A3.752,3.752,0,0,0,38.01-3.906,3.766,3.766,0,0,0,41.958.112,3.651,3.651,0,0,0,45.668-2.59Zm7.784.322c-.042-2.912-4.27-2.03-4.27-3.276,0-.378.308-.6.868-.6a1.03,1.03,0,0,1,1.148.882H53.41c-.154-1.54-1.274-2.66-3.29-2.66-2.044,0-3.178,1.092-3.178,2.422,0,2.87,4.256,1.96,4.256,3.22,0,.35-.322.63-.938.63a1.1,1.1,0,0,1-1.2-.91H46.69C46.8-1.05,48.2.112,50.288.112,52.248.112,53.452-.91,53.452-2.268Zm3.864-4.438V-7.812H54.922V3.724h2.394V-1.092a2.81,2.81,0,0,0,2.408,1.2c1.918,0,3.444-1.568,3.444-4.032s-1.526-4-3.444-4A2.754,2.754,0,0,0,57.316-6.706ZM60.732-3.92A1.767,1.767,0,0,1,59.01-1.974,1.752,1.752,0,0,1,57.3-3.906,1.752,1.752,0,0,1,59.01-5.838,1.742,1.742,0,0,1,60.732-3.92Zm11.34.014a3.854,3.854,0,0,0-4.06-4.018,3.861,3.861,0,0,0-4.06,4.018A3.832,3.832,0,0,0,67.984.112,3.876,3.876,0,0,0,72.072-3.906Zm-5.684,0c0-1.33.756-1.946,1.624-1.946.84,0,1.624.616,1.624,1.946A1.71,1.71,0,0,1,67.984-1.96C67.116-1.96,66.388-2.59,66.388-3.906ZM78.736,0h2.38V-4.564c0-2.1-1.2-3.332-3.01-3.332a2.865,2.865,0,0,0-2.366,1.12V-7.812H73.346V0H75.74V-4.242a1.451,1.451,0,0,1,1.5-1.652,1.451,1.451,0,0,1,1.5,1.652ZM89.124-2.268c-.042-2.912-4.27-2.03-4.27-3.276,0-.378.308-.6.868-.6a1.03,1.03,0,0,1,1.148.882h2.212c-.154-1.54-1.274-2.66-3.29-2.66-2.044,0-3.178,1.092-3.178,2.422,0,2.87,4.256,1.96,4.256,3.22,0,.35-.322.63-.938.63a1.1,1.1,0,0,1-1.2-.91H82.362C82.474-1.05,83.874.112,85.96.112,87.92.112,89.124-.91,89.124-2.268Zm4.914-3.738a1.351,1.351,0,0,1,1.47,1.344h-3A1.481,1.481,0,0,1,94.038-6.006ZM97.776-2.59H95.228a1.273,1.273,0,0,1-1.246.756,1.448,1.448,0,0,1-1.484-1.5h5.418a6.05,6.05,0,0,0,.042-.7,3.681,3.681,0,0,0-3.892-3.892,3.752,3.752,0,0,0-3.948,4.018A3.766,3.766,0,0,0,94.066.112,3.651,3.651,0,0,0,97.776-2.59Z" transform="translate(25.043 33.667)" fill="#002f4f"/><path d="M1.035-1.165c0,.39-.1.935-.1,1.36a.682.682,0,0,0,.745.74h.29V.54H1.765C1.515.54,1.38.435,1.38.165c0-.38.095-.93.095-1.345a.641.641,0,0,0-.54-.685v-.01a.633.633,0,0,0,.54-.68c0-.415-.095-.965-.095-1.345,0-.27.135-.375.385-.375H1.97V-4.67H1.68a.682.682,0,0,0-.745.74c0,.425.1.97.1,1.36,0,.25-.135.455-.51.525v.355C.9-1.62,1.035-1.415,1.035-1.165ZM4.56-2.46c0,.39-.225.67-.74.67H3.15V-3.11h.67C4.34-3.11,4.56-2.855,4.56-2.46ZM2.695-3.485V0H3.15V-1.425H3.7L4.53,0h.545L4.2-1.46a.983.983,0,0,0,.83-1c0-.57-.39-1.025-1.21-1.025ZM5.735,0H6.19V-1.57H7.42v-.37H6.19V-3.115H7.7v-.37H5.735ZM8.71-1.83V-3.11h.67c.52,0,.74.24.74.645,0,.39-.22.635-.74.635Zm1.875-.635c0-.57-.385-1.02-1.2-1.02H8.255V0H8.71V-1.455h.67C10.245-1.455,10.585-1.935,10.585-2.465ZM11.6-.28a.3.3,0,0,0-.3-.31.305.305,0,0,0-.31.31.305.305,0,0,0,.31.31A.3.3,0,0,0,11.6-.28Zm.435-1.465A1.71,1.71,0,0,0,13.77.03a1.639,1.639,0,0,0,1.615-1.045H14.84a1.1,1.1,0,0,1-1.07.65,1.264,1.264,0,0,1-1.275-1.38A1.266,1.266,0,0,1,13.77-3.13a1.1,1.1,0,0,1,1.07.655h.545A1.64,1.64,0,0,0,13.77-3.53,1.718,1.718,0,0,0,12.03-1.745Zm4.485.255c0-.635.33-.83.765-.83h.12v-.47a.923.923,0,0,0-.885.5V-2.74H16.06V0h.455ZM19.09-2.4a.8.8,0,0,1,.865.83h-1.73A.849.849,0,0,1,19.09-2.4ZM20.37-.845h-.49a.753.753,0,0,1-.77.5.861.861,0,0,1-.89-.86h2.19a2.466,2.466,0,0,0,.015-.275,1.256,1.256,0,0,0-1.315-1.31,1.3,1.3,0,0,0-1.355,1.41A1.32,1.32,0,0,0,19.11.045,1.232,1.232,0,0,0,20.37-.845Zm.485-.535A1.318,1.318,0,0,0,22.15.045,1.144,1.144,0,0,0,23.175-.51V0h.46V-2.74h-.46v.5a1.137,1.137,0,0,0-1.02-.545A1.3,1.3,0,0,0,20.855-1.38Zm2.32,0a.938.938,0,0,1-.93,1.02A.938.938,0,0,1,21.32-1.38a.925.925,0,0,1,.925-1.01A.939.939,0,0,1,23.175-1.375Zm1.33.625c0,.55.275.75.76.75h.41V-.385H25.34c-.28,0-.38-.1-.38-.365V-2.365h.715V-2.74H24.96v-.69h-.455v.69H24.15v.375h.355ZM27.39-2.4a.8.8,0,0,1,.865.83h-1.73A.849.849,0,0,1,27.39-2.4ZM28.67-.845h-.49a.753.753,0,0,1-.77.5.861.861,0,0,1-.89-.86h2.19a2.466,2.466,0,0,0,.015-.275,1.256,1.256,0,0,0-1.315-1.31,1.3,1.3,0,0,0-1.355,1.41A1.32,1.32,0,0,0,27.41.045,1.232,1.232,0,0,0,28.67-.845Zm1.1.565a.3.3,0,0,0-.3-.31.305.305,0,0,0-.31.31.305.305,0,0,0,.31.31A.3.3,0,0,0,29.77-.28Zm1.69-3.205H30.375V0H31.46a1.659,1.659,0,0,0,1.85-1.735A1.67,1.67,0,0,0,31.46-3.485Zm-.63,3.11v-2.74h.63a1.257,1.257,0,0,1,1.385,1.38A1.243,1.243,0,0,1,31.46-.375Zm2.91-1A1.318,1.318,0,0,0,35.035.045,1.144,1.144,0,0,0,36.06-.51V0h.46V-2.74h-.46v.5a1.137,1.137,0,0,0-1.02-.545A1.3,1.3,0,0,0,33.74-1.38Zm2.32,0a.938.938,0,0,1-.93,1.02.938.938,0,0,1-.925-1.025.925.925,0,0,1,.925-1.01A.939.939,0,0,1,36.06-1.375Zm1.33.625c0,.55.275.75.76.75h.41V-.385h-.335c-.28,0-.38-.1-.38-.365V-2.365h.715V-2.74h-.715v-.69H37.39v.69h-.355v.375h.355ZM40.275-2.4a.8.8,0,0,1,.865.83H39.41A.849.849,0,0,1,40.275-2.4Zm1.28,1.555h-.49a.753.753,0,0,1-.77.5.861.861,0,0,1-.89-.86h2.19a2.466,2.466,0,0,0,.015-.275,1.256,1.256,0,0,0-1.315-1.31,1.3,1.3,0,0,0-1.355,1.41A1.32,1.32,0,0,0,40.295.045,1.232,1.232,0,0,0,41.555-.845Zm1.545-.32c0,.39.1.935.1,1.36a.682.682,0,0,1-.745.74h-.29V.54h.2c.25,0,.385-.105.385-.375,0-.38-.1-.93-.1-1.345a.641.641,0,0,1,.54-.685v-.01a.633.633,0,0,1-.54-.68c0-.415.1-.965.1-1.345,0-.27-.135-.375-.385-.375h-.2V-4.67h.29a.682.682,0,0,1,.745.74c0,.425-.1.97-.1,1.36,0,.25.135.455.51.525v.355C43.235-1.62,43.1-1.415,43.1-1.165Z" transform="translate(30.043 56.667)" fill="#002f4f"/></g></g><g transform="translate(973.956 331.333)"><g transform="translate(0 0)"><g transform="matrix(1, 0, 0, 1, -184.96, -194.33)" filter="url(#e)"><path d="M0,0H309.911V328.667H0Z" transform="translate(184.96 194.33)" fill="#fff"/></g><rect width="85.122" height="15.597" transform="translate(22.357 47.551)" fill="#ebf5ff"/><rect width="63.503" height="15.597" transform="translate(22.357 66.187)" fill="#ebf5ff"/><text transform="translate(30.07 75.815)" fill="#002f4f" font-size="5" font-family="Poppins-Regular, Poppins"><tspan x="0" y="0">{Client.Name}</tspan></text><g transform="translate(24.473 94.648)"><path d="M2243.531,456.05l71.5.116a2.613,2.613,0,0,0,2.617-2.608h0a2.613,2.613,0,0,0-2.608-2.617l-71.5-.116a2.613,2.613,0,0,0-2.617,2.608h0A2.613,2.613,0,0,0,2243.531,456.05Z" transform="translate(-2240.467 -450.825)" fill="#f2f2f2"/><path d="M2490.293,456.451l68.178.111h0l96.712.157a2.612,2.612,0,1,0,.008-5.225l-96.711-.157-68.177-.111a2.612,2.612,0,0,0-.009,5.225Z" transform="translate(-2395.592 -451.077)" fill="#f2f2f2"/><path d="M2243.394,505.676l100.992.164a2.612,2.612,0,1,0,.009-5.225l-100.993-.164a2.612,2.612,0,0,0-.008,5.225Z" transform="translate(-2240.382 -482.022)" fill="#f2f2f2"/><path d="M2569.995,500.98a2.613,2.613,0,0,0-2.617,2.608h0a2.613,2.613,0,0,0,2.608,2.617l94.134.153a2.613,2.613,0,0,0,2.617-2.608h0a2.612,2.612,0,0,0-2.608-2.617Z" transform="translate(-2445.689 -482.354)" fill="#f2f2f2"/><path d="M2892.476,501.5l-24.635-.04a2.613,2.613,0,1,0-.009,5.225l24.635.04a2.612,2.612,0,1,0,.009-5.225Z" transform="translate(-2632.927 -482.659)" fill="#f2f2f2"/><path d="M2518.476,650.5l-24.635-.04a2.613,2.613,0,1,0-.008,5.225l24.635.04a2.612,2.612,0,1,0,.009-5.225Z" transform="translate(-2397.817 -576.326)" fill="#f2f2f2"/><path d="M2518.476,600.5l-24.635-.04a2.613,2.613,0,0,0-.008,5.225l24.635.04a2.612,2.612,0,1,0,.009-5.225Z" transform="translate(-2397.817 -544.894)" fill="#f2f2f2"/><path d="M2610.049,600.5l-17.208-.04a2.613,2.613,0,0,0-.008,5.225l17.208.04a2.612,2.612,0,0,0,.008-5.225Z" transform="translate(-2460.051 -544.894)" fill="#f2f2f2"/><path d="M2243.257,555.3l96.653.157a2.613,2.613,0,1,0,.008-5.225l-96.653-.157a2.613,2.613,0,0,0-.008,5.225Z" transform="translate(-2240.295 -513.218)" fill="#f2f2f2"/><path d="M2699.253,550.817l-116.191-.189h-.007l-22.5-.036a2.612,2.612,0,1,0-.009,5.225l15.489.025h.006l123.2.2a2.612,2.612,0,1,0,.009-5.225Z" transform="translate(-2439.755 -513.542)" fill="#f2f2f2"/><path d="M2770.193,600.558l-96.712-.157a2.611,2.611,0,0,0-2.616,2.608h0a2.612,2.612,0,0,0,2.608,2.617l96.711.157a2.612,2.612,0,1,0,.009-5.225Z" transform="translate(-2510.746 -544.854)" fill="#f2f2f2"/><path d="M2731.466,650.12l-119.509-.194a2.613,2.613,0,0,0-.009,5.225l119.509.194a2.612,2.612,0,1,0,.008-5.225Z" transform="translate(-2472.07 -575.988)" fill="#f2f2f2"/><path d="M2654.511,699.621l-96.712-.157h0l-68.176-.111a2.613,2.613,0,0,0-.008,5.225l80.772.131h0l84.115.137a2.613,2.613,0,0,0,.009-5.225Z" transform="translate(-2395.164 -607.06)" fill="#f2f2f2"/><path d="M2242.713,753.8l40.113.065h.005l62.988.1a2.613,2.613,0,1,0,.009-5.225l-31.6-.051h0l-71.5-.116a2.613,2.613,0,0,0-.009,5.225Z" transform="translate(-2239.954 -638.005)" fill="#f2f2f2"/><path d="M2701.991,749.325l-136.76-.222a2.613,2.613,0,0,0-.009,5.225l136.761.222a2.613,2.613,0,0,0,.008-5.225Z" transform="translate(-2442.696 -638.334)" fill="#f2f2f2"/><path d="M2242.577,803.43l71.5.115a2.611,2.611,0,0,0,2.616-2.608h0a2.612,2.612,0,0,0-2.608-2.617l-71.5-.116a2.612,2.612,0,0,0-2.617,2.608h0A2.612,2.612,0,0,0,2242.577,803.43Z" transform="translate(-2239.868 -669.202)" fill="#f2f2f2"/><path d="M2654.238,798.873l-96.712-.157h0l-68.176-.111a2.613,2.613,0,0,0-.009,5.225l76.712.124h0l88.177.143a2.612,2.612,0,0,0,.009-5.225Z" transform="translate(-2394.993 -669.453)" fill="#f2f2f2"/><path d="M2242.441,853.056l46.456.075h0l93.87.152a2.613,2.613,0,0,0,.009-5.225l-68.823-.111h0l-71.5-.116a2.613,2.613,0,0,0-2.616,2.609h0A2.612,2.612,0,0,0,2242.441,853.056Z" transform="translate(-2239.782 -700.398)" fill="#f2f2f2"/><path d="M2769.512,848.686l-96.711-.157a2.613,2.613,0,0,0-2.617,2.608h0a2.613,2.613,0,0,0,2.609,2.617l96.711.157a2.612,2.612,0,1,0,.008-5.225Z" transform="translate(-2510.318 -700.837)" fill="#f2f2f2"/><path d="M2313.816,897.572l-71.5-.116a2.613,2.613,0,0,0-2.616,2.609h0a2.613,2.613,0,0,0,2.608,2.617l71.5.116a2.613,2.613,0,0,0,2.617-2.608h0A2.613,2.613,0,0,0,2313.816,897.572Z" transform="translate(-2239.697 -731.595)" fill="#f2f2f2"/><path d="M2565.789,897.981l-76.712-.125a2.612,2.612,0,0,0-.009,5.225l76.712.125a2.612,2.612,0,0,0,.009-5.225Z" transform="translate(-2394.822 -731.847)" fill="#f2f2f2"/></g><g transform="translate(26.413 144.735)"><rect width="79.206" height="52.102" fill="#f2f2f2"/><g transform="translate(25.747 15.455)"><path d="M2339.519,648.508H2316.7a2.4,2.4,0,0,1-2.446-2.357q0-.044,0-.088v-16.3a2.4,2.4,0,0,1,2.357-2.445h22.91a2.4,2.4,0,0,1,2.445,2.357c0,.029,0,.059,0,.088v16.3a2.4,2.4,0,0,1-2.357,2.445ZM2316.7,628.947a.77.77,0,0,0-.815.722.857.857,0,0,0,0,.094v16.3a.77.77,0,0,0,.722.815.82.82,0,0,0,.093,0h22.822a.77.77,0,0,0,.815-.722.84.84,0,0,0,0-.093v-16.3a.771.771,0,0,0-.723-.815.78.78,0,0,0-.093,0Z" transform="translate(-2314.251 -627.317)" fill="#c9c9c9"/><path d="M2357.019,642.617a3.26,3.26,0,1,1,3.26-3.26h0A3.27,3.27,0,0,1,2357.019,642.617Zm0-4.891a1.63,1.63,0,1,0,1.63,1.63h0A1.636,1.636,0,0,0,2357.019,637.726Z" transform="translate(-2339.087 -632.836)" fill="#c9c9c9"/><path d="M2336.918,658.751l-13.286-12.471-7.579,7.009-1.141-1.14,8.721-8.151,14.427,13.611Z" transform="translate(-2314.667 -637.803)" fill="#c9c9c9"/><path d="M2369.911,663.09l-4.4-3.586-3.667,3.015-1.06-1.3,4.727-3.831,5.38,4.4Z" transform="translate(-2343.502 -646.218)" fill="#c9c9c9"/></g></g><path d="M6.062-6.636c0,.77-.42,1.232-1.316,1.232H3.262V-7.84H4.746C5.642-7.84,6.062-7.364,6.062-6.636ZM.868-9.828V0H3.262V-3.71h.574L5.88,0h2.7L6.314-3.892A2.861,2.861,0,0,0,8.5-6.734c0-1.708-1.2-3.094-3.612-3.094ZM10,0H12.39V-3.976h3V-5.838h-3V-7.91h4V-9.828H10ZM20.048-5.432V-7.9h1.3c.952,0,1.358.476,1.358,1.232S22.3-5.432,21.35-5.432Zm5.1-1.232c0-1.806-1.2-3.164-3.612-3.164H17.654V0h2.394V-3.528h1.484C24.038-3.528,25.144-5.04,25.144-6.664Zm9.408.028c0,.77-.42,1.232-1.316,1.232H31.752V-7.84h1.484C34.132-7.84,34.552-7.364,34.552-6.636ZM29.358-9.828V0h2.394V-3.71h.574L34.37,0h2.7L34.8-3.892a2.861,2.861,0,0,0,2.184-2.842c0-1.708-1.2-3.094-3.612-3.094ZM41.93-6.006A1.351,1.351,0,0,1,43.4-4.662h-3A1.481,1.481,0,0,1,41.93-6.006ZM45.668-2.59H43.12a1.273,1.273,0,0,1-1.246.756,1.448,1.448,0,0,1-1.484-1.5h5.418a6.05,6.05,0,0,0,.042-.7,3.681,3.681,0,0,0-3.892-3.892A3.752,3.752,0,0,0,38.01-3.906,3.766,3.766,0,0,0,41.958.112,3.651,3.651,0,0,0,45.668-2.59Zm7.784.322c-.042-2.912-4.27-2.03-4.27-3.276,0-.378.308-.6.868-.6a1.03,1.03,0,0,1,1.148.882H53.41c-.154-1.54-1.274-2.66-3.29-2.66-2.044,0-3.178,1.092-3.178,2.422,0,2.87,4.256,1.96,4.256,3.22,0,.35-.322.63-.938.63a1.1,1.1,0,0,1-1.2-.91H46.69C46.8-1.05,48.2.112,50.288.112,52.248.112,53.452-.91,53.452-2.268Zm3.864-4.438V-7.812H54.922V3.724h2.394V-1.092a2.81,2.81,0,0,0,2.408,1.2c1.918,0,3.444-1.568,3.444-4.032s-1.526-4-3.444-4A2.754,2.754,0,0,0,57.316-6.706ZM60.732-3.92A1.767,1.767,0,0,1,59.01-1.974,1.752,1.752,0,0,1,57.3-3.906,1.752,1.752,0,0,1,59.01-5.838,1.742,1.742,0,0,1,60.732-3.92Zm11.34.014a3.854,3.854,0,0,0-4.06-4.018,3.861,3.861,0,0,0-4.06,4.018A3.832,3.832,0,0,0,67.984.112,3.876,3.876,0,0,0,72.072-3.906Zm-5.684,0c0-1.33.756-1.946,1.624-1.946.84,0,1.624.616,1.624,1.946A1.71,1.71,0,0,1,67.984-1.96C67.116-1.96,66.388-2.59,66.388-3.906ZM78.736,0h2.38V-4.564c0-2.1-1.2-3.332-3.01-3.332a2.865,2.865,0,0,0-2.366,1.12V-7.812H73.346V0H75.74V-4.242a1.451,1.451,0,0,1,1.5-1.652,1.451,1.451,0,0,1,1.5,1.652ZM89.124-2.268c-.042-2.912-4.27-2.03-4.27-3.276,0-.378.308-.6.868-.6a1.03,1.03,0,0,1,1.148.882h2.212c-.154-1.54-1.274-2.66-3.29-2.66-2.044,0-3.178,1.092-3.178,2.422,0,2.87,4.256,1.96,4.256,3.22,0,.35-.322.63-.938.63a1.1,1.1,0,0,1-1.2-.91H82.362C82.474-1.05,83.874.112,85.96.112,87.92.112,89.124-.91,89.124-2.268Zm4.914-3.738a1.351,1.351,0,0,1,1.47,1.344h-3A1.481,1.481,0,0,1,94.038-6.006ZM97.776-2.59H95.228a1.273,1.273,0,0,1-1.246.756,1.448,1.448,0,0,1-1.484-1.5h5.418a6.05,6.05,0,0,0,.042-.7,3.681,3.681,0,0,0-3.892-3.892,3.752,3.752,0,0,0-3.948,4.018A3.766,3.766,0,0,0,94.066.112,3.651,3.651,0,0,0,97.776-2.59Z" transform="translate(25.043 33.667)" fill="#002f4f"/><path d="M1.035-1.165c0,.39-.1.935-.1,1.36a.682.682,0,0,0,.745.74h.29V.54H1.765C1.515.54,1.38.435,1.38.165c0-.38.095-.93.095-1.345a.641.641,0,0,0-.54-.685v-.01a.633.633,0,0,0,.54-.68c0-.415-.095-.965-.095-1.345,0-.27.135-.375.385-.375H1.97V-4.67H1.68a.682.682,0,0,0-.745.74c0,.425.1.97.1,1.36,0,.25-.135.455-.51.525v.355C.9-1.62,1.035-1.415,1.035-1.165ZM4.56-2.46c0,.39-.225.67-.74.67H3.15V-3.11h.67C4.34-3.11,4.56-2.855,4.56-2.46ZM2.695-3.485V0H3.15V-1.425H3.7L4.53,0h.545L4.2-1.46a.983.983,0,0,0,.83-1c0-.57-.39-1.025-1.21-1.025ZM5.735,0H6.19V-1.57H7.42v-.37H6.19V-3.115H7.7v-.37H5.735ZM8.71-1.83V-3.11h.67c.52,0,.74.24.74.645,0,.39-.22.635-.74.635Zm1.875-.635c0-.57-.385-1.02-1.2-1.02H8.255V0H8.71V-1.455h.67C10.245-1.455,10.585-1.935,10.585-2.465ZM11.6-.28a.3.3,0,0,0-.3-.31.305.305,0,0,0-.31.31.305.305,0,0,0,.31.31A.3.3,0,0,0,11.6-.28Zm.435-1.465A1.71,1.71,0,0,0,13.77.03a1.639,1.639,0,0,0,1.615-1.045H14.84a1.1,1.1,0,0,1-1.07.65,1.264,1.264,0,0,1-1.275-1.38A1.266,1.266,0,0,1,13.77-3.13a1.1,1.1,0,0,1,1.07.655h.545A1.64,1.64,0,0,0,13.77-3.53,1.718,1.718,0,0,0,12.03-1.745Zm4.485.255c0-.635.33-.83.765-.83h.12v-.47a.923.923,0,0,0-.885.5V-2.74H16.06V0h.455ZM19.09-2.4a.8.8,0,0,1,.865.83h-1.73A.849.849,0,0,1,19.09-2.4ZM20.37-.845h-.49a.753.753,0,0,1-.77.5.861.861,0,0,1-.89-.86h2.19a2.466,2.466,0,0,0,.015-.275,1.256,1.256,0,0,0-1.315-1.31,1.3,1.3,0,0,0-1.355,1.41A1.32,1.32,0,0,0,19.11.045,1.232,1.232,0,0,0,20.37-.845Zm.485-.535A1.318,1.318,0,0,0,22.15.045,1.144,1.144,0,0,0,23.175-.51V0h.46V-2.74h-.46v.5a1.137,1.137,0,0,0-1.02-.545A1.3,1.3,0,0,0,20.855-1.38Zm2.32,0a.938.938,0,0,1-.93,1.02A.938.938,0,0,1,21.32-1.38a.925.925,0,0,1,.925-1.01A.939.939,0,0,1,23.175-1.375Zm1.33.625c0,.55.275.75.76.75h.41V-.385H25.34c-.28,0-.38-.1-.38-.365V-2.365h.715V-2.74H24.96v-.69h-.455v.69H24.15v.375h.355ZM27.39-2.4a.8.8,0,0,1,.865.83h-1.73A.849.849,0,0,1,27.39-2.4ZM28.67-.845h-.49a.753.753,0,0,1-.77.5.861.861,0,0,1-.89-.86h2.19a2.466,2.466,0,0,0,.015-.275,1.256,1.256,0,0,0-1.315-1.31,1.3,1.3,0,0,0-1.355,1.41A1.32,1.32,0,0,0,27.41.045,1.232,1.232,0,0,0,28.67-.845Zm1.1.565a.3.3,0,0,0-.3-.31.305.305,0,0,0-.31.31.305.305,0,0,0,.31.31A.3.3,0,0,0,29.77-.28Zm1.69-3.205H30.375V0H31.46a1.659,1.659,0,0,0,1.85-1.735A1.67,1.67,0,0,0,31.46-3.485Zm-.63,3.11v-2.74h.63a1.257,1.257,0,0,1,1.385,1.38A1.243,1.243,0,0,1,31.46-.375Zm2.91-1A1.318,1.318,0,0,0,35.035.045,1.144,1.144,0,0,0,36.06-.51V0h.46V-2.74h-.46v.5a1.137,1.137,0,0,0-1.02-.545A1.3,1.3,0,0,0,33.74-1.38Zm2.32,0a.938.938,0,0,1-.93,1.02.938.938,0,0,1-.925-1.025.925.925,0,0,1,.925-1.01A.939.939,0,0,1,36.06-1.375Zm1.33.625c0,.55.275.75.76.75h.41V-.385h-.335c-.28,0-.38-.1-.38-.365V-2.365h.715V-2.74h-.715v-.69H37.39v.69h-.355v.375h.355ZM40.275-2.4a.8.8,0,0,1,.865.83H39.41A.849.849,0,0,1,40.275-2.4Zm1.28,1.555h-.49a.753.753,0,0,1-.77.5.861.861,0,0,1-.89-.86h2.19a2.466,2.466,0,0,0,.015-.275,1.256,1.256,0,0,0-1.315-1.31,1.3,1.3,0,0,0-1.355,1.41A1.32,1.32,0,0,0,40.295.045,1.232,1.232,0,0,0,41.555-.845Zm1.545-.32c0,.39.1.935.1,1.36a.682.682,0,0,1-.745.74h-.29V.54h.2c.25,0,.385-.105.385-.375,0-.38-.1-.93-.1-1.345a.641.641,0,0,1,.54-.685v-.01a.633.633,0,0,1-.54-.68c0-.415.1-.965.1-1.345,0-.27-.135-.375-.385-.375h-.2V-4.67h.29a.682.682,0,0,1,.745.74c0,.425-.1.97-.1,1.36,0,.25.135.455.51.525v.355C43.235-1.62,43.1-1.415,43.1-1.165Z" transform="translate(30.043 56.667)" fill="#002f4f"/></g></g></g></svg>